%TF.GenerationSoftware,KiCad,Pcbnew,10.0.0*%
%TF.CreationDate,2026-07-27T12:49:20+01:00*%
%TF.ProjectId,design,64657369-676e-42e6-9b69-6361645f7063,2.2.1*%
%TF.SameCoordinates,Original*%
%TF.FileFunction,Soldermask,Top*%
%TF.FilePolarity,Negative*%
%FSLAX46Y46*%
G04 Gerber Fmt 4.6, Leading zero omitted, Abs format (unit mm)*
G04 Created by KiCad (PCBNEW 10.0.0) date 2026-07-27 12:49:20*
%MOMM*%
%LPD*%
G01*
G04 APERTURE LIST*
G04 Aperture macros list*
%AMRoundRect*
0 Rectangle with rounded corners*
0 $1 Rounding radius*
0 $2 $3 $4 $5 $6 $7 $8 $9 X,Y pos of 4 corners*
0 Add a 4 corners polygon primitive as box body*
4,1,4,$2,$3,$4,$5,$6,$7,$8,$9,$2,$3,0*
0 Add four circle primitives for the rounded corners*
1,1,$1+$1,$2,$3*
1,1,$1+$1,$4,$5*
1,1,$1+$1,$6,$7*
1,1,$1+$1,$8,$9*
0 Add four rect primitives between the rounded corners*
20,1,$1+$1,$2,$3,$4,$5,0*
20,1,$1+$1,$4,$5,$6,$7,0*
20,1,$1+$1,$6,$7,$8,$9,0*
20,1,$1+$1,$8,$9,$2,$3,0*%
%AMFreePoly0*
4,1,37,0.800000,0.796148,0.878414,0.796148,1.032228,0.765552,1.177117,0.705537,1.307515,0.618408,1.418408,0.507515,1.505537,0.377117,1.565552,0.232228,1.596148,0.078414,1.596148,-0.078414,1.565552,-0.232228,1.505537,-0.377117,1.418408,-0.507515,1.307515,-0.618408,1.177117,-0.705537,1.032228,-0.765552,0.878414,-0.796148,0.800000,-0.796148,0.800000,-0.800000,-1.400000,-0.800000,
-1.403843,-0.796157,-1.439018,-0.796157,-1.511114,-0.766294,-1.566294,-0.711114,-1.596157,-0.639018,-1.596157,-0.603843,-1.600000,-0.600000,-1.600000,0.600000,-1.596157,0.603843,-1.596157,0.639018,-1.566294,0.711114,-1.511114,0.766294,-1.439018,0.796157,-1.403843,0.796157,-1.400000,0.800000,0.800000,0.800000,0.800000,0.796148,0.800000,0.796148,$1*%
%AMFreePoly1*
4,1,37,1.403843,0.796157,1.439018,0.796157,1.511114,0.766294,1.566294,0.711114,1.596157,0.639018,1.596157,0.603843,1.600000,0.600000,1.600000,-0.600000,1.596157,-0.603843,1.596157,-0.639018,1.566294,-0.711114,1.511114,-0.766294,1.439018,-0.796157,1.403843,-0.796157,1.400000,-0.800000,-0.800000,-0.800000,-0.800000,-0.796148,-0.878414,-0.796148,-1.032228,-0.765552,-1.177117,-0.705537,
-1.307515,-0.618408,-1.418408,-0.507515,-1.505537,-0.377117,-1.565552,-0.232228,-1.596148,-0.078414,-1.596148,0.078414,-1.565552,0.232228,-1.505537,0.377117,-1.418408,0.507515,-1.307515,0.618408,-1.177117,0.705537,-1.032228,0.765552,-0.878414,0.796148,-0.800000,0.796148,-0.800000,0.800000,1.400000,0.800000,1.403843,0.796157,1.403843,0.796157,$1*%
%AMFreePoly2*
4,1,37,0.603843,0.796157,0.639018,0.796157,0.711114,0.766294,0.766294,0.711114,0.796157,0.639018,0.796157,0.603843,0.800000,0.600000,0.800000,-0.600000,0.796157,-0.603843,0.796157,-0.639018,0.766294,-0.711114,0.711114,-0.766294,0.639018,-0.796157,0.603843,-0.796157,0.600000,-0.800000,0.000000,-0.800000,0.000000,-0.796148,-0.078414,-0.796148,-0.232228,-0.765552,-0.377117,-0.705537,
-0.507515,-0.618408,-0.618408,-0.507515,-0.705537,-0.377117,-0.765552,-0.232228,-0.796148,-0.078414,-0.796148,0.078414,-0.765552,0.232228,-0.705537,0.377117,-0.618408,0.507515,-0.507515,0.618408,-0.377117,0.705537,-0.232228,0.765552,-0.078414,0.796148,0.000000,0.796148,0.000000,0.800000,0.600000,0.800000,0.603843,0.796157,0.603843,0.796157,$1*%
%AMFreePoly3*
4,1,37,0.000000,0.796148,0.078414,0.796148,0.232228,0.765552,0.377117,0.705537,0.507515,0.618408,0.618408,0.507515,0.705537,0.377117,0.765552,0.232228,0.796148,0.078414,0.796148,-0.078414,0.765552,-0.232228,0.705537,-0.377117,0.618408,-0.507515,0.507515,-0.618408,0.377117,-0.705537,0.232228,-0.765552,0.078414,-0.796148,0.000000,-0.796148,0.000000,-0.800000,-0.600000,-0.800000,
-0.603843,-0.796157,-0.639018,-0.796157,-0.711114,-0.766294,-0.766294,-0.711114,-0.796157,-0.639018,-0.796157,-0.603843,-0.800000,-0.600000,-0.800000,0.600000,-0.796157,0.603843,-0.796157,0.639018,-0.766294,0.711114,-0.711114,0.766294,-0.639018,0.796157,-0.603843,0.796157,-0.600000,0.800000,0.000000,0.800000,0.000000,0.796148,0.000000,0.796148,$1*%
G04 Aperture macros list end*
%ADD10C,0.000000*%
%ADD11C,1.700000*%
%ADD12R,1.700000X1.700000*%
%ADD13RoundRect,0.087500X0.087500X-0.225000X0.087500X0.225000X-0.087500X0.225000X-0.087500X-0.225000X0*%
%ADD14RoundRect,0.087500X0.225000X-0.087500X0.225000X0.087500X-0.225000X0.087500X-0.225000X-0.087500X0*%
%ADD15RoundRect,0.140000X-0.140000X-0.170000X0.140000X-0.170000X0.140000X0.170000X-0.140000X0.170000X0*%
%ADD16C,2.200000*%
%ADD17C,1.850000*%
%ADD18FreePoly0,0.000000*%
%ADD19RoundRect,0.200000X-0.600000X-0.600000X0.600000X-0.600000X0.600000X0.600000X-0.600000X0.600000X0*%
%ADD20RoundRect,0.800000X-0.800000X-0.000010X0.800000X-0.000010X0.800000X0.000010X-0.800000X0.000010X0*%
%ADD21C,1.600000*%
%ADD22FreePoly1,0.000000*%
%ADD23FreePoly2,0.000000*%
%ADD24FreePoly3,0.000000*%
%ADD25C,1.800000*%
%ADD26O,1.700000X2.900000*%
%ADD27O,2.900000X1.700000*%
%ADD28RoundRect,0.287778X-0.489222X-0.714222X0.489222X-0.714222X0.489222X0.714222X-0.489222X0.714222X0*%
%ADD29RoundRect,0.100000X0.100000X-0.130000X0.100000X0.130000X-0.100000X0.130000X-0.100000X-0.130000X0*%
%ADD30RoundRect,0.200000X0.275000X-0.200000X0.275000X0.200000X-0.275000X0.200000X-0.275000X-0.200000X0*%
%ADD31RoundRect,0.200000X-0.275000X0.200000X-0.275000X-0.200000X0.275000X-0.200000X0.275000X0.200000X0*%
%ADD32RoundRect,0.218750X0.256250X-0.218750X0.256250X0.218750X-0.256250X0.218750X-0.256250X-0.218750X0*%
G04 APERTURE END LIST*
D10*
%TO.C,G\u002A\u002A\u002A*%
G36*
X201182501Y-122005401D02*
G01*
X201313847Y-122046796D01*
X201407090Y-122130488D01*
X201461578Y-122253622D01*
X201476656Y-122413343D01*
X201451669Y-122606796D01*
X201385963Y-122831124D01*
X201377213Y-122854918D01*
X201294992Y-123016288D01*
X201184115Y-123150396D01*
X201054014Y-123251410D01*
X200914123Y-123313496D01*
X200773874Y-123330822D01*
X200653352Y-123302534D01*
X200561994Y-123232637D01*
X200490556Y-123121593D01*
X200447609Y-122985806D01*
X200439030Y-122892222D01*
X200460138Y-122721551D01*
X200518540Y-122550838D01*
X200606854Y-122388891D01*
X200717698Y-122244514D01*
X200843690Y-122126513D01*
X200977446Y-122043694D01*
X201111585Y-122004863D01*
X201182501Y-122005401D01*
G37*
G36*
X206167956Y-122008852D02*
G01*
X206304371Y-122065227D01*
X206349575Y-122096428D01*
X206458936Y-122211515D01*
X206536516Y-122358144D01*
X206582863Y-122525391D01*
X206598526Y-122702333D01*
X206584053Y-122878044D01*
X206539992Y-123041601D01*
X206466893Y-123182079D01*
X206365302Y-123288554D01*
X206287491Y-123333019D01*
X206161664Y-123369358D01*
X206049157Y-123360092D01*
X205952660Y-123319474D01*
X205840809Y-123229449D01*
X205748773Y-123096554D01*
X205681506Y-122934670D01*
X205643968Y-122757675D01*
X205641115Y-122579449D01*
X205655659Y-122487937D01*
X205718028Y-122300506D01*
X205805678Y-122155928D01*
X205913373Y-122057157D01*
X206035878Y-122007147D01*
X206167956Y-122008852D01*
G37*
G36*
X203766617Y-122327913D02*
G01*
X203972406Y-122369369D01*
X204141589Y-122448732D01*
X204211455Y-122503198D01*
X204297790Y-122612295D01*
X204330210Y-122725171D01*
X204312962Y-122837981D01*
X204250296Y-122946881D01*
X204146459Y-123048025D01*
X204005700Y-123137568D01*
X203832266Y-123211667D01*
X203630405Y-123266475D01*
X203404366Y-123298148D01*
X203328060Y-123302751D01*
X203196223Y-123304359D01*
X203075035Y-123299131D01*
X202984934Y-123288161D01*
X202964940Y-123283296D01*
X202829558Y-123226275D01*
X202735367Y-123144729D01*
X202667960Y-123029392D01*
X202623618Y-122910484D01*
X202614343Y-122818559D01*
X202640942Y-122732989D01*
X202682182Y-122664576D01*
X202782868Y-122562064D01*
X202933552Y-122472157D01*
X203126185Y-122398995D01*
X203269911Y-122362413D01*
X203530394Y-122325287D01*
X203766617Y-122327913D01*
G37*
G36*
X203807646Y-126377468D02*
G01*
X203859205Y-126410356D01*
X203898729Y-126447796D01*
X203961792Y-126526895D01*
X203986079Y-126611444D01*
X203987990Y-126656635D01*
X203990458Y-126730969D01*
X203996635Y-126772830D01*
X203999303Y-126776212D01*
X204030385Y-126764068D01*
X204090358Y-126734616D01*
X204094626Y-126732397D01*
X204230981Y-126692509D01*
X204379985Y-126701066D01*
X204527530Y-126754308D01*
X204659512Y-126848476D01*
X204702892Y-126894497D01*
X204764161Y-127009922D01*
X204781448Y-127146665D01*
X204754142Y-127286544D01*
X204718596Y-127360372D01*
X204645620Y-127461704D01*
X204550870Y-127566665D01*
X204441813Y-127669991D01*
X204325919Y-127766416D01*
X204210654Y-127850673D01*
X204103487Y-127917498D01*
X204011887Y-127961624D01*
X203943322Y-127977787D01*
X203905260Y-127960719D01*
X203900000Y-127937544D01*
X203923598Y-127901068D01*
X203984299Y-127851126D01*
X204039318Y-127816052D01*
X204218119Y-127699746D01*
X204376072Y-127571397D01*
X204506031Y-127438850D01*
X204600850Y-127309952D01*
X204653379Y-127192548D01*
X204661653Y-127132874D01*
X204649292Y-127035420D01*
X204606699Y-126960522D01*
X204522627Y-126891211D01*
X204486086Y-126868025D01*
X204351652Y-126816520D01*
X204216944Y-126820109D01*
X204091267Y-126876011D01*
X203983927Y-126981446D01*
X203953888Y-127027020D01*
X203908564Y-127089064D01*
X203869078Y-127119024D01*
X203859711Y-127119215D01*
X203843212Y-127108009D01*
X203834548Y-127081626D01*
X203833659Y-127029708D01*
X203840485Y-126941896D01*
X203854969Y-126807831D01*
X203857801Y-126783070D01*
X203867160Y-126676483D01*
X203863127Y-126609108D01*
X203843122Y-126562500D01*
X203823533Y-126538099D01*
X203773852Y-126498718D01*
X203708607Y-126486697D01*
X203641244Y-126491222D01*
X203495207Y-126535548D01*
X203366017Y-126627145D01*
X203262355Y-126755197D01*
X203192902Y-126908886D01*
X203166339Y-127077395D01*
X203166294Y-127083062D01*
X203160529Y-127177944D01*
X203146383Y-127252443D01*
X203136964Y-127274826D01*
X203103785Y-127301383D01*
X203077545Y-127275962D01*
X203060442Y-127205054D01*
X203054676Y-127095152D01*
X203056269Y-127036683D01*
X203090832Y-126841197D01*
X203170311Y-126669722D01*
X203287848Y-126529958D01*
X203436587Y-126429605D01*
X203609668Y-126376362D01*
X203648394Y-126371893D01*
X203745252Y-126367035D01*
X203807646Y-126377468D01*
G37*
G36*
X203619805Y-117751501D02*
G01*
X203873228Y-117777805D01*
X204151088Y-117820750D01*
X204462610Y-117880539D01*
X204817017Y-117957374D01*
X204983284Y-117995333D01*
X205246891Y-118055644D01*
X205461260Y-118102620D01*
X205634163Y-118136738D01*
X205773374Y-118158473D01*
X205886667Y-118168298D01*
X205981814Y-118166691D01*
X206066589Y-118154124D01*
X206148765Y-118131075D01*
X206236116Y-118098016D01*
X206290415Y-118075213D01*
X206646743Y-117942650D01*
X207003427Y-117847691D01*
X207351536Y-117791529D01*
X207682142Y-117775360D01*
X207986315Y-117800379D01*
X208128183Y-117829330D01*
X208400237Y-117909616D01*
X208623364Y-118002592D01*
X208806747Y-118112941D01*
X208959571Y-118245346D01*
X208974173Y-118260670D01*
X209067906Y-118371464D01*
X209156472Y-118494219D01*
X209221983Y-118603961D01*
X209226275Y-118612633D01*
X209263466Y-118695873D01*
X209288505Y-118773376D01*
X209304409Y-118861500D01*
X209314196Y-118976600D01*
X209320494Y-119123471D01*
X209323054Y-119318941D01*
X209314969Y-119473292D01*
X209295081Y-119603295D01*
X209284170Y-119649871D01*
X209230931Y-119814833D01*
X209152329Y-120005179D01*
X209058277Y-120200336D01*
X208958692Y-120379728D01*
X208863564Y-120522681D01*
X208800066Y-120610527D01*
X208768253Y-120671204D01*
X208761692Y-120722134D01*
X208771498Y-120771988D01*
X208787214Y-120828791D01*
X208815843Y-120931736D01*
X208854499Y-121070473D01*
X208900298Y-121234650D01*
X208950356Y-121413917D01*
X208957114Y-121438106D01*
X209024042Y-121678907D01*
X209088877Y-121914536D01*
X209149078Y-122135587D01*
X209202105Y-122332654D01*
X209245419Y-122496333D01*
X209276480Y-122617218D01*
X209285822Y-122655311D01*
X209306072Y-122784189D01*
X209317108Y-122948812D01*
X209318555Y-123126933D01*
X209310034Y-123296304D01*
X209298348Y-123395173D01*
X209267271Y-123563881D01*
X209224029Y-123760424D01*
X209172618Y-123969718D01*
X209117032Y-124176675D01*
X209061265Y-124366211D01*
X209009311Y-124523240D01*
X208978583Y-124602849D01*
X208922524Y-124721052D01*
X208847263Y-124861395D01*
X208766963Y-124997770D01*
X208748152Y-125027574D01*
X208599796Y-125258729D01*
X208687354Y-125584849D01*
X208755489Y-125812546D01*
X208843931Y-126067611D01*
X208949054Y-126342396D01*
X209067235Y-126629251D01*
X209194849Y-126920529D01*
X209328272Y-127208580D01*
X209463881Y-127485757D01*
X209598051Y-127744410D01*
X209727157Y-127976891D01*
X209847576Y-128175552D01*
X209955683Y-128332744D01*
X210033966Y-128426765D01*
X210128062Y-128529866D01*
X210193985Y-128618445D01*
X210239950Y-128709722D01*
X210274169Y-128820916D01*
X210304855Y-128969247D01*
X210312232Y-129010176D01*
X210328345Y-129132104D01*
X210342269Y-129298303D01*
X210353907Y-129499542D01*
X210363161Y-129726592D01*
X210369932Y-129970223D01*
X210374122Y-130221207D01*
X210375633Y-130470314D01*
X210374366Y-130708314D01*
X210370224Y-130925979D01*
X210363108Y-131114079D01*
X210352920Y-131263384D01*
X210339561Y-131364665D01*
X210337394Y-131374652D01*
X210280022Y-131565360D01*
X210205175Y-131732751D01*
X210120489Y-131860098D01*
X210110723Y-131871139D01*
X210051391Y-131935927D01*
X210160586Y-132252432D01*
X210204895Y-132372619D01*
X210268393Y-132533580D01*
X210345887Y-132722731D01*
X210432188Y-132927491D01*
X210522104Y-133135279D01*
X210563452Y-133228868D01*
X210811270Y-133813673D01*
X211016854Y-134359987D01*
X211180612Y-134869602D01*
X211302951Y-135344309D01*
X211384279Y-135785902D01*
X211425005Y-136196170D01*
X211425535Y-136576907D01*
X211394404Y-136880484D01*
X211298725Y-137318512D01*
X211147941Y-137762004D01*
X210944589Y-138205546D01*
X210691209Y-138643722D01*
X210390336Y-139071117D01*
X210334221Y-139142850D01*
X210270380Y-139224041D01*
X210179459Y-139340763D01*
X210070026Y-139481959D01*
X209950650Y-139636575D01*
X209833565Y-139788780D01*
X209475791Y-140254793D01*
X209217630Y-140348902D01*
X208998465Y-140423276D01*
X208784621Y-140483117D01*
X208561538Y-140531407D01*
X208314656Y-140571123D01*
X208029415Y-140605244D01*
X207903579Y-140617779D01*
X207727733Y-140631065D01*
X207508693Y-140642284D01*
X207260322Y-140651202D01*
X206996481Y-140657580D01*
X206731032Y-140661183D01*
X206477837Y-140661774D01*
X206250758Y-140659116D01*
X206063658Y-140652974D01*
X206011778Y-140650060D01*
X205846099Y-140637346D01*
X205672878Y-140620688D01*
X205517307Y-140602654D01*
X205440188Y-140591818D01*
X205302443Y-140564425D01*
X205190232Y-140524969D01*
X205095994Y-140465975D01*
X205012171Y-140379971D01*
X204931203Y-140259484D01*
X204845532Y-140097039D01*
X204765218Y-139924507D01*
X204736468Y-139924440D01*
X204657303Y-139927663D01*
X204535853Y-139933756D01*
X204380248Y-139942294D01*
X204198616Y-139952858D01*
X204074546Y-139960359D01*
X203828777Y-139974047D01*
X203555501Y-139986959D01*
X203275979Y-139998240D01*
X203011472Y-140007035D01*
X202783241Y-140012489D01*
X202774033Y-140012645D01*
X202161347Y-140022756D01*
X202093878Y-140155512D01*
X201977235Y-140323124D01*
X201819837Y-140449054D01*
X201648772Y-140523987D01*
X201560633Y-140541090D01*
X201422845Y-140555084D01*
X201244339Y-140565968D01*
X201034043Y-140573741D01*
X200800887Y-140578403D01*
X200553801Y-140579954D01*
X200301713Y-140578392D01*
X200053555Y-140573717D01*
X199818254Y-140565929D01*
X199604742Y-140555027D01*
X199421946Y-140541010D01*
X199280485Y-140524139D01*
X199141002Y-140504087D01*
X198960788Y-140480298D01*
X198757468Y-140454985D01*
X198548670Y-140430360D01*
X198408501Y-140414696D01*
X198177109Y-140386303D01*
X197941211Y-140351542D01*
X197710648Y-140312365D01*
X197495263Y-140270723D01*
X197304897Y-140228567D01*
X197149394Y-140187848D01*
X197038595Y-140150518D01*
X197009894Y-140137437D01*
X196907018Y-140060222D01*
X196798482Y-139935716D01*
X196692436Y-139773641D01*
X196668043Y-139729827D01*
X196615837Y-139639746D01*
X196541683Y-139520335D01*
X196457341Y-139390271D01*
X196406742Y-139314895D01*
X196260887Y-139094537D01*
X196144001Y-138901934D01*
X196046809Y-138720361D01*
X195960038Y-138533092D01*
X195918843Y-138434988D01*
X195811022Y-138171016D01*
X195521966Y-137973597D01*
X195324554Y-137846897D01*
X195096349Y-137713613D01*
X194855729Y-137583588D01*
X194621073Y-137466665D01*
X194410759Y-137372687D01*
X194367135Y-137355106D01*
X194256119Y-137314724D01*
X194110617Y-137266253D01*
X193952774Y-137216914D01*
X193853855Y-137187744D01*
X193647389Y-137123276D01*
X193483108Y-137057596D01*
X193345003Y-136982130D01*
X193217061Y-136888302D01*
X193101011Y-136784540D01*
X192918652Y-136571807D01*
X192774339Y-136320669D01*
X192671682Y-136040211D01*
X192614292Y-135739520D01*
X192602963Y-135531293D01*
X192604179Y-135516628D01*
X192744399Y-135516628D01*
X192745727Y-135687214D01*
X192752303Y-135815963D01*
X192766054Y-135919607D01*
X192788911Y-136014874D01*
X192809315Y-136079488D01*
X192923790Y-136339845D01*
X193078937Y-136571016D01*
X193268020Y-136766203D01*
X193484301Y-136918608D01*
X193721044Y-137021433D01*
X193751732Y-137030459D01*
X194079323Y-137130926D01*
X194404010Y-137247746D01*
X194716295Y-137376519D01*
X195006677Y-137512847D01*
X195265659Y-137652328D01*
X195483740Y-137790563D01*
X195621516Y-137896558D01*
X195693397Y-137944362D01*
X195753733Y-137961289D01*
X195790167Y-137947384D01*
X195790345Y-137902696D01*
X195787630Y-137895926D01*
X195770815Y-137825514D01*
X195769025Y-137789722D01*
X195767675Y-137740434D01*
X195762614Y-137644811D01*
X195754569Y-137515009D01*
X195744265Y-137363186D01*
X195739839Y-137301277D01*
X195725504Y-137036203D01*
X195725344Y-136997805D01*
X195822996Y-136997805D01*
X195834454Y-137393302D01*
X195871101Y-137746110D01*
X195936611Y-138068113D01*
X196034660Y-138371196D01*
X196168924Y-138667241D01*
X196343077Y-138968135D01*
X196507833Y-139212240D01*
X196593258Y-139337166D01*
X196674678Y-139464456D01*
X196739723Y-139574431D01*
X196762615Y-139617533D01*
X196830069Y-139732497D01*
X196915258Y-139851109D01*
X196960444Y-139904557D01*
X197013847Y-139960289D01*
X197062861Y-140000895D01*
X197120375Y-140032259D01*
X197199276Y-140060262D01*
X197312451Y-140090787D01*
X197432679Y-140120100D01*
X197712813Y-140183025D01*
X197964572Y-140229132D01*
X198214303Y-140262738D01*
X198429907Y-140283487D01*
X198554205Y-140295675D01*
X198714931Y-140314127D01*
X198890529Y-140336254D01*
X199045843Y-140357507D01*
X199504927Y-140415349D01*
X199932963Y-140451711D01*
X200352931Y-140467962D01*
X200787808Y-140465474D01*
X200834988Y-140464190D01*
X201094984Y-140454160D01*
X201304299Y-140439920D01*
X201470843Y-140420121D01*
X201602525Y-140393411D01*
X201707255Y-140358441D01*
X201792943Y-140313859D01*
X201819355Y-140296122D01*
X201866929Y-140246491D01*
X201929614Y-140159737D01*
X201996602Y-140051359D01*
X202022447Y-140004930D01*
X202096694Y-139876334D01*
X202152843Y-139800688D01*
X202192615Y-139775731D01*
X202196625Y-139776083D01*
X202237175Y-139806637D01*
X202242840Y-139828577D01*
X202252323Y-139847064D01*
X202286422Y-139860417D01*
X202353615Y-139869813D01*
X202462380Y-139876428D01*
X202621193Y-139881440D01*
X202624134Y-139881512D01*
X202776389Y-139882647D01*
X202974587Y-139880240D01*
X203206146Y-139874768D01*
X203458488Y-139866705D01*
X203719031Y-139856529D01*
X203975194Y-139844715D01*
X204214398Y-139831739D01*
X204424062Y-139818076D01*
X204537933Y-139809106D01*
X204647355Y-139798701D01*
X204710824Y-139787047D01*
X204740853Y-139768124D01*
X204749955Y-139735913D01*
X204750577Y-139706808D01*
X204765963Y-139647977D01*
X204800391Y-139620020D01*
X204836271Y-139631222D01*
X204850989Y-139659526D01*
X204933929Y-139920654D01*
X205016993Y-140130652D01*
X205099225Y-140287752D01*
X205179670Y-140390186D01*
X205257374Y-140436186D01*
X205271523Y-140438382D01*
X205334703Y-140445409D01*
X205438808Y-140458817D01*
X205566740Y-140476357D01*
X205645150Y-140487540D01*
X205778535Y-140501095D01*
X205960494Y-140511208D01*
X206181050Y-140517989D01*
X206430225Y-140521546D01*
X206698040Y-140521990D01*
X206974518Y-140519430D01*
X207249679Y-140513974D01*
X207513547Y-140505734D01*
X207756142Y-140494817D01*
X207967487Y-140481334D01*
X208137603Y-140465394D01*
X208182217Y-140459721D01*
X208481293Y-140409566D01*
X208774028Y-140344217D01*
X209041760Y-140268268D01*
X209225610Y-140202880D01*
X209324252Y-140157885D01*
X209401458Y-140105077D01*
X209475704Y-140029374D01*
X209546073Y-139941293D01*
X209614260Y-139852274D01*
X209708694Y-139729462D01*
X209819689Y-139585433D01*
X209937559Y-139432760D01*
X210015358Y-139332147D01*
X210216387Y-139069113D01*
X210383982Y-138842058D01*
X210523488Y-138642949D01*
X210640252Y-138463751D01*
X210739618Y-138296432D01*
X210826933Y-138132958D01*
X210866037Y-138053694D01*
X211028941Y-137687776D01*
X211152647Y-137342812D01*
X211238007Y-137008934D01*
X211285874Y-136676274D01*
X211297099Y-136334963D01*
X211272536Y-135975132D01*
X211213037Y-135586914D01*
X211119455Y-135160440D01*
X211116883Y-135149999D01*
X211007756Y-134749838D01*
X210876190Y-134346272D01*
X210717715Y-133926950D01*
X210527856Y-133479520D01*
X210447759Y-133302193D01*
X210370218Y-133127821D01*
X210282460Y-132922100D01*
X210194418Y-132708772D01*
X210116023Y-132511579D01*
X210104207Y-132480946D01*
X210046618Y-132331652D01*
X209996287Y-132202767D01*
X209956955Y-132103737D01*
X209932357Y-132044010D01*
X209926064Y-132030761D01*
X209896384Y-132035788D01*
X209825441Y-132058068D01*
X209726527Y-132093298D01*
X209687381Y-132108035D01*
X209540173Y-132159523D01*
X209375576Y-132210046D01*
X209230773Y-132248283D01*
X209112912Y-132274134D01*
X209027490Y-132285683D01*
X208950060Y-132282927D01*
X208856169Y-132265865D01*
X208779577Y-132248244D01*
X208555691Y-132195463D01*
X208481107Y-132294209D01*
X208368628Y-132424601D01*
X208218434Y-132572393D01*
X208044056Y-132726442D01*
X207859027Y-132875606D01*
X207676879Y-133008742D01*
X207511143Y-133114706D01*
X207434295Y-133156184D01*
X207340310Y-133195571D01*
X207210537Y-133240870D01*
X207066363Y-133284872D01*
X206994341Y-133304450D01*
X206840174Y-133341500D01*
X206715385Y-133362560D01*
X206593763Y-133370369D01*
X206449098Y-133367665D01*
X206407736Y-133365741D01*
X206118472Y-133334118D01*
X205871885Y-133270737D01*
X205671376Y-133176586D01*
X205608572Y-133133407D01*
X205419543Y-132956918D01*
X205250566Y-132736182D01*
X205110108Y-132484459D01*
X205006632Y-132215007D01*
X204993999Y-132170860D01*
X204966459Y-132028703D01*
X204948574Y-131850753D01*
X204940301Y-131653041D01*
X204941596Y-131451599D01*
X204952414Y-131262458D01*
X204972713Y-131101652D01*
X204997202Y-130999768D01*
X205066525Y-130823345D01*
X205164650Y-130615624D01*
X205285878Y-130385615D01*
X205424511Y-130142328D01*
X205574850Y-129894772D01*
X205731200Y-129651957D01*
X205887860Y-129422892D01*
X206039133Y-129216588D01*
X206179322Y-129042053D01*
X206302728Y-128908298D01*
X206344209Y-128869887D01*
X206446505Y-128786048D01*
X206540213Y-128725172D01*
X206637685Y-128683896D01*
X206751271Y-128658858D01*
X206893323Y-128646696D01*
X207076191Y-128644048D01*
X207170323Y-128644995D01*
X207386943Y-128650906D01*
X207607967Y-128661908D01*
X207819796Y-128676939D01*
X208008830Y-128694937D01*
X208161472Y-128714840D01*
X208233545Y-128728034D01*
X208285109Y-128757119D01*
X208299538Y-128789625D01*
X208290310Y-128816531D01*
X208253754Y-128826890D01*
X208176560Y-128823341D01*
X208145554Y-128820184D01*
X208066012Y-128812892D01*
X207940783Y-128802957D01*
X207782730Y-128791330D01*
X207604715Y-128778962D01*
X207447726Y-128768602D01*
X207209350Y-128755326D01*
X207019703Y-128750912D01*
X206869277Y-128757185D01*
X206748563Y-128775966D01*
X206648054Y-128809082D01*
X206558241Y-128858354D01*
X206469617Y-128925608D01*
X206424679Y-128964838D01*
X206300029Y-129091878D01*
X206157003Y-129262779D01*
X206001751Y-129468115D01*
X205840422Y-129698461D01*
X205679167Y-129944390D01*
X205524134Y-130196476D01*
X205381475Y-130445294D01*
X205257338Y-130681416D01*
X205157874Y-130895417D01*
X205144879Y-130926443D01*
X205112034Y-131009402D01*
X205089024Y-131080848D01*
X205074119Y-131154055D01*
X205065588Y-131242300D01*
X205061699Y-131358856D01*
X205060722Y-131516999D01*
X205060735Y-131571708D01*
X205061747Y-131747940D01*
X205065569Y-131879725D01*
X205073897Y-131981265D01*
X205088428Y-132066762D01*
X205110855Y-132150420D01*
X205140459Y-132239515D01*
X205220980Y-132442374D01*
X205315175Y-132616784D01*
X205437615Y-132788075D01*
X205499265Y-132863167D01*
X205669032Y-133019636D01*
X205877480Y-133137862D01*
X206117453Y-133216202D01*
X206381791Y-133253016D01*
X206663339Y-133246662D01*
X206952094Y-133196215D01*
X207217545Y-133115941D01*
X207439069Y-133017290D01*
X207630076Y-132894281D01*
X207631837Y-132892938D01*
X207724015Y-132828197D01*
X207813934Y-132773942D01*
X207854336Y-132753974D01*
X207909985Y-132717189D01*
X207989317Y-132647990D01*
X208083093Y-132556438D01*
X208182078Y-132452596D01*
X208277031Y-132346526D01*
X208358715Y-132248293D01*
X208417892Y-132167957D01*
X208445325Y-132115582D01*
X208446189Y-132109285D01*
X208447398Y-132080007D01*
X208457777Y-132063501D01*
X208487449Y-132060119D01*
X208546541Y-132070216D01*
X208645175Y-132094146D01*
X208744743Y-132119722D01*
X208868041Y-132150516D01*
X208955202Y-132166933D01*
X209026798Y-132169615D01*
X209103398Y-132159202D01*
X209205573Y-132136333D01*
X209214027Y-132134327D01*
X209485279Y-132059618D01*
X209704224Y-131974793D01*
X209876933Y-131875491D01*
X210009477Y-131757350D01*
X210107926Y-131616006D01*
X210178351Y-131447098D01*
X210180667Y-131439722D01*
X210200844Y-131371886D01*
X210216602Y-131308243D01*
X210228479Y-131240524D01*
X210237013Y-131160462D01*
X210242743Y-131059788D01*
X210246207Y-130930232D01*
X210247944Y-130763527D01*
X210248492Y-130551405D01*
X210248474Y-130398498D01*
X210245996Y-130046594D01*
X210238647Y-129745143D01*
X210225887Y-129486096D01*
X210207173Y-129261406D01*
X210181963Y-129063023D01*
X210149715Y-128882900D01*
X210144828Y-128859705D01*
X210116807Y-128765635D01*
X210070119Y-128680869D01*
X209993240Y-128586419D01*
X209952384Y-128542649D01*
X209844430Y-128411456D01*
X209722626Y-128232103D01*
X209590533Y-128012446D01*
X209451711Y-127760342D01*
X209309722Y-127483649D01*
X209168125Y-127190223D01*
X209030481Y-126887920D01*
X208900351Y-126584599D01*
X208781296Y-126288115D01*
X208676875Y-126006325D01*
X208590649Y-125747087D01*
X208526179Y-125518258D01*
X208487026Y-125327693D01*
X208483301Y-125300902D01*
X208486302Y-125192282D01*
X208512146Y-125139586D01*
X208580857Y-125045830D01*
X208661721Y-124913772D01*
X208745912Y-124759890D01*
X208824601Y-124600663D01*
X208888963Y-124452567D01*
X208909623Y-124397582D01*
X208978324Y-124183717D01*
X209042125Y-123949404D01*
X209097941Y-123709292D01*
X209142688Y-123478029D01*
X209173280Y-123270265D01*
X209186633Y-123100646D01*
X209186952Y-123080600D01*
X209185130Y-122985470D01*
X209177532Y-122886947D01*
X209162629Y-122778032D01*
X209138894Y-122651724D01*
X209104798Y-122501025D01*
X209058813Y-122318933D01*
X208999412Y-122098450D01*
X208925066Y-121832576D01*
X208879618Y-121672748D01*
X208830422Y-121499211D01*
X208785095Y-121337043D01*
X208746870Y-121197987D01*
X208718981Y-121093788D01*
X208705990Y-121042147D01*
X208679062Y-120937988D01*
X208644925Y-120821296D01*
X208634595Y-120788751D01*
X208590281Y-120652677D01*
X208739098Y-120456062D01*
X208864095Y-120278719D01*
X208963068Y-120106637D01*
X209048048Y-119916841D01*
X209110900Y-119745960D01*
X209148470Y-119627110D01*
X209172111Y-119521150D01*
X209184844Y-119407044D01*
X209189689Y-119263756D01*
X209190093Y-119194341D01*
X209188677Y-119043711D01*
X209182312Y-118934974D01*
X209168439Y-118851413D01*
X209144502Y-118776309D01*
X209116071Y-118710392D01*
X209055129Y-118596811D01*
X208975476Y-118472022D01*
X208916441Y-118391562D01*
X208836991Y-118301424D01*
X208752707Y-118231469D01*
X208644248Y-118167401D01*
X208552705Y-118122644D01*
X208270827Y-118006670D01*
X208008869Y-117934372D01*
X207751067Y-117902872D01*
X207481654Y-117909289D01*
X207418874Y-117915547D01*
X206971978Y-117993482D01*
X206539033Y-118126771D01*
X206465251Y-118155443D01*
X206321392Y-118207258D01*
X206162233Y-118255800D01*
X206021887Y-118290677D01*
X206020113Y-118291040D01*
X205918598Y-118310568D01*
X205840978Y-118319535D01*
X205768605Y-118316733D01*
X205682834Y-118300954D01*
X205565021Y-118270989D01*
X205518804Y-118258557D01*
X205397498Y-118227059D01*
X205234088Y-118186417D01*
X205043710Y-118140301D01*
X204841505Y-118092380D01*
X204656738Y-118049556D01*
X204286724Y-117970969D01*
X203957399Y-117915747D01*
X203655747Y-117883659D01*
X203368754Y-117874476D01*
X203083402Y-117887966D01*
X202786676Y-117923898D01*
X202465560Y-117982042D01*
X202340907Y-118008493D01*
X202066065Y-118072114D01*
X201834316Y-118134231D01*
X201630449Y-118199814D01*
X201439253Y-118273830D01*
X201245520Y-118361251D01*
X201212745Y-118377070D01*
X201106206Y-118428338D01*
X201019523Y-118465060D01*
X200942483Y-118486550D01*
X200864872Y-118492121D01*
X200776476Y-118481089D01*
X200667082Y-118452768D01*
X200526477Y-118406473D01*
X200344447Y-118341518D01*
X200267305Y-118313613D01*
X199902087Y-118188927D01*
X199577989Y-118095012D01*
X199286999Y-118030594D01*
X199021105Y-117994395D01*
X198772295Y-117985141D01*
X198532557Y-118001555D01*
X198415242Y-118018705D01*
X198174763Y-118073883D01*
X197970811Y-118149462D01*
X197946858Y-118161028D01*
X197841790Y-118217472D01*
X197772370Y-118269872D01*
X197719901Y-118336259D01*
X197668221Y-118429681D01*
X197630376Y-118507079D01*
X197605131Y-118573283D01*
X197589947Y-118643376D01*
X197582284Y-118732439D01*
X197579604Y-118855554D01*
X197579330Y-118957625D01*
X197584162Y-119149984D01*
X197601163Y-119319715D01*
X197634094Y-119481432D01*
X197686712Y-119649749D01*
X197762776Y-119839280D01*
X197861755Y-120055613D01*
X197959774Y-120245568D01*
X198052330Y-120388734D01*
X198141286Y-120490944D01*
X198276418Y-120622278D01*
X198260495Y-120876208D01*
X198247150Y-121007600D01*
X198221457Y-121152721D01*
X198180746Y-121323597D01*
X198122349Y-121532256D01*
X198093514Y-121628752D01*
X197988363Y-121981731D01*
X197901548Y-122288118D01*
X197831443Y-122556483D01*
X197776422Y-122795395D01*
X197734860Y-123013423D01*
X197705132Y-123219135D01*
X197685611Y-123421101D01*
X197674672Y-123627889D01*
X197670690Y-123848069D01*
X197670650Y-123857852D01*
X197670575Y-124044302D01*
X197672758Y-124184733D01*
X197678534Y-124291779D01*
X197689234Y-124378074D01*
X197706193Y-124456251D01*
X197730742Y-124538946D01*
X197748023Y-124591108D01*
X197820126Y-124774072D01*
X197911810Y-124960973D01*
X198013884Y-125135769D01*
X198117156Y-125282418D01*
X198192457Y-125366781D01*
X198265530Y-125455962D01*
X198297655Y-125539023D01*
X198284949Y-125604486D01*
X198276366Y-125614780D01*
X198263421Y-125653941D01*
X198252741Y-125732206D01*
X198248128Y-125801461D01*
X198235406Y-125918099D01*
X198208928Y-126057402D01*
X198178897Y-126173420D01*
X198137076Y-126297851D01*
X198072508Y-126470903D01*
X197987099Y-126687971D01*
X197882756Y-126944448D01*
X197761387Y-127235727D01*
X197624897Y-127557202D01*
X197475193Y-127904266D01*
X197314182Y-128272313D01*
X197249548Y-128418706D01*
X197178518Y-128582223D01*
X197128577Y-128707291D01*
X197095411Y-128808338D01*
X197074706Y-128899788D01*
X197062148Y-128996069D01*
X197056601Y-129063972D01*
X197052555Y-129186399D01*
X197054019Y-129349178D01*
X197060296Y-129542968D01*
X197070686Y-129758428D01*
X197084491Y-129986218D01*
X197101011Y-130216996D01*
X197119548Y-130441422D01*
X197139404Y-130650154D01*
X197159879Y-130833853D01*
X197180275Y-130983175D01*
X197199893Y-131088782D01*
X197210938Y-131127116D01*
X197248321Y-131175417D01*
X197330462Y-131235615D01*
X197461823Y-131310782D01*
X197527112Y-131344692D01*
X197669259Y-131414280D01*
X197834740Y-131490929D01*
X198010989Y-131569267D01*
X198185443Y-131643924D01*
X198345534Y-131709528D01*
X198478698Y-131760709D01*
X198572369Y-131792096D01*
X198576558Y-131793259D01*
X198662878Y-131816411D01*
X198766599Y-131843728D01*
X198790774Y-131850022D01*
X198891949Y-131892608D01*
X199010512Y-131974594D01*
X199118727Y-132067909D01*
X199379424Y-132274949D01*
X199678976Y-132457219D01*
X199999307Y-132604098D01*
X200084538Y-132635448D01*
X200344823Y-132708957D01*
X200581053Y-132735856D01*
X200805897Y-132714865D01*
X201032027Y-132644707D01*
X201272110Y-132524102D01*
X201289607Y-132513831D01*
X201488375Y-132381924D01*
X201647408Y-132246530D01*
X201760091Y-132113826D01*
X201805121Y-132032472D01*
X201857743Y-131884776D01*
X201910159Y-131696406D01*
X201958264Y-131485219D01*
X201997956Y-131269073D01*
X202023317Y-131083000D01*
X202035815Y-130957977D01*
X202042043Y-130855240D01*
X202041130Y-130759410D01*
X202032204Y-130655107D01*
X202014396Y-130526950D01*
X201986834Y-130359562D01*
X201980142Y-130320413D01*
X201918836Y-129999614D01*
X201853631Y-129732231D01*
X201782946Y-129513067D01*
X201705199Y-129336924D01*
X201654431Y-129249614D01*
X201619285Y-129197636D01*
X201583796Y-129154307D01*
X201539974Y-129114437D01*
X201479832Y-129072841D01*
X201395382Y-129024330D01*
X201278634Y-128963717D01*
X201121601Y-128885814D01*
X201010352Y-128831367D01*
X200833059Y-128743404D01*
X200662356Y-128656248D01*
X200509573Y-128575866D01*
X200386037Y-128508228D01*
X200303078Y-128459304D01*
X200297847Y-128455930D01*
X200199208Y-128395712D01*
X200120537Y-128363076D01*
X200035186Y-128349993D01*
X199940415Y-128348229D01*
X199768728Y-128365276D01*
X199559166Y-128415146D01*
X199308741Y-128498703D01*
X199021246Y-128613913D01*
X198873491Y-128669690D01*
X198749011Y-128702557D01*
X198655746Y-128711456D01*
X198601637Y-128695326D01*
X198591224Y-128671277D01*
X198617361Y-128638467D01*
X198683198Y-128613430D01*
X198691959Y-128611648D01*
X198771729Y-128589489D01*
X198879288Y-128550566D01*
X198977929Y-128509180D01*
X199256686Y-128393759D01*
X199513735Y-128307944D01*
X199740908Y-128254109D01*
X199922080Y-128234741D01*
X200026199Y-128234526D01*
X200104374Y-128242428D01*
X200175890Y-128264180D01*
X200260035Y-128305514D01*
X200367514Y-128367130D01*
X200473539Y-128426248D01*
X200618141Y-128502640D01*
X200786722Y-128588812D01*
X200964683Y-128677267D01*
X201085727Y-128735912D01*
X201268191Y-128824561D01*
X201406168Y-128895352D01*
X201508916Y-128953934D01*
X201585693Y-129005951D01*
X201645759Y-129057050D01*
X201692157Y-129105756D01*
X201780067Y-129227312D01*
X201859042Y-129384250D01*
X201930916Y-129581903D01*
X201997526Y-129825603D01*
X202060706Y-130120682D01*
X202083231Y-130241998D01*
X202115864Y-130426677D01*
X202138638Y-130567676D01*
X202152487Y-130678973D01*
X202158349Y-130774546D01*
X202157161Y-130868373D01*
X202149857Y-130974433D01*
X202139621Y-131083827D01*
X202107246Y-131334699D01*
X202061076Y-131580622D01*
X202004578Y-131807153D01*
X201941221Y-131999848D01*
X201893418Y-132109303D01*
X201796932Y-132252427D01*
X201655188Y-132398520D01*
X201479939Y-132536728D01*
X201327211Y-132632260D01*
X201060446Y-132758145D01*
X200802447Y-132829485D01*
X200543204Y-132847309D01*
X200272709Y-132812646D01*
X200080085Y-132760536D01*
X199845090Y-132668862D01*
X199594270Y-132542879D01*
X199348030Y-132394410D01*
X199126776Y-132235277D01*
X199025115Y-132149294D01*
X198914231Y-132054409D01*
X198824974Y-131993709D01*
X198740550Y-131957052D01*
X198681042Y-131941468D01*
X198579155Y-131912894D01*
X198437811Y-131864063D01*
X198270336Y-131800307D01*
X198090058Y-131726961D01*
X197910301Y-131649359D01*
X197744394Y-131572835D01*
X197675385Y-131538956D01*
X197574491Y-131490802D01*
X197490720Y-131455532D01*
X197440401Y-131439947D01*
X197437189Y-131439722D01*
X197405448Y-131468645D01*
X197381634Y-131554756D01*
X197376316Y-131589918D01*
X197358471Y-131692331D01*
X197329230Y-131808911D01*
X197286201Y-131946432D01*
X197226992Y-132111668D01*
X197149210Y-132311392D01*
X197050463Y-132552380D01*
X196963197Y-132759584D01*
X196831309Y-133070492D01*
X196719960Y-133334039D01*
X196626546Y-133556765D01*
X196548461Y-133745210D01*
X196483100Y-133905914D01*
X196427860Y-134045417D01*
X196380134Y-134170260D01*
X196337318Y-134286983D01*
X196296807Y-134402126D01*
X196255996Y-134522230D01*
X196229562Y-134601569D01*
X196082245Y-135082696D01*
X195970594Y-135534471D01*
X195892040Y-135972028D01*
X195844016Y-136410502D01*
X195823953Y-136865030D01*
X195822996Y-136997805D01*
X195725344Y-136997805D01*
X195724532Y-136803054D01*
X195736994Y-136576624D01*
X195742033Y-136520048D01*
X195764977Y-136319006D01*
X195797663Y-136087966D01*
X195837491Y-135841362D01*
X195881860Y-135593631D01*
X195928170Y-135359207D01*
X195973820Y-135152526D01*
X196016211Y-134988023D01*
X196020927Y-134971897D01*
X196089629Y-134740856D01*
X196016655Y-134608130D01*
X195856825Y-134376590D01*
X195651144Y-134174409D01*
X195407816Y-134008171D01*
X195135048Y-133884457D01*
X195099449Y-133872362D01*
X194835832Y-133813757D01*
X194548111Y-133799638D01*
X194250471Y-133830048D01*
X194074364Y-133869321D01*
X193888608Y-133923340D01*
X193740930Y-133977155D01*
X193611517Y-134040010D01*
X193480552Y-134121148D01*
X193374669Y-134195716D01*
X193149601Y-134395031D01*
X192968315Y-134632225D01*
X192834509Y-134902344D01*
X192822389Y-134935140D01*
X192788702Y-135036814D01*
X192766354Y-135128692D01*
X192753050Y-135227877D01*
X192746496Y-135351471D01*
X192744399Y-135516579D01*
X192744399Y-135516628D01*
X192604179Y-135516628D01*
X192604183Y-135516579D01*
X192629522Y-135210983D01*
X192706706Y-134906375D01*
X192830774Y-134623871D01*
X192997987Y-134369876D01*
X193204604Y-134150790D01*
X193446886Y-133973018D01*
X193544684Y-133919064D01*
X193668170Y-133867802D01*
X193832759Y-133815110D01*
X194021150Y-133765037D01*
X194216040Y-133721629D01*
X194400129Y-133688934D01*
X194556115Y-133671000D01*
X194614347Y-133668822D01*
X194904058Y-133696827D01*
X195192532Y-133777135D01*
X195468895Y-133904184D01*
X195722276Y-134072414D01*
X195941802Y-134276262D01*
X196042567Y-134399365D01*
X196116150Y-134499307D01*
X196214296Y-134223383D01*
X196251972Y-134122889D01*
X196308728Y-133978640D01*
X196380445Y-133800756D01*
X196463003Y-133599362D01*
X196552284Y-133384578D01*
X196644168Y-133166528D01*
X196648833Y-133155542D01*
X196777070Y-132852725D01*
X196883979Y-132597826D01*
X196971755Y-132385023D01*
X197042592Y-132208496D01*
X197098685Y-132062424D01*
X197142228Y-131940987D01*
X197175416Y-131838364D01*
X197200443Y-131748733D01*
X197219504Y-131666276D01*
X197229379Y-131615704D01*
X197269731Y-131395727D01*
X197169282Y-131307736D01*
X197129464Y-131271295D01*
X197100628Y-131235971D01*
X197079530Y-131190851D01*
X197062926Y-131125025D01*
X197047571Y-131027578D01*
X197030222Y-130887601D01*
X197021050Y-130809122D01*
X196994127Y-130550108D01*
X196970711Y-130270861D01*
X196951511Y-129984860D01*
X196937238Y-129705586D01*
X196928600Y-129446519D01*
X196926307Y-129221139D01*
X196929627Y-129071631D01*
X196934562Y-128970418D01*
X196941385Y-128887292D01*
X196953170Y-128811808D01*
X196972993Y-128733521D01*
X197003929Y-128641984D01*
X197049053Y-128526752D01*
X197111440Y-128377379D01*
X197184348Y-128206389D01*
X197275569Y-127993688D01*
X197376806Y-127758816D01*
X197479349Y-127521907D01*
X197574485Y-127303096D01*
X197638136Y-127157505D01*
X197768968Y-126855263D01*
X197875545Y-126599116D01*
X197959887Y-126382717D01*
X198024020Y-126199717D01*
X198069965Y-126043767D01*
X198099745Y-125908519D01*
X198115385Y-125787623D01*
X198118906Y-125674732D01*
X198118271Y-125650770D01*
X198109713Y-125541729D01*
X198087828Y-125466102D01*
X198043779Y-125398814D01*
X198019405Y-125370231D01*
X197870113Y-125167217D01*
X197737339Y-124916990D01*
X197626576Y-124629950D01*
X197623509Y-124620438D01*
X197529495Y-124327136D01*
X197543556Y-123740531D01*
X197549450Y-123547653D01*
X197558338Y-123373370D01*
X197571746Y-123210019D01*
X197591203Y-123049933D01*
X197618236Y-122885449D01*
X197654374Y-122708900D01*
X197701143Y-122512624D01*
X197760072Y-122288954D01*
X197832688Y-122030226D01*
X197920519Y-121728775D01*
X197993700Y-121482101D01*
X198056559Y-121257161D01*
X198101334Y-121066158D01*
X198126249Y-120917160D01*
X198130725Y-120860262D01*
X198131847Y-120757979D01*
X198120942Y-120690668D01*
X198088983Y-120634717D01*
X198026941Y-120566513D01*
X198012935Y-120552186D01*
X197929414Y-120447782D01*
X197836194Y-120298760D01*
X197739517Y-120116954D01*
X197645624Y-119914201D01*
X197560760Y-119702334D01*
X197552029Y-119678386D01*
X197483419Y-119440705D01*
X197441690Y-119191046D01*
X197427032Y-118942606D01*
X197439630Y-118708580D01*
X197479674Y-118502166D01*
X197533307Y-118362403D01*
X197619604Y-118238265D01*
X197742331Y-118119115D01*
X197881089Y-118024485D01*
X197892612Y-118018383D01*
X198005457Y-117974726D01*
X198161427Y-117934583D01*
X198344991Y-117900619D01*
X198540620Y-117875493D01*
X198732786Y-117861870D01*
X198815293Y-117860200D01*
X198992419Y-117864725D01*
X199168249Y-117880060D01*
X199351166Y-117908146D01*
X199549556Y-117950923D01*
X199771802Y-118010330D01*
X200026289Y-118088308D01*
X200321403Y-118186797D01*
X200508505Y-118251974D01*
X200885947Y-118384990D01*
X201080445Y-118287885D01*
X201287274Y-118190290D01*
X201487642Y-118109055D01*
X201699772Y-118037791D01*
X201941885Y-117970106D01*
X202095863Y-117931743D01*
X202396381Y-117862472D01*
X202665989Y-117808622D01*
X202913911Y-117770397D01*
X203149371Y-117748000D01*
X203381594Y-117741633D01*
X203619805Y-117751501D01*
G37*
G36*
X203795149Y-126352263D02*
G01*
X203900688Y-126402056D01*
X203976872Y-126485701D01*
X204014751Y-126601725D01*
X204017321Y-126645907D01*
X204024515Y-126700034D01*
X204052961Y-126707821D01*
X204068649Y-126702195D01*
X204127386Y-126686877D01*
X204217981Y-126672632D01*
X204266628Y-126667402D01*
X204383146Y-126666875D01*
X204484149Y-126695018D01*
X204545265Y-126724743D01*
X204685356Y-126827077D01*
X204774706Y-126953127D01*
X204811375Y-127095577D01*
X204793422Y-127247117D01*
X204722936Y-127394451D01*
X204581279Y-127572234D01*
X204403127Y-127742553D01*
X204209377Y-127885797D01*
X204180362Y-127903676D01*
X204071020Y-127965311D01*
X203992894Y-127996631D01*
X203929634Y-128001648D01*
X203864887Y-127984374D01*
X203859695Y-127982362D01*
X203829878Y-127965001D01*
X203835481Y-127940528D01*
X203881500Y-127896301D01*
X203899874Y-127880703D01*
X203986180Y-127815624D01*
X204074544Y-127759803D01*
X204086830Y-127753211D01*
X204210912Y-127673486D01*
X204345178Y-127562409D01*
X204468842Y-127438447D01*
X204541019Y-127349679D01*
X204614790Y-127215346D01*
X204631943Y-127096264D01*
X204592385Y-126992005D01*
X204496024Y-126902139D01*
X204437205Y-126867868D01*
X204314944Y-126835356D01*
X204189737Y-126855892D01*
X204072304Y-126925479D01*
X203973368Y-127040118D01*
X203972798Y-127041020D01*
X203917015Y-127120791D01*
X203875704Y-127152387D01*
X203838189Y-127140631D01*
X203812093Y-127113611D01*
X203791713Y-127068813D01*
X203795130Y-127000060D01*
X203808501Y-126939306D01*
X203834752Y-126796379D01*
X203839246Y-126672321D01*
X203822365Y-126580358D01*
X203797063Y-126541337D01*
X203727659Y-126517119D01*
X203629263Y-126522488D01*
X203521265Y-126553857D01*
X203423051Y-126607640D01*
X203417955Y-126611454D01*
X203313257Y-126723500D01*
X203236338Y-126869308D01*
X203198021Y-127026484D01*
X203195673Y-127071442D01*
X203187120Y-127200573D01*
X203164625Y-127289864D01*
X203131576Y-127334528D01*
X203091358Y-127329779D01*
X203050454Y-127276754D01*
X203017709Y-127160315D01*
X203021353Y-127016698D01*
X203057206Y-126861094D01*
X203121085Y-126708693D01*
X203208810Y-126574687D01*
X203258475Y-126521059D01*
X203391918Y-126420719D01*
X203531813Y-126360121D01*
X203669206Y-126337793D01*
X203795149Y-126352263D01*
G37*
G36*
X204509681Y-120343428D02*
G01*
X204806980Y-120354613D01*
X205065743Y-120374361D01*
X205295844Y-120403638D01*
X205507159Y-120443409D01*
X205689145Y-120488890D01*
X205842118Y-120543356D01*
X206025571Y-120627483D01*
X206224924Y-120733370D01*
X206425601Y-120853115D01*
X206613023Y-120978818D01*
X206669413Y-121020211D01*
X206944592Y-121253540D01*
X207173379Y-121501733D01*
X207355128Y-121760651D01*
X207489194Y-122026155D01*
X207574930Y-122294106D01*
X207611692Y-122560363D01*
X207598832Y-122820789D01*
X207535706Y-123071243D01*
X207421667Y-123307586D01*
X207256070Y-123525679D01*
X207085164Y-123684935D01*
X206878891Y-123834478D01*
X206692355Y-123933933D01*
X206520065Y-123986171D01*
X206503631Y-123988874D01*
X206396822Y-124007148D01*
X206260937Y-124033195D01*
X206124064Y-124061616D01*
X206114434Y-124063716D01*
X206017042Y-124082713D01*
X205919967Y-124095549D01*
X205810954Y-124102756D01*
X205677745Y-124104867D01*
X205508084Y-124102416D01*
X205337182Y-124097505D01*
X205132099Y-124088717D01*
X204916798Y-124075828D01*
X204710286Y-124060217D01*
X204531569Y-124043261D01*
X204442609Y-124032618D01*
X204237670Y-124011010D01*
X204001443Y-123995785D01*
X203749343Y-123987103D01*
X203496782Y-123985125D01*
X203259171Y-123990012D01*
X203051924Y-124001923D01*
X202917436Y-124016750D01*
X202802472Y-124034950D01*
X202647585Y-124061283D01*
X202470426Y-124092659D01*
X202288650Y-124125991D01*
X202228175Y-124137363D01*
X201855081Y-124204249D01*
X201531023Y-124253846D01*
X201249183Y-124286795D01*
X201002744Y-124303737D01*
X200784889Y-124305314D01*
X200588799Y-124292166D01*
X200585681Y-124291826D01*
X200481971Y-124272103D01*
X200346729Y-124235252D01*
X200201910Y-124188232D01*
X200069469Y-124137997D01*
X199997544Y-124105481D01*
X199834665Y-123998865D01*
X199680303Y-123853081D01*
X199552582Y-123686830D01*
X199499256Y-123591353D01*
X199407100Y-123338642D01*
X199371833Y-123084674D01*
X199393708Y-122828130D01*
X199472977Y-122567694D01*
X199609892Y-122302051D01*
X199796352Y-122040222D01*
X200071394Y-121718305D01*
X200342853Y-121443219D01*
X200621611Y-121204944D01*
X200918549Y-120993460D01*
X200966974Y-120962388D01*
X201140827Y-120870794D01*
X201370593Y-120780099D01*
X201653528Y-120691130D01*
X201986884Y-120604711D01*
X202367915Y-120521670D01*
X202550808Y-120486257D01*
X202802682Y-120440317D01*
X203014897Y-120404991D01*
X203202390Y-120378924D01*
X203380099Y-120360759D01*
X203562961Y-120349141D01*
X203765914Y-120342714D01*
X204003897Y-120340123D01*
X204163972Y-120339843D01*
X204509681Y-120343428D01*
G37*
G36*
X203619805Y-117751501D02*
G01*
X203873228Y-117777805D01*
X204151088Y-117820750D01*
X204462610Y-117880539D01*
X204817017Y-117957374D01*
X204983284Y-117995333D01*
X205246891Y-118055644D01*
X205461260Y-118102620D01*
X205634163Y-118136738D01*
X205773374Y-118158473D01*
X205886667Y-118168298D01*
X205981814Y-118166691D01*
X206066589Y-118154124D01*
X206148765Y-118131075D01*
X206236116Y-118098016D01*
X206290415Y-118075213D01*
X206646743Y-117942650D01*
X207003427Y-117847691D01*
X207351536Y-117791529D01*
X207682142Y-117775360D01*
X207986315Y-117800379D01*
X208128183Y-117829330D01*
X208400237Y-117909616D01*
X208623364Y-118002592D01*
X208806747Y-118112941D01*
X208959571Y-118245346D01*
X208974173Y-118260670D01*
X209067906Y-118371464D01*
X209156472Y-118494219D01*
X209221983Y-118603961D01*
X209226275Y-118612633D01*
X209263466Y-118695873D01*
X209288505Y-118773376D01*
X209304409Y-118861500D01*
X209314196Y-118976600D01*
X209320494Y-119123471D01*
X209323054Y-119318941D01*
X209314969Y-119473292D01*
X209295081Y-119603295D01*
X209284170Y-119649871D01*
X209230931Y-119814833D01*
X209152329Y-120005179D01*
X209058277Y-120200336D01*
X208958692Y-120379728D01*
X208863564Y-120522681D01*
X208800066Y-120610527D01*
X208768253Y-120671204D01*
X208761692Y-120722134D01*
X208771498Y-120771988D01*
X208787214Y-120828791D01*
X208815843Y-120931736D01*
X208854499Y-121070473D01*
X208900298Y-121234650D01*
X208950356Y-121413917D01*
X208957114Y-121438106D01*
X209024042Y-121678907D01*
X209088877Y-121914536D01*
X209149078Y-122135587D01*
X209202105Y-122332654D01*
X209245419Y-122496333D01*
X209276480Y-122617218D01*
X209285822Y-122655311D01*
X209306072Y-122784189D01*
X209317108Y-122948812D01*
X209318555Y-123126933D01*
X209310034Y-123296304D01*
X209298348Y-123395173D01*
X209267271Y-123563881D01*
X209224029Y-123760424D01*
X209172618Y-123969718D01*
X209117032Y-124176675D01*
X209061265Y-124366211D01*
X209009311Y-124523240D01*
X208978583Y-124602849D01*
X208922524Y-124721052D01*
X208847263Y-124861395D01*
X208766963Y-124997770D01*
X208748152Y-125027574D01*
X208599796Y-125258729D01*
X208687354Y-125584849D01*
X208755489Y-125812546D01*
X208843931Y-126067611D01*
X208949054Y-126342396D01*
X209067235Y-126629251D01*
X209194849Y-126920529D01*
X209328272Y-127208580D01*
X209463881Y-127485757D01*
X209598051Y-127744410D01*
X209727157Y-127976891D01*
X209847576Y-128175552D01*
X209955683Y-128332744D01*
X210033966Y-128426765D01*
X210128062Y-128529866D01*
X210193985Y-128618445D01*
X210239950Y-128709722D01*
X210274169Y-128820916D01*
X210304855Y-128969247D01*
X210312232Y-129010176D01*
X210328345Y-129132104D01*
X210342269Y-129298303D01*
X210353907Y-129499542D01*
X210363161Y-129726592D01*
X210369932Y-129970223D01*
X210374122Y-130221207D01*
X210375633Y-130470314D01*
X210374366Y-130708314D01*
X210370224Y-130925979D01*
X210363108Y-131114079D01*
X210352920Y-131263384D01*
X210339561Y-131364665D01*
X210337394Y-131374652D01*
X210280022Y-131565360D01*
X210205175Y-131732751D01*
X210120489Y-131860098D01*
X210110723Y-131871139D01*
X210051391Y-131935927D01*
X210160586Y-132252432D01*
X210204895Y-132372619D01*
X210268393Y-132533580D01*
X210345887Y-132722731D01*
X210432188Y-132927491D01*
X210522104Y-133135279D01*
X210563452Y-133228868D01*
X210811270Y-133813673D01*
X211016854Y-134359987D01*
X211180612Y-134869602D01*
X211302951Y-135344309D01*
X211384279Y-135785902D01*
X211425005Y-136196170D01*
X211425535Y-136576907D01*
X211394404Y-136880484D01*
X211298725Y-137318512D01*
X211147941Y-137762004D01*
X210944589Y-138205546D01*
X210691209Y-138643722D01*
X210390336Y-139071117D01*
X210334221Y-139142850D01*
X210270380Y-139224041D01*
X210179459Y-139340763D01*
X210070026Y-139481959D01*
X209950650Y-139636575D01*
X209833565Y-139788780D01*
X209475791Y-140254793D01*
X209217630Y-140348902D01*
X208998465Y-140423276D01*
X208784621Y-140483117D01*
X208561538Y-140531407D01*
X208314656Y-140571123D01*
X208029415Y-140605244D01*
X207903579Y-140617779D01*
X207727733Y-140631065D01*
X207508693Y-140642284D01*
X207260322Y-140651202D01*
X206996481Y-140657580D01*
X206731032Y-140661183D01*
X206477837Y-140661774D01*
X206250758Y-140659116D01*
X206063658Y-140652974D01*
X206011778Y-140650060D01*
X205846099Y-140637346D01*
X205672878Y-140620688D01*
X205517307Y-140602654D01*
X205440188Y-140591818D01*
X205302443Y-140564425D01*
X205190232Y-140524969D01*
X205095994Y-140465975D01*
X205012171Y-140379971D01*
X204931203Y-140259484D01*
X204845532Y-140097039D01*
X204765218Y-139924507D01*
X204736468Y-139924440D01*
X204657303Y-139927663D01*
X204535853Y-139933756D01*
X204380248Y-139942294D01*
X204198616Y-139952858D01*
X204074546Y-139960359D01*
X203828777Y-139974047D01*
X203555501Y-139986959D01*
X203275979Y-139998240D01*
X203011472Y-140007035D01*
X202783241Y-140012489D01*
X202774033Y-140012645D01*
X202161347Y-140022756D01*
X202093878Y-140155512D01*
X201977235Y-140323124D01*
X201819837Y-140449054D01*
X201648772Y-140523987D01*
X201560633Y-140541090D01*
X201422845Y-140555084D01*
X201244339Y-140565968D01*
X201034043Y-140573741D01*
X200800887Y-140578403D01*
X200553801Y-140579954D01*
X200301713Y-140578392D01*
X200053555Y-140573717D01*
X199818254Y-140565929D01*
X199604742Y-140555027D01*
X199421946Y-140541010D01*
X199280485Y-140524139D01*
X199141002Y-140504087D01*
X198960788Y-140480298D01*
X198757468Y-140454985D01*
X198548670Y-140430360D01*
X198408501Y-140414696D01*
X198177109Y-140386303D01*
X197941211Y-140351542D01*
X197710648Y-140312365D01*
X197495263Y-140270723D01*
X197304897Y-140228567D01*
X197149394Y-140187848D01*
X197038595Y-140150518D01*
X197009894Y-140137437D01*
X196907018Y-140060222D01*
X196798482Y-139935716D01*
X196692436Y-139773641D01*
X196668043Y-139729827D01*
X196615837Y-139639746D01*
X196541683Y-139520335D01*
X196457341Y-139390271D01*
X196406742Y-139314895D01*
X196260887Y-139094537D01*
X196144001Y-138901934D01*
X196046809Y-138720361D01*
X195960038Y-138533092D01*
X195918843Y-138434988D01*
X195811022Y-138171016D01*
X195521966Y-137973597D01*
X195324554Y-137846897D01*
X195096349Y-137713613D01*
X194855729Y-137583588D01*
X194621073Y-137466665D01*
X194410759Y-137372687D01*
X194367135Y-137355106D01*
X194256119Y-137314724D01*
X194110617Y-137266253D01*
X193952774Y-137216914D01*
X193853855Y-137187744D01*
X193647389Y-137123276D01*
X193483108Y-137057596D01*
X193345003Y-136982130D01*
X193217061Y-136888302D01*
X193170652Y-136846807D01*
X195847891Y-136846807D01*
X195850631Y-137245097D01*
X195879612Y-137613669D01*
X195934758Y-137945142D01*
X196015995Y-138232138D01*
X196025349Y-138257571D01*
X196075075Y-138380384D01*
X196136870Y-138519410D01*
X196204176Y-138661336D01*
X196270431Y-138792848D01*
X196329078Y-138900632D01*
X196373555Y-138971373D01*
X196382689Y-138982858D01*
X196410014Y-139006765D01*
X196442409Y-139009187D01*
X196493889Y-138986392D01*
X196578469Y-138934649D01*
X196588943Y-138927960D01*
X196944308Y-138730877D01*
X197342832Y-138567018D01*
X197785972Y-138435981D01*
X198275183Y-138337360D01*
X198811923Y-138270753D01*
X199016977Y-138254539D01*
X199341469Y-138253794D01*
X199698098Y-138291108D01*
X200077091Y-138363498D01*
X200468672Y-138467979D01*
X200863069Y-138601568D01*
X201250506Y-138761281D01*
X201621212Y-138944134D01*
X201965410Y-139147144D01*
X201987062Y-139161247D01*
X202168045Y-139286906D01*
X202333333Y-139415025D01*
X202474842Y-139538386D01*
X202584487Y-139649770D01*
X202654184Y-139741959D01*
X202668038Y-139769295D01*
X202688131Y-139812768D01*
X202713145Y-139838897D01*
X202756789Y-139852050D01*
X202832773Y-139856599D01*
X202942992Y-139856942D01*
X203053718Y-139855122D01*
X203207299Y-139850450D01*
X203388032Y-139843511D01*
X203580212Y-139834891D01*
X203709353Y-139828370D01*
X203900594Y-139817874D01*
X204091248Y-139806791D01*
X204265539Y-139796081D01*
X204407691Y-139786705D01*
X204477646Y-139781604D01*
X204595867Y-139771417D01*
X204667790Y-139760416D01*
X204705648Y-139743885D01*
X204721674Y-139717110D01*
X204726953Y-139685523D01*
X204744824Y-139628346D01*
X204792060Y-139612469D01*
X204812049Y-139613101D01*
X204868264Y-139605411D01*
X204906643Y-139563520D01*
X204929090Y-139513755D01*
X205049849Y-139283154D01*
X205222842Y-139066939D01*
X205442647Y-138868698D01*
X205703839Y-138692022D01*
X206000994Y-138540499D01*
X206328690Y-138417720D01*
X206681502Y-138327272D01*
X206738509Y-138316300D01*
X206900295Y-138293498D01*
X207106069Y-138274996D01*
X207341289Y-138261180D01*
X207591411Y-138252436D01*
X207841895Y-138249149D01*
X208078196Y-138251704D01*
X208285775Y-138260487D01*
X208417340Y-138271789D01*
X208942447Y-138354604D01*
X209430698Y-138478174D01*
X209879135Y-138641688D01*
X210052928Y-138721121D01*
X210164605Y-138775432D01*
X210256016Y-138819770D01*
X210314611Y-138848054D01*
X210328676Y-138854735D01*
X210355883Y-138836901D01*
X210405311Y-138776509D01*
X210471285Y-138682599D01*
X210548126Y-138564215D01*
X210630157Y-138430397D01*
X210711699Y-138290188D01*
X210787075Y-138152629D01*
X210850608Y-138026762D01*
X210856736Y-138013792D01*
X211010311Y-137658931D01*
X211124214Y-137329828D01*
X211201841Y-137012414D01*
X211246585Y-136692618D01*
X211261841Y-136356368D01*
X211261893Y-136334224D01*
X211241959Y-135971968D01*
X211182980Y-135571584D01*
X211086193Y-135137589D01*
X210952832Y-134674500D01*
X210784135Y-134186834D01*
X210581336Y-133679108D01*
X210459193Y-133400642D01*
X210365250Y-133189539D01*
X210272582Y-132975260D01*
X210184916Y-132766952D01*
X210105977Y-132573763D01*
X210039492Y-132404838D01*
X209989188Y-132269325D01*
X209958791Y-132176372D01*
X209955670Y-132164666D01*
X209934085Y-132101646D01*
X209914290Y-132071305D01*
X209878763Y-132074955D01*
X209803473Y-132096368D01*
X209703009Y-132131248D01*
X209675565Y-132141609D01*
X209529450Y-132192604D01*
X209364020Y-132242874D01*
X209230127Y-132277851D01*
X209111264Y-132303770D01*
X209025368Y-132315239D01*
X208948594Y-132312420D01*
X208857096Y-132295471D01*
X208794298Y-132280771D01*
X208586425Y-132230882D01*
X208332993Y-132487900D01*
X208142807Y-132676909D01*
X207985993Y-132824008D01*
X207858687Y-132932615D01*
X207757027Y-133006149D01*
X207727598Y-133023781D01*
X207649087Y-133068276D01*
X207550196Y-133124852D01*
X207503074Y-133151976D01*
X207376933Y-133211878D01*
X207210127Y-133272700D01*
X207020320Y-133329115D01*
X206825173Y-133375793D01*
X206668354Y-133403824D01*
X206424579Y-133430012D01*
X206219638Y-133429192D01*
X206038919Y-133398538D01*
X205867812Y-133335221D01*
X205691704Y-133236414D01*
X205645150Y-133205812D01*
X205538742Y-133128694D01*
X205451857Y-133049994D01*
X205369627Y-132953994D01*
X205277186Y-132824975D01*
X205257810Y-132796279D01*
X205111203Y-132550749D01*
X205008352Y-132310016D01*
X204943071Y-132055365D01*
X204909174Y-131768085D01*
X204907216Y-131735854D01*
X204901411Y-131505022D01*
X204913746Y-131296051D01*
X204947478Y-131097438D01*
X205005859Y-130897681D01*
X205092144Y-130685279D01*
X205209586Y-130448729D01*
X205335749Y-130221115D01*
X205444429Y-130040045D01*
X205572488Y-129840428D01*
X205712000Y-129633471D01*
X205855042Y-129430381D01*
X205993690Y-129242366D01*
X206120018Y-129080633D01*
X206226104Y-128956391D01*
X206242064Y-128939267D01*
X206356559Y-128832981D01*
X206481610Y-128739478D01*
X206566233Y-128689960D01*
X206634579Y-128657862D01*
X206694767Y-128635811D01*
X206759780Y-128622097D01*
X206842598Y-128615007D01*
X206956206Y-128612829D01*
X207113583Y-128613852D01*
X207140993Y-128614166D01*
X207364118Y-128619730D01*
X207583188Y-128630596D01*
X207788966Y-128645835D01*
X207972210Y-128664517D01*
X208123685Y-128685715D01*
X208234149Y-128708499D01*
X208291262Y-128729838D01*
X208338365Y-128780436D01*
X208337981Y-128818555D01*
X208323839Y-128836818D01*
X208293178Y-128848562D01*
X208238916Y-128853685D01*
X208153967Y-128852082D01*
X208031249Y-128843648D01*
X207863676Y-128828280D01*
X207671659Y-128808747D01*
X207569770Y-128801707D01*
X207521211Y-128807903D01*
X207518011Y-128822413D01*
X207558895Y-128851524D01*
X207619717Y-128872177D01*
X207701834Y-128909204D01*
X207803508Y-128982319D01*
X207911100Y-129079248D01*
X208010972Y-129187714D01*
X208088894Y-129294477D01*
X208230692Y-129578010D01*
X208333914Y-129904246D01*
X208398111Y-130271309D01*
X208422834Y-130677322D01*
X208422976Y-130691801D01*
X208423031Y-130869201D01*
X208418357Y-131008083D01*
X208406675Y-131128538D01*
X208385706Y-131250657D01*
X208353172Y-131394531D01*
X208334819Y-131469052D01*
X208295559Y-131633455D01*
X208258396Y-131801642D01*
X208227795Y-131952676D01*
X208209705Y-132055658D01*
X208187359Y-132178966D01*
X208160712Y-132293097D01*
X208135427Y-132373876D01*
X208134778Y-132375461D01*
X208110593Y-132443193D01*
X208103427Y-132483487D01*
X208104682Y-132486514D01*
X208129100Y-132473821D01*
X208177413Y-132426076D01*
X208239313Y-132355885D01*
X208304493Y-132275854D01*
X208362646Y-132198588D01*
X208403463Y-132136694D01*
X208416859Y-132104734D01*
X208426188Y-132063113D01*
X208459739Y-132042367D01*
X208525855Y-132042092D01*
X208632880Y-132061881D01*
X208742224Y-132088917D01*
X209004911Y-132157451D01*
X209246162Y-132094668D01*
X209499955Y-132020989D01*
X209702026Y-131943416D01*
X209859306Y-131857008D01*
X209978725Y-131756826D01*
X210067211Y-131637928D01*
X210131695Y-131495374D01*
X210145483Y-131453505D01*
X210175944Y-131316196D01*
X210199541Y-131130284D01*
X210216332Y-130905418D01*
X210226372Y-130651246D01*
X210229719Y-130377415D01*
X210226429Y-130093576D01*
X210216559Y-129809375D01*
X210200165Y-129534461D01*
X210177304Y-129278482D01*
X210148032Y-129051086D01*
X210130795Y-128949981D01*
X210105772Y-128833117D01*
X210076023Y-128749634D01*
X210029741Y-128676704D01*
X209955120Y-128591500D01*
X209933582Y-128568688D01*
X209813437Y-128422960D01*
X209679471Y-128225582D01*
X209534168Y-127981254D01*
X209380012Y-127694675D01*
X209219487Y-127370545D01*
X209055077Y-127013563D01*
X208889266Y-126628428D01*
X208823390Y-126468244D01*
X208738195Y-126250528D01*
X208658567Y-126032256D01*
X208587434Y-125822750D01*
X208527725Y-125631335D01*
X208482366Y-125467334D01*
X208454286Y-125340069D01*
X208446189Y-125267100D01*
X208461673Y-125208454D01*
X208502674Y-125119125D01*
X208561016Y-125016447D01*
X208574382Y-124995313D01*
X208689834Y-124805886D01*
X208785698Y-124622742D01*
X208866757Y-124433208D01*
X208937794Y-124224606D01*
X209003594Y-123984261D01*
X209068939Y-123699496D01*
X209076145Y-123665669D01*
X209126117Y-123392210D01*
X209150321Y-123154201D01*
X209148792Y-122934410D01*
X209121566Y-122715607D01*
X209078463Y-122518395D01*
X209024916Y-122311382D01*
X208966978Y-122095169D01*
X208906841Y-121877187D01*
X208846693Y-121664865D01*
X208788723Y-121465634D01*
X208735121Y-121286925D01*
X208688076Y-121136169D01*
X208649777Y-121020794D01*
X208622413Y-120948233D01*
X208609211Y-120925714D01*
X208256087Y-120821828D01*
X207906307Y-120686556D01*
X207575918Y-120527182D01*
X207280970Y-120350986D01*
X207170323Y-120272826D01*
X206976181Y-120122599D01*
X206777935Y-119959728D01*
X206585550Y-119793127D01*
X206408990Y-119631707D01*
X206258220Y-119484381D01*
X206143205Y-119360061D01*
X206123817Y-119336840D01*
X205994478Y-119168425D01*
X205862412Y-118979593D01*
X205735687Y-118783356D01*
X205622369Y-118592725D01*
X205530523Y-118420709D01*
X205468217Y-118280320D01*
X205467353Y-118277994D01*
X205439148Y-118269060D01*
X205362916Y-118249642D01*
X205247923Y-118221857D01*
X205103435Y-118187820D01*
X204938717Y-118149645D01*
X204763035Y-118109449D01*
X204585653Y-118069347D01*
X204415838Y-118031454D01*
X204262854Y-117997886D01*
X204135968Y-117970758D01*
X204044445Y-117952185D01*
X204022108Y-117948031D01*
X203878048Y-117930157D01*
X203693228Y-117918474D01*
X203485223Y-117913016D01*
X203271608Y-117913818D01*
X203069961Y-117920913D01*
X202897856Y-117934337D01*
X202814780Y-117945666D01*
X202515103Y-118002547D01*
X202214465Y-118069666D01*
X201926820Y-118143385D01*
X201666121Y-118220065D01*
X201446324Y-118296070D01*
X201398346Y-118314967D01*
X201353740Y-118353027D01*
X201303217Y-118423754D01*
X201284680Y-118457370D01*
X201208345Y-118593950D01*
X201101484Y-118764727D01*
X200971663Y-118959285D01*
X200826444Y-119167208D01*
X200673392Y-119378082D01*
X200520072Y-119581489D01*
X200374046Y-119767015D01*
X200242879Y-119924243D01*
X200134136Y-120042759D01*
X200131221Y-120045685D01*
X199942393Y-120215774D01*
X199709287Y-120395340D01*
X199443794Y-120576954D01*
X199157807Y-120753184D01*
X198863218Y-120916600D01*
X198571918Y-121059771D01*
X198368664Y-121147038D01*
X198252931Y-121193269D01*
X198085771Y-121762974D01*
X197990095Y-122093394D01*
X197911379Y-122376821D01*
X197848017Y-122621908D01*
X197798403Y-122837308D01*
X197760931Y-123031672D01*
X197733994Y-123213654D01*
X197715988Y-123391906D01*
X197705305Y-123575080D01*
X197700340Y-123771829D01*
X197699671Y-123843186D01*
X197699362Y-124031090D01*
X197701927Y-124173385D01*
X197708581Y-124283098D01*
X197720535Y-124373260D01*
X197739004Y-124456897D01*
X197765201Y-124547038D01*
X197765224Y-124547113D01*
X197842611Y-124754640D01*
X197941762Y-124959339D01*
X198053399Y-125144645D01*
X198168246Y-125293993D01*
X198204993Y-125332297D01*
X198335237Y-125458879D01*
X198298711Y-125728919D01*
X198272138Y-125887196D01*
X198235227Y-126059130D01*
X198195217Y-126211566D01*
X198188488Y-126233602D01*
X198148805Y-126349116D01*
X198090363Y-126505295D01*
X198018423Y-126689287D01*
X197938244Y-126888239D01*
X197855087Y-127089298D01*
X197774212Y-127279613D01*
X197700880Y-127446331D01*
X197640351Y-127576600D01*
X197631145Y-127595338D01*
X197587010Y-127690184D01*
X197554829Y-127770585D01*
X197543684Y-127809134D01*
X197525528Y-127868395D01*
X197490016Y-127951443D01*
X197475081Y-127981874D01*
X197440752Y-128053344D01*
X197389886Y-128164475D01*
X197328932Y-128300959D01*
X197264340Y-128448488D01*
X197254166Y-128472004D01*
X197093521Y-128843995D01*
X197091224Y-129269283D01*
X197092992Y-129488848D01*
X197100067Y-129723327D01*
X197111714Y-129964416D01*
X197127198Y-130203812D01*
X197145785Y-130433212D01*
X197166740Y-130644312D01*
X197189327Y-130828809D01*
X197212813Y-130978398D01*
X197236462Y-131084778D01*
X197256352Y-131135345D01*
X197305726Y-131180022D01*
X197401134Y-131240312D01*
X197533338Y-131312181D01*
X197693099Y-131391595D01*
X197871180Y-131474520D01*
X198058341Y-131556920D01*
X198245344Y-131634763D01*
X198422952Y-131704014D01*
X198581926Y-131760639D01*
X198713027Y-131800603D01*
X198807017Y-131819873D01*
X198826546Y-131821016D01*
X198870262Y-131792159D01*
X198908733Y-131707274D01*
X198912060Y-131696362D01*
X198972379Y-131517119D01*
X199055710Y-131304394D01*
X199155331Y-131072649D01*
X199264520Y-130836350D01*
X199376558Y-130609958D01*
X199484722Y-130407939D01*
X199582292Y-130244755D01*
X199596939Y-130222517D01*
X199813685Y-129918586D01*
X200045259Y-129629247D01*
X200282686Y-129364500D01*
X200516992Y-129134345D01*
X200739203Y-128948784D01*
X200741612Y-128946979D01*
X200912209Y-128819341D01*
X200609626Y-128659575D01*
X200473878Y-128587690D01*
X200342863Y-128517947D01*
X200233615Y-128459434D01*
X200175057Y-128427755D01*
X200085174Y-128385089D01*
X200005165Y-128367940D01*
X199904962Y-128370880D01*
X199876216Y-128373792D01*
X199728315Y-128400616D01*
X199542602Y-128451198D01*
X199332747Y-128521180D01*
X199112420Y-128606202D01*
X199007756Y-128650724D01*
X198861256Y-128705634D01*
X198737322Y-128733825D01*
X198643767Y-128734880D01*
X198588406Y-128708381D01*
X198576558Y-128673746D01*
X198594939Y-128636390D01*
X198655260Y-128597798D01*
X198765288Y-128553025D01*
X198767205Y-128552336D01*
X198875630Y-128512663D01*
X199017803Y-128459633D01*
X199172781Y-128401095D01*
X199280485Y-128359964D01*
X199532441Y-128272276D01*
X199746577Y-128219529D01*
X199932119Y-128201622D01*
X200098289Y-128218456D01*
X200254313Y-128269928D01*
X200396777Y-128347761D01*
X200530910Y-128425884D01*
X200718004Y-128522739D01*
X200955822Y-128637215D01*
X201242123Y-128768200D01*
X201256324Y-128774560D01*
X201456960Y-128879551D01*
X201625339Y-128998326D01*
X201750184Y-129122529D01*
X201778928Y-129161799D01*
X201859544Y-129312564D01*
X201937622Y-129515155D01*
X202011083Y-129762739D01*
X202077844Y-130048484D01*
X202124269Y-130295471D01*
X202153832Y-130474280D01*
X202173537Y-130611314D01*
X202184288Y-130722466D01*
X202186985Y-130823627D01*
X202182530Y-130930687D01*
X202171825Y-131059540D01*
X202169198Y-131087388D01*
X202135855Y-131344350D01*
X202086301Y-131602811D01*
X202024793Y-131844269D01*
X201955588Y-132050225D01*
X201937648Y-132093847D01*
X201844696Y-132247129D01*
X201700402Y-132400840D01*
X201511665Y-132548411D01*
X201362740Y-132641173D01*
X201176245Y-132741049D01*
X201018072Y-132809241D01*
X200870936Y-132850958D01*
X200717553Y-132871410D01*
X200583850Y-132875947D01*
X200425432Y-132871072D01*
X200289040Y-132851574D01*
X200143012Y-132812202D01*
X200085236Y-132793252D01*
X199763733Y-132664820D01*
X199462273Y-132505872D01*
X199194448Y-132324333D01*
X199014061Y-132168672D01*
X198908839Y-132076438D01*
X198810530Y-132018103D01*
X198693809Y-131978615D01*
X198552117Y-131935554D01*
X198373353Y-131872057D01*
X198172797Y-131794153D01*
X197965727Y-131707873D01*
X197767420Y-131619251D01*
X197687343Y-131581293D01*
X197580351Y-131530902D01*
X197495518Y-131493573D01*
X197444857Y-131474460D01*
X197435973Y-131473472D01*
X197426865Y-131504991D01*
X197409352Y-131579418D01*
X197386821Y-131682195D01*
X197380987Y-131709730D01*
X197364313Y-131783161D01*
X197343913Y-131859617D01*
X197317641Y-131944648D01*
X197283352Y-132043808D01*
X197238902Y-132162647D01*
X197182144Y-132306717D01*
X197110935Y-132481571D01*
X197023127Y-132692759D01*
X196916578Y-132945833D01*
X196789141Y-133246346D01*
X196768345Y-133295259D01*
X196591810Y-133723295D01*
X196431711Y-134137552D01*
X196290521Y-134530800D01*
X196170713Y-134895810D01*
X196074762Y-135225349D01*
X196005141Y-135512189D01*
X195997859Y-135547417D01*
X195921430Y-135990587D01*
X195871465Y-136426177D01*
X195847891Y-136846807D01*
X193170652Y-136846807D01*
X193101011Y-136784540D01*
X192918652Y-136571807D01*
X192774339Y-136320669D01*
X192671682Y-136040211D01*
X192614292Y-135739520D01*
X192602963Y-135531293D01*
X192603166Y-135528848D01*
X192727488Y-135528848D01*
X192732881Y-135566890D01*
X192742893Y-135567344D01*
X192749895Y-135528089D01*
X192745209Y-135511128D01*
X192732185Y-135500018D01*
X192727488Y-135528848D01*
X192603166Y-135528848D01*
X192629522Y-135210983D01*
X192706706Y-134906375D01*
X192830774Y-134623871D01*
X192997987Y-134369876D01*
X193204604Y-134150790D01*
X193446886Y-133973018D01*
X193544684Y-133919064D01*
X193668170Y-133867802D01*
X193832759Y-133815110D01*
X194021150Y-133765037D01*
X194216040Y-133721629D01*
X194400129Y-133688934D01*
X194556115Y-133671000D01*
X194614347Y-133668822D01*
X194904058Y-133696827D01*
X195192532Y-133777135D01*
X195468895Y-133904184D01*
X195722276Y-134072414D01*
X195941802Y-134276262D01*
X196042567Y-134399365D01*
X196116150Y-134499307D01*
X196214296Y-134223383D01*
X196251972Y-134122889D01*
X196308728Y-133978640D01*
X196380445Y-133800756D01*
X196463003Y-133599362D01*
X196552284Y-133384578D01*
X196644168Y-133166528D01*
X196648833Y-133155542D01*
X196777070Y-132852725D01*
X196883979Y-132597826D01*
X196971755Y-132385023D01*
X197042592Y-132208496D01*
X197098685Y-132062424D01*
X197142228Y-131940987D01*
X197175416Y-131838364D01*
X197200443Y-131748733D01*
X197219504Y-131666276D01*
X197229379Y-131615704D01*
X197269731Y-131395727D01*
X197169282Y-131307736D01*
X197129464Y-131271295D01*
X197100628Y-131235971D01*
X197079530Y-131190851D01*
X197062926Y-131125025D01*
X197047571Y-131027578D01*
X197030222Y-130887601D01*
X197021050Y-130809122D01*
X196994127Y-130550108D01*
X196970711Y-130270861D01*
X196951511Y-129984860D01*
X196937238Y-129705586D01*
X196928600Y-129446519D01*
X196926307Y-129221139D01*
X196929627Y-129071631D01*
X196934562Y-128970418D01*
X196941385Y-128887292D01*
X196953170Y-128811808D01*
X196972993Y-128733521D01*
X197003929Y-128641984D01*
X197049053Y-128526752D01*
X197111440Y-128377379D01*
X197184348Y-128206389D01*
X197275569Y-127993688D01*
X197376806Y-127758816D01*
X197479349Y-127521907D01*
X197574485Y-127303096D01*
X197638136Y-127157505D01*
X197768968Y-126855263D01*
X197875545Y-126599116D01*
X197959887Y-126382717D01*
X198024020Y-126199717D01*
X198069965Y-126043767D01*
X198099745Y-125908519D01*
X198115385Y-125787623D01*
X198118906Y-125674732D01*
X198118271Y-125650770D01*
X198109713Y-125541729D01*
X198087828Y-125466102D01*
X198043779Y-125398814D01*
X198019405Y-125370231D01*
X197870113Y-125167217D01*
X197737339Y-124916990D01*
X197626576Y-124629950D01*
X197623509Y-124620438D01*
X197529495Y-124327136D01*
X197543556Y-123740531D01*
X197549450Y-123547653D01*
X197558338Y-123373370D01*
X197571746Y-123210019D01*
X197591203Y-123049933D01*
X197618236Y-122885449D01*
X197654374Y-122708900D01*
X197701143Y-122512624D01*
X197760072Y-122288954D01*
X197832688Y-122030226D01*
X197920519Y-121728775D01*
X197993700Y-121482101D01*
X198056559Y-121257161D01*
X198101334Y-121066158D01*
X198126249Y-120917160D01*
X198130725Y-120860262D01*
X198131847Y-120757979D01*
X198120942Y-120690668D01*
X198088983Y-120634717D01*
X198026941Y-120566513D01*
X198012935Y-120552186D01*
X197929414Y-120447782D01*
X197836194Y-120298760D01*
X197739517Y-120116954D01*
X197645624Y-119914201D01*
X197560760Y-119702334D01*
X197552029Y-119678386D01*
X197483419Y-119440705D01*
X197441690Y-119191046D01*
X197427032Y-118942606D01*
X197439630Y-118708580D01*
X197479674Y-118502166D01*
X197533307Y-118362403D01*
X197619604Y-118238265D01*
X197742331Y-118119115D01*
X197881089Y-118024485D01*
X197892612Y-118018383D01*
X198005457Y-117974726D01*
X198161427Y-117934583D01*
X198344991Y-117900619D01*
X198540620Y-117875493D01*
X198732786Y-117861870D01*
X198815293Y-117860200D01*
X198992419Y-117864725D01*
X199168249Y-117880060D01*
X199351166Y-117908146D01*
X199549556Y-117950923D01*
X199771802Y-118010330D01*
X200026289Y-118088308D01*
X200321403Y-118186797D01*
X200508505Y-118251974D01*
X200885947Y-118384990D01*
X201080445Y-118287885D01*
X201287274Y-118190290D01*
X201487642Y-118109055D01*
X201699772Y-118037791D01*
X201941885Y-117970106D01*
X202095863Y-117931743D01*
X202396381Y-117862472D01*
X202665989Y-117808622D01*
X202913911Y-117770397D01*
X203149371Y-117748000D01*
X203381594Y-117741633D01*
X203619805Y-117751501D01*
G37*
%TD*%
D11*
%TO.C,J1*%
X161340000Y-115000000D03*
X163880000Y-115000000D03*
X166420000Y-115000000D03*
X168960000Y-115000000D03*
X171500000Y-115000000D03*
X174040000Y-115000000D03*
X176580000Y-115000000D03*
D12*
X179120000Y-115000000D03*
%TD*%
D13*
%TO.C,U1*%
X162662500Y-92062500D03*
X163162500Y-92062500D03*
X163662500Y-92062500D03*
X164162500Y-92062500D03*
D14*
X164325000Y-91400000D03*
X164325000Y-90900000D03*
X164325000Y-90400000D03*
D13*
X164162500Y-89737500D03*
X163662500Y-89737500D03*
X163162500Y-89737500D03*
X162662500Y-89737500D03*
D14*
X162500000Y-90400000D03*
X162500000Y-90900000D03*
X162500000Y-91400000D03*
%TD*%
D15*
%TO.C,C2*%
X165800000Y-91400000D03*
X166760000Y-91400000D03*
%TD*%
%TO.C,C1*%
X165900000Y-88900000D03*
X166860000Y-88900000D03*
%TD*%
D16*
%TO.C,U2*%
X135025000Y-60100000D03*
D17*
X135325000Y-63130000D03*
X140175000Y-63130000D03*
D16*
X140475000Y-60100000D03*
D18*
X128060000Y-59970000D03*
D19*
X128860000Y-59970000D03*
D20*
X128060000Y-62510000D03*
D21*
X128860000Y-62510000D03*
D22*
X128060000Y-65050000D03*
D23*
X128860000Y-65050000D03*
D20*
X128060000Y-67590000D03*
D21*
X128860000Y-67590000D03*
D20*
X128060000Y-70130000D03*
D21*
X128860000Y-70130000D03*
D20*
X128060000Y-72670000D03*
D21*
X128860000Y-72670000D03*
D20*
X128060000Y-75210000D03*
D21*
X128860000Y-75210000D03*
D22*
X128060000Y-77750000D03*
D23*
X128860000Y-77750000D03*
D20*
X128060000Y-80290000D03*
D21*
X128860000Y-80290000D03*
D20*
X128060000Y-82830000D03*
D21*
X128860000Y-82830000D03*
D20*
X128060000Y-85370000D03*
D21*
X128860000Y-85370000D03*
D20*
X128060000Y-87910000D03*
D21*
X128860000Y-87910000D03*
D22*
X128060000Y-90450000D03*
D23*
X128860000Y-90450000D03*
D20*
X128060000Y-92990000D03*
D21*
X128860000Y-92990000D03*
D20*
X128060000Y-95530000D03*
D21*
X128860000Y-95530000D03*
D20*
X128060000Y-98070000D03*
D21*
X128860000Y-98070000D03*
D20*
X128060000Y-100610000D03*
D21*
X128860000Y-100610000D03*
D22*
X128060000Y-103150000D03*
D23*
X128860000Y-103150000D03*
D20*
X128060000Y-105690000D03*
D21*
X128860000Y-105690000D03*
D20*
X128060000Y-108230000D03*
D21*
X128860000Y-108230000D03*
X146640000Y-108230000D03*
D20*
X147440000Y-108230000D03*
D21*
X146640000Y-105690000D03*
D20*
X147440000Y-105690000D03*
D24*
X146640000Y-103150000D03*
D18*
X147440000Y-103150000D03*
D21*
X146640000Y-100610000D03*
D20*
X147440000Y-100610000D03*
D21*
X146640000Y-98070000D03*
D20*
X147440000Y-98070000D03*
D21*
X146640000Y-95530000D03*
D20*
X147440000Y-95530000D03*
D21*
X146640000Y-92990000D03*
D20*
X147440000Y-92990000D03*
D24*
X146640000Y-90450000D03*
D18*
X147440000Y-90450000D03*
D21*
X146640000Y-87910000D03*
D20*
X147440000Y-87910000D03*
D21*
X146640000Y-85370000D03*
D20*
X147440000Y-85370000D03*
D21*
X146640000Y-82830000D03*
D20*
X147440000Y-82830000D03*
D21*
X146640000Y-80290000D03*
D20*
X147440000Y-80290000D03*
D24*
X146640000Y-77750000D03*
D18*
X147440000Y-77750000D03*
D21*
X146640000Y-75210000D03*
D20*
X147440000Y-75210000D03*
D21*
X146640000Y-72670000D03*
D20*
X147440000Y-72670000D03*
D21*
X146640000Y-70130000D03*
D20*
X147440000Y-70130000D03*
D21*
X146640000Y-67590000D03*
D20*
X147440000Y-67590000D03*
D24*
X146640000Y-65050000D03*
D18*
X147440000Y-65050000D03*
D21*
X146640000Y-62510000D03*
D20*
X147440000Y-62510000D03*
D21*
X146640000Y-59970000D03*
D20*
X147440000Y-59970000D03*
%TD*%
D25*
%TO.C,SW11*%
X150500000Y-131250000D03*
X159500000Y-131250000D03*
D26*
X152500000Y-137500000D03*
X152500000Y-125000000D03*
X157500000Y-137500000D03*
X157500000Y-125000000D03*
%TD*%
D25*
%TO.C,SW4*%
X215250000Y-105750000D03*
X215250000Y-114750000D03*
D27*
X209000000Y-107750000D03*
X221500000Y-107750000D03*
X209000000Y-112750000D03*
X221500000Y-112750000D03*
%TD*%
D28*
%TO.C,S2*%
X144675000Y-113500000D03*
X148825000Y-113500000D03*
%TD*%
D29*
%TO.C,R1*%
X154750000Y-76390000D03*
X154750000Y-75750000D03*
%TD*%
D25*
%TO.C,SW3*%
X231000000Y-90750000D03*
X231000000Y-99750000D03*
D27*
X224750000Y-92750000D03*
X237250000Y-92750000D03*
X224750000Y-97750000D03*
X237250000Y-97750000D03*
%TD*%
D28*
%TO.C,S1*%
X138425000Y-113500000D03*
X142575000Y-113500000D03*
%TD*%
D25*
%TO.C,SW2*%
X199500000Y-90750000D03*
X199500000Y-99750000D03*
D27*
X193250000Y-92750000D03*
X205750000Y-92750000D03*
X193250000Y-97750000D03*
X205750000Y-97750000D03*
%TD*%
D25*
%TO.C,SW13*%
X180500000Y-131250000D03*
X189500000Y-131250000D03*
D26*
X182500000Y-137500000D03*
X182500000Y-125000000D03*
X187500000Y-137500000D03*
X187500000Y-125000000D03*
%TD*%
D25*
%TO.C,SW8*%
X92250000Y-105750000D03*
X92250000Y-114750000D03*
D27*
X86000000Y-107750000D03*
X98500000Y-107750000D03*
X86000000Y-112750000D03*
X98500000Y-112750000D03*
%TD*%
D25*
%TO.C,SW9*%
X120250000Y-131250000D03*
X129250000Y-131250000D03*
D26*
X122250000Y-137500000D03*
X122250000Y-125000000D03*
X127250000Y-137500000D03*
X127250000Y-125000000D03*
%TD*%
D30*
%TO.C,R3*%
X152000000Y-95325000D03*
X152000000Y-93675000D03*
%TD*%
D31*
%TO.C,R2*%
X153500000Y-92675000D03*
X153500000Y-94325000D03*
%TD*%
D25*
%TO.C,SW12*%
X165500000Y-131250000D03*
X174500000Y-131250000D03*
D26*
X167500000Y-137500000D03*
X167500000Y-125000000D03*
X172500000Y-137500000D03*
X172500000Y-125000000D03*
%TD*%
D32*
%TO.C,D1*%
X152500000Y-76500000D03*
X152500000Y-74925000D03*
%TD*%
D25*
%TO.C,SW10*%
X135500000Y-131250000D03*
X144500000Y-131250000D03*
D26*
X137500000Y-137500000D03*
X137500000Y-125000000D03*
X142500000Y-137500000D03*
X142500000Y-125000000D03*
%TD*%
D25*
%TO.C,SW5*%
X92250000Y-75750000D03*
X92250000Y-84750000D03*
D27*
X86000000Y-77750000D03*
X98500000Y-77750000D03*
X86000000Y-82750000D03*
X98500000Y-82750000D03*
%TD*%
D25*
%TO.C,SW7*%
X108000000Y-90750000D03*
X108000000Y-99750000D03*
D27*
X101750000Y-92750000D03*
X114250000Y-92750000D03*
X101750000Y-97750000D03*
X114250000Y-97750000D03*
%TD*%
D25*
%TO.C,SW1*%
X215250000Y-75750000D03*
X215250000Y-84750000D03*
D27*
X209000000Y-77750000D03*
X221500000Y-77750000D03*
X209000000Y-82750000D03*
X221500000Y-82750000D03*
%TD*%
D25*
%TO.C,SW6*%
X76500000Y-90750000D03*
X76500000Y-99750000D03*
D27*
X70250000Y-92750000D03*
X82750000Y-92750000D03*
X70250000Y-97750000D03*
X82750000Y-97750000D03*
%TD*%
M02*
