%TF.GenerationSoftware,KiCad,Pcbnew,10.0.0*%
%TF.CreationDate,2026-04-10T23:38:53+01:00*%
%TF.ProjectId,design,64657369-676e-42e6-9b69-6361645f7063,rev?*%
%TF.SameCoordinates,Original*%
%TF.FileFunction,Soldermask,Top*%
%TF.FilePolarity,Negative*%
%FSLAX46Y46*%
G04 Gerber Fmt 4.6, Leading zero omitted, Abs format (unit mm)*
G04 Created by KiCad (PCBNEW 10.0.0) date 2026-04-10 23:38:53*
%MOMM*%
%LPD*%
G01*
G04 APERTURE LIST*
G04 Aperture macros list*
%AMRoundRect*
0 Rectangle with rounded corners*
0 $1 Rounding radius*
0 $2 $3 $4 $5 $6 $7 $8 $9 X,Y pos of 4 corners*
0 Add a 4 corners polygon primitive as box body*
4,1,4,$2,$3,$4,$5,$6,$7,$8,$9,$2,$3,0*
0 Add four circle primitives for the rounded corners*
1,1,$1+$1,$2,$3*
1,1,$1+$1,$4,$5*
1,1,$1+$1,$6,$7*
1,1,$1+$1,$8,$9*
0 Add four rect primitives between the rounded corners*
20,1,$1+$1,$2,$3,$4,$5,0*
20,1,$1+$1,$4,$5,$6,$7,0*
20,1,$1+$1,$6,$7,$8,$9,0*
20,1,$1+$1,$8,$9,$2,$3,0*%
%AMFreePoly0*
4,1,37,0.800000,0.796148,0.878414,0.796148,1.032228,0.765552,1.177117,0.705537,1.307515,0.618408,1.418408,0.507515,1.505537,0.377117,1.565552,0.232228,1.596148,0.078414,1.596148,-0.078414,1.565552,-0.232228,1.505537,-0.377117,1.418408,-0.507515,1.307515,-0.618408,1.177117,-0.705537,1.032228,-0.765552,0.878414,-0.796148,0.800000,-0.796148,0.800000,-0.800000,-1.400000,-0.800000,
-1.403843,-0.796157,-1.439018,-0.796157,-1.511114,-0.766294,-1.566294,-0.711114,-1.596157,-0.639018,-1.596157,-0.603843,-1.600000,-0.600000,-1.600000,0.600000,-1.596157,0.603843,-1.596157,0.639018,-1.566294,0.711114,-1.511114,0.766294,-1.439018,0.796157,-1.403843,0.796157,-1.400000,0.800000,0.800000,0.800000,0.800000,0.796148,0.800000,0.796148,$1*%
%AMFreePoly1*
4,1,37,1.403843,0.796157,1.439018,0.796157,1.511114,0.766294,1.566294,0.711114,1.596157,0.639018,1.596157,0.603843,1.600000,0.600000,1.600000,-0.600000,1.596157,-0.603843,1.596157,-0.639018,1.566294,-0.711114,1.511114,-0.766294,1.439018,-0.796157,1.403843,-0.796157,1.400000,-0.800000,-0.800000,-0.800000,-0.800000,-0.796148,-0.878414,-0.796148,-1.032228,-0.765552,-1.177117,-0.705537,
-1.307515,-0.618408,-1.418408,-0.507515,-1.505537,-0.377117,-1.565552,-0.232228,-1.596148,-0.078414,-1.596148,0.078414,-1.565552,0.232228,-1.505537,0.377117,-1.418408,0.507515,-1.307515,0.618408,-1.177117,0.705537,-1.032228,0.765552,-0.878414,0.796148,-0.800000,0.796148,-0.800000,0.800000,1.400000,0.800000,1.403843,0.796157,1.403843,0.796157,$1*%
%AMFreePoly2*
4,1,37,0.603843,0.796157,0.639018,0.796157,0.711114,0.766294,0.766294,0.711114,0.796157,0.639018,0.796157,0.603843,0.800000,0.600000,0.800000,-0.600000,0.796157,-0.603843,0.796157,-0.639018,0.766294,-0.711114,0.711114,-0.766294,0.639018,-0.796157,0.603843,-0.796157,0.600000,-0.800000,0.000000,-0.800000,0.000000,-0.796148,-0.078414,-0.796148,-0.232228,-0.765552,-0.377117,-0.705537,
-0.507515,-0.618408,-0.618408,-0.507515,-0.705537,-0.377117,-0.765552,-0.232228,-0.796148,-0.078414,-0.796148,0.078414,-0.765552,0.232228,-0.705537,0.377117,-0.618408,0.507515,-0.507515,0.618408,-0.377117,0.705537,-0.232228,0.765552,-0.078414,0.796148,0.000000,0.796148,0.000000,0.800000,0.600000,0.800000,0.603843,0.796157,0.603843,0.796157,$1*%
%AMFreePoly3*
4,1,37,0.000000,0.796148,0.078414,0.796148,0.232228,0.765552,0.377117,0.705537,0.507515,0.618408,0.618408,0.507515,0.705537,0.377117,0.765552,0.232228,0.796148,0.078414,0.796148,-0.078414,0.765552,-0.232228,0.705537,-0.377117,0.618408,-0.507515,0.507515,-0.618408,0.377117,-0.705537,0.232228,-0.765552,0.078414,-0.796148,0.000000,-0.796148,0.000000,-0.800000,-0.600000,-0.800000,
-0.603843,-0.796157,-0.639018,-0.796157,-0.711114,-0.766294,-0.766294,-0.711114,-0.796157,-0.639018,-0.796157,-0.603843,-0.800000,-0.600000,-0.800000,0.600000,-0.796157,0.603843,-0.796157,0.639018,-0.766294,0.711114,-0.711114,0.766294,-0.639018,0.796157,-0.603843,0.796157,-0.600000,0.800000,0.000000,0.800000,0.000000,0.796148,0.000000,0.796148,$1*%
G04 Aperture macros list end*
%ADD10C,2.200000*%
%ADD11C,1.850000*%
%ADD12FreePoly0,0.000000*%
%ADD13RoundRect,0.200000X-0.600000X-0.600000X0.600000X-0.600000X0.600000X0.600000X-0.600000X0.600000X0*%
%ADD14RoundRect,0.800000X-0.800000X-0.000010X0.800000X-0.000010X0.800000X0.000010X-0.800000X0.000010X0*%
%ADD15C,1.600000*%
%ADD16FreePoly1,0.000000*%
%ADD17FreePoly2,0.000000*%
%ADD18FreePoly3,0.000000*%
%ADD19C,1.800000*%
%ADD20O,1.700000X2.900000*%
%ADD21O,2.900000X1.700000*%
%ADD22RoundRect,0.287778X0.714222X-0.489222X0.714222X0.489222X-0.714222X0.489222X-0.714222X-0.489222X0*%
%ADD23RoundRect,0.100000X0.100000X-0.130000X0.100000X0.130000X-0.100000X0.130000X-0.100000X-0.130000X0*%
%ADD24RoundRect,0.287778X-0.489222X-0.714222X0.489222X-0.714222X0.489222X0.714222X-0.489222X0.714222X0*%
%ADD25C,3.200000*%
%ADD26R,1.700000X1.700000*%
%ADD27C,1.700000*%
%ADD28RoundRect,0.218750X0.256250X-0.218750X0.256250X0.218750X-0.256250X0.218750X-0.256250X-0.218750X0*%
G04 APERTURE END LIST*
D10*
%TO.C,A1*%
X134990000Y-66650000D03*
D11*
X135290000Y-69680000D03*
X140140000Y-69680000D03*
D10*
X140440000Y-66650000D03*
D12*
X128025000Y-66520000D03*
D13*
X128825000Y-66520000D03*
D14*
X128025000Y-69060000D03*
D15*
X128825000Y-69060000D03*
D16*
X128025000Y-71600000D03*
D17*
X128825000Y-71600000D03*
D14*
X128025000Y-74140000D03*
D15*
X128825000Y-74140000D03*
D14*
X128025000Y-76680000D03*
D15*
X128825000Y-76680000D03*
D14*
X128025000Y-79220000D03*
D15*
X128825000Y-79220000D03*
D14*
X128025000Y-81760000D03*
D15*
X128825000Y-81760000D03*
D16*
X128025000Y-84300000D03*
D17*
X128825000Y-84300000D03*
D14*
X128025000Y-86840000D03*
D15*
X128825000Y-86840000D03*
D14*
X128025000Y-89380000D03*
D15*
X128825000Y-89380000D03*
D14*
X128025000Y-91920000D03*
D15*
X128825000Y-91920000D03*
D14*
X128025000Y-94460000D03*
D15*
X128825000Y-94460000D03*
D16*
X128025000Y-97000000D03*
D17*
X128825000Y-97000000D03*
D14*
X128025000Y-99540000D03*
D15*
X128825000Y-99540000D03*
D14*
X128025000Y-102080000D03*
D15*
X128825000Y-102080000D03*
D14*
X128025000Y-104620000D03*
D15*
X128825000Y-104620000D03*
D14*
X128025000Y-107160000D03*
D15*
X128825000Y-107160000D03*
D16*
X128025000Y-109700000D03*
D17*
X128825000Y-109700000D03*
D14*
X128025000Y-112240000D03*
D15*
X128825000Y-112240000D03*
D14*
X128025000Y-114780000D03*
D15*
X128825000Y-114780000D03*
X146605000Y-114780000D03*
D14*
X147405000Y-114780000D03*
D15*
X146605000Y-112240000D03*
D14*
X147405000Y-112240000D03*
D18*
X146605000Y-109700000D03*
D12*
X147405000Y-109700000D03*
D15*
X146605000Y-107160000D03*
D14*
X147405000Y-107160000D03*
D15*
X146605000Y-104620000D03*
D14*
X147405000Y-104620000D03*
D15*
X146605000Y-102080000D03*
D14*
X147405000Y-102080000D03*
D15*
X146605000Y-99540000D03*
D14*
X147405000Y-99540000D03*
D18*
X146605000Y-97000000D03*
D12*
X147405000Y-97000000D03*
D15*
X146605000Y-94460000D03*
D14*
X147405000Y-94460000D03*
D15*
X146605000Y-91920000D03*
D14*
X147405000Y-91920000D03*
D15*
X146605000Y-89380000D03*
D14*
X147405000Y-89380000D03*
D15*
X146605000Y-86840000D03*
D14*
X147405000Y-86840000D03*
D18*
X146605000Y-84300000D03*
D12*
X147405000Y-84300000D03*
D15*
X146605000Y-81760000D03*
D14*
X147405000Y-81760000D03*
D15*
X146605000Y-79220000D03*
D14*
X147405000Y-79220000D03*
D15*
X146605000Y-76680000D03*
D14*
X147405000Y-76680000D03*
D15*
X146605000Y-74140000D03*
D14*
X147405000Y-74140000D03*
D18*
X146605000Y-71600000D03*
D12*
X147405000Y-71600000D03*
D15*
X146605000Y-69060000D03*
D14*
X147405000Y-69060000D03*
D15*
X146605000Y-66520000D03*
D14*
X147405000Y-66520000D03*
%TD*%
D19*
%TO.C,SW10*%
X135450000Y-131250000D03*
X144450000Y-131250000D03*
D20*
X137450000Y-137500000D03*
X137450000Y-125000000D03*
X142450000Y-137500000D03*
X142450000Y-125000000D03*
%TD*%
D19*
%TO.C,SW11*%
X150500000Y-131250000D03*
X159500000Y-131250000D03*
D20*
X152500000Y-137500000D03*
X152500000Y-125000000D03*
X157500000Y-137500000D03*
X157500000Y-125000000D03*
%TD*%
D19*
%TO.C,SW4*%
X215250000Y-105750000D03*
X215250000Y-114750000D03*
D21*
X209000000Y-107750000D03*
X221500000Y-107750000D03*
X209000000Y-112750000D03*
X221500000Y-112750000D03*
%TD*%
D22*
%TO.C,S2*%
X120250000Y-97075000D03*
X120250000Y-92925000D03*
%TD*%
D23*
%TO.C,R1*%
X155000000Y-75820000D03*
X155000000Y-75180000D03*
%TD*%
D19*
%TO.C,SW3*%
X231000000Y-90750000D03*
X231000000Y-99750000D03*
D21*
X224750000Y-92750000D03*
X237250000Y-92750000D03*
X224750000Y-97750000D03*
X237250000Y-97750000D03*
%TD*%
D24*
%TO.C,S1*%
X146350000Y-61500000D03*
X150500000Y-61500000D03*
%TD*%
D25*
%TO.C,REF\u002A\u002A*%
X233500000Y-67500000D03*
%TD*%
%TO.C,REF\u002A\u002A*%
X233500000Y-132500000D03*
%TD*%
D19*
%TO.C,SW2*%
X199500000Y-90750000D03*
X199500000Y-99750000D03*
D21*
X193250000Y-92750000D03*
X205750000Y-92750000D03*
X193250000Y-97750000D03*
X205750000Y-97750000D03*
%TD*%
D19*
%TO.C,SW13*%
X180500000Y-131250000D03*
X189500000Y-131250000D03*
D20*
X182500000Y-137500000D03*
X182500000Y-125000000D03*
X187500000Y-137500000D03*
X187500000Y-125000000D03*
%TD*%
D19*
%TO.C,SW8*%
X92250000Y-105750000D03*
X92250000Y-114750000D03*
D21*
X86000000Y-107750000D03*
X98500000Y-107750000D03*
X86000000Y-112750000D03*
X98500000Y-112750000D03*
%TD*%
D19*
%TO.C,SW9*%
X120450000Y-131250000D03*
X129450000Y-131250000D03*
D20*
X122450000Y-137500000D03*
X122450000Y-125000000D03*
X127450000Y-137500000D03*
X127450000Y-125000000D03*
%TD*%
D26*
%TO.C,J2*%
X180500000Y-62000000D03*
D27*
X177960000Y-62000000D03*
X175420000Y-62000000D03*
X172880000Y-62000000D03*
X170340000Y-62000000D03*
X167800000Y-62000000D03*
X165260000Y-62000000D03*
X162720000Y-62000000D03*
%TD*%
D19*
%TO.C,SW12*%
X165500000Y-131250000D03*
X174500000Y-131250000D03*
D20*
X167500000Y-137500000D03*
X167500000Y-125000000D03*
X172500000Y-137500000D03*
X172500000Y-125000000D03*
%TD*%
D19*
%TO.C,SW1*%
X215250000Y-75750000D03*
X215250000Y-84750000D03*
D21*
X209000000Y-77750000D03*
X221500000Y-77750000D03*
X209000000Y-82750000D03*
X221500000Y-82750000D03*
%TD*%
D28*
%TO.C,D1*%
X152500000Y-76500000D03*
X152500000Y-74925000D03*
%TD*%
D25*
%TO.C,REF\u002A\u002A*%
X75000000Y-67500000D03*
%TD*%
D19*
%TO.C,SW5*%
X92250000Y-75750000D03*
X92250000Y-84750000D03*
D21*
X86000000Y-77750000D03*
X98500000Y-77750000D03*
X86000000Y-82750000D03*
X98500000Y-82750000D03*
%TD*%
D19*
%TO.C,SW7*%
X108000000Y-90750000D03*
X108000000Y-99750000D03*
D21*
X101750000Y-92750000D03*
X114250000Y-92750000D03*
X101750000Y-97750000D03*
X114250000Y-97750000D03*
%TD*%
D26*
%TO.C,J2*%
X179120000Y-115000000D03*
D27*
X176580000Y-115000000D03*
X174040000Y-115000000D03*
X171500000Y-115000000D03*
X168960000Y-115000000D03*
X166420000Y-115000000D03*
X163880000Y-115000000D03*
X161340000Y-115000000D03*
%TD*%
D25*
%TO.C,REF\u002A\u002A*%
X75000000Y-132500000D03*
%TD*%
D19*
%TO.C,SW6*%
X76500000Y-90750000D03*
X76500000Y-99750000D03*
D21*
X70250000Y-92750000D03*
X82750000Y-92750000D03*
X70250000Y-97750000D03*
X82750000Y-97750000D03*
%TD*%
M02*
