%TF.GenerationSoftware,KiCad,Pcbnew,10.0.0*%
%TF.CreationDate,2026-04-03T19:05:29+01:00*%
%TF.ProjectId,design,64657369-676e-42e6-9b69-6361645f7063,rev?*%
%TF.SameCoordinates,Original*%
%TF.FileFunction,Legend,Bot*%
%TF.FilePolarity,Positive*%
%FSLAX46Y46*%
G04 Gerber Fmt 4.6, Leading zero omitted, Abs format (unit mm)*
G04 Created by KiCad (PCBNEW 10.0.0) date 2026-04-03 19:05:29*
%MOMM*%
%LPD*%
G01*
G04 APERTURE LIST*
%ADD10C,0.100000*%
G04 APERTURE END LIST*
D10*
X181838972Y-70845808D02*
X181458020Y-70845808D01*
X181696115Y-70512475D02*
X181696115Y-71369617D01*
X181696115Y-71369617D02*
X181648496Y-71464856D01*
X181648496Y-71464856D02*
X181553258Y-71512475D01*
X181553258Y-71512475D02*
X181458020Y-71512475D01*
X181124686Y-71512475D02*
X181124686Y-70512475D01*
X180696115Y-71512475D02*
X180696115Y-70988665D01*
X180696115Y-70988665D02*
X180743734Y-70893427D01*
X180743734Y-70893427D02*
X180838972Y-70845808D01*
X180838972Y-70845808D02*
X180981829Y-70845808D01*
X180981829Y-70845808D02*
X181077067Y-70893427D01*
X181077067Y-70893427D02*
X181124686Y-70941046D01*
X179791353Y-71512475D02*
X179791353Y-70988665D01*
X179791353Y-70988665D02*
X179838972Y-70893427D01*
X179838972Y-70893427D02*
X179934210Y-70845808D01*
X179934210Y-70845808D02*
X180124686Y-70845808D01*
X180124686Y-70845808D02*
X180219924Y-70893427D01*
X179791353Y-71464856D02*
X179886591Y-71512475D01*
X179886591Y-71512475D02*
X180124686Y-71512475D01*
X180124686Y-71512475D02*
X180219924Y-71464856D01*
X180219924Y-71464856D02*
X180267543Y-71369617D01*
X180267543Y-71369617D02*
X180267543Y-71274379D01*
X180267543Y-71274379D02*
X180219924Y-71179141D01*
X180219924Y-71179141D02*
X180124686Y-71131522D01*
X180124686Y-71131522D02*
X179886591Y-71131522D01*
X179886591Y-71131522D02*
X179791353Y-71083903D01*
X179315162Y-70845808D02*
X179315162Y-71512475D01*
X179315162Y-70941046D02*
X179267543Y-70893427D01*
X179267543Y-70893427D02*
X179172305Y-70845808D01*
X179172305Y-70845808D02*
X179029448Y-70845808D01*
X179029448Y-70845808D02*
X178934210Y-70893427D01*
X178934210Y-70893427D02*
X178886591Y-70988665D01*
X178886591Y-70988665D02*
X178886591Y-71512475D01*
X178410400Y-71512475D02*
X178410400Y-70512475D01*
X178315162Y-71131522D02*
X178029448Y-71512475D01*
X178029448Y-70845808D02*
X178410400Y-71226760D01*
X176934209Y-70845808D02*
X176696114Y-71512475D01*
X176458019Y-70845808D02*
X176696114Y-71512475D01*
X176696114Y-71512475D02*
X176791352Y-71750570D01*
X176791352Y-71750570D02*
X176838971Y-71798189D01*
X176838971Y-71798189D02*
X176934209Y-71845808D01*
X175934209Y-71512475D02*
X176029447Y-71464856D01*
X176029447Y-71464856D02*
X176077066Y-71417236D01*
X176077066Y-71417236D02*
X176124685Y-71321998D01*
X176124685Y-71321998D02*
X176124685Y-71036284D01*
X176124685Y-71036284D02*
X176077066Y-70941046D01*
X176077066Y-70941046D02*
X176029447Y-70893427D01*
X176029447Y-70893427D02*
X175934209Y-70845808D01*
X175934209Y-70845808D02*
X175791352Y-70845808D01*
X175791352Y-70845808D02*
X175696114Y-70893427D01*
X175696114Y-70893427D02*
X175648495Y-70941046D01*
X175648495Y-70941046D02*
X175600876Y-71036284D01*
X175600876Y-71036284D02*
X175600876Y-71321998D01*
X175600876Y-71321998D02*
X175648495Y-71417236D01*
X175648495Y-71417236D02*
X175696114Y-71464856D01*
X175696114Y-71464856D02*
X175791352Y-71512475D01*
X175791352Y-71512475D02*
X175934209Y-71512475D01*
X174743733Y-70845808D02*
X174743733Y-71512475D01*
X175172304Y-70845808D02*
X175172304Y-71369617D01*
X175172304Y-71369617D02*
X175124685Y-71464856D01*
X175124685Y-71464856D02*
X175029447Y-71512475D01*
X175029447Y-71512475D02*
X174886590Y-71512475D01*
X174886590Y-71512475D02*
X174791352Y-71464856D01*
X174791352Y-71464856D02*
X174743733Y-71417236D01*
X173505637Y-71512475D02*
X173505637Y-70512475D01*
X173077066Y-71512475D02*
X173077066Y-70988665D01*
X173077066Y-70988665D02*
X173124685Y-70893427D01*
X173124685Y-70893427D02*
X173219923Y-70845808D01*
X173219923Y-70845808D02*
X173362780Y-70845808D01*
X173362780Y-70845808D02*
X173458018Y-70893427D01*
X173458018Y-70893427D02*
X173505637Y-70941046D01*
X172172304Y-71512475D02*
X172172304Y-70988665D01*
X172172304Y-70988665D02*
X172219923Y-70893427D01*
X172219923Y-70893427D02*
X172315161Y-70845808D01*
X172315161Y-70845808D02*
X172505637Y-70845808D01*
X172505637Y-70845808D02*
X172600875Y-70893427D01*
X172172304Y-71464856D02*
X172267542Y-71512475D01*
X172267542Y-71512475D02*
X172505637Y-71512475D01*
X172505637Y-71512475D02*
X172600875Y-71464856D01*
X172600875Y-71464856D02*
X172648494Y-71369617D01*
X172648494Y-71369617D02*
X172648494Y-71274379D01*
X172648494Y-71274379D02*
X172600875Y-71179141D01*
X172600875Y-71179141D02*
X172505637Y-71131522D01*
X172505637Y-71131522D02*
X172267542Y-71131522D01*
X172267542Y-71131522D02*
X172172304Y-71083903D01*
X171267542Y-71464856D02*
X171362780Y-71512475D01*
X171362780Y-71512475D02*
X171553256Y-71512475D01*
X171553256Y-71512475D02*
X171648494Y-71464856D01*
X171648494Y-71464856D02*
X171696113Y-71417236D01*
X171696113Y-71417236D02*
X171743732Y-71321998D01*
X171743732Y-71321998D02*
X171743732Y-71036284D01*
X171743732Y-71036284D02*
X171696113Y-70941046D01*
X171696113Y-70941046D02*
X171648494Y-70893427D01*
X171648494Y-70893427D02*
X171553256Y-70845808D01*
X171553256Y-70845808D02*
X171362780Y-70845808D01*
X171362780Y-70845808D02*
X171267542Y-70893427D01*
X170838970Y-71512475D02*
X170838970Y-70512475D01*
X170743732Y-71131522D02*
X170458018Y-71512475D01*
X170458018Y-70845808D02*
X170838970Y-71226760D01*
X168838970Y-71464856D02*
X168934208Y-71512475D01*
X168934208Y-71512475D02*
X169124684Y-71512475D01*
X169124684Y-71512475D02*
X169219922Y-71464856D01*
X169219922Y-71464856D02*
X169267541Y-71417236D01*
X169267541Y-71417236D02*
X169315160Y-71321998D01*
X169315160Y-71321998D02*
X169315160Y-71036284D01*
X169315160Y-71036284D02*
X169267541Y-70941046D01*
X169267541Y-70941046D02*
X169219922Y-70893427D01*
X169219922Y-70893427D02*
X169124684Y-70845808D01*
X169124684Y-70845808D02*
X168934208Y-70845808D01*
X168934208Y-70845808D02*
X168838970Y-70893427D01*
X168267541Y-71512475D02*
X168362779Y-71464856D01*
X168362779Y-71464856D02*
X168410398Y-71369617D01*
X168410398Y-71369617D02*
X168410398Y-70512475D01*
X167458017Y-70845808D02*
X167458017Y-71512475D01*
X167886588Y-70845808D02*
X167886588Y-71369617D01*
X167886588Y-71369617D02*
X167838969Y-71464856D01*
X167838969Y-71464856D02*
X167743731Y-71512475D01*
X167743731Y-71512475D02*
X167600874Y-71512475D01*
X167600874Y-71512475D02*
X167505636Y-71464856D01*
X167505636Y-71464856D02*
X167458017Y-71417236D01*
X166981826Y-71512475D02*
X166981826Y-70512475D01*
X166981826Y-70893427D02*
X166886588Y-70845808D01*
X166886588Y-70845808D02*
X166696112Y-70845808D01*
X166696112Y-70845808D02*
X166600874Y-70893427D01*
X166600874Y-70893427D02*
X166553255Y-70941046D01*
X166553255Y-70941046D02*
X166505636Y-71036284D01*
X166505636Y-71036284D02*
X166505636Y-71321998D01*
X166505636Y-71321998D02*
X166553255Y-71417236D01*
X166553255Y-71417236D02*
X166600874Y-71464856D01*
X166600874Y-71464856D02*
X166696112Y-71512475D01*
X166696112Y-71512475D02*
X166886588Y-71512475D01*
X166886588Y-71512475D02*
X166981826Y-71464856D01*
X164553255Y-70845808D02*
X165315159Y-71131522D01*
X165315159Y-71131522D02*
X164553255Y-71417236D01*
X164172302Y-70512475D02*
X163553255Y-70512475D01*
X163553255Y-70512475D02*
X163886588Y-70893427D01*
X163886588Y-70893427D02*
X163743731Y-70893427D01*
X163743731Y-70893427D02*
X163648493Y-70941046D01*
X163648493Y-70941046D02*
X163600874Y-70988665D01*
X163600874Y-70988665D02*
X163553255Y-71083903D01*
X163553255Y-71083903D02*
X163553255Y-71321998D01*
X163553255Y-71321998D02*
X163600874Y-71417236D01*
X163600874Y-71417236D02*
X163648493Y-71464856D01*
X163648493Y-71464856D02*
X163743731Y-71512475D01*
X163743731Y-71512475D02*
X164029445Y-71512475D01*
X164029445Y-71512475D02*
X164124683Y-71464856D01*
X164124683Y-71464856D02*
X164172302Y-71417236D01*
X181410401Y-73503371D02*
X181458020Y-73455752D01*
X181458020Y-73455752D02*
X181553258Y-73312895D01*
X181553258Y-73312895D02*
X181600877Y-73217657D01*
X181600877Y-73217657D02*
X181648496Y-73074800D01*
X181648496Y-73074800D02*
X181696115Y-72836704D01*
X181696115Y-72836704D02*
X181696115Y-72646228D01*
X181696115Y-72646228D02*
X181648496Y-72408133D01*
X181648496Y-72408133D02*
X181600877Y-72265276D01*
X181600877Y-72265276D02*
X181553258Y-72170038D01*
X181553258Y-72170038D02*
X181458020Y-72027180D01*
X181458020Y-72027180D02*
X181410401Y-71979561D01*
X180743734Y-73503371D02*
X180791353Y-73455752D01*
X180791353Y-73455752D02*
X180886591Y-73312895D01*
X180886591Y-73312895D02*
X180934210Y-73217657D01*
X180934210Y-73217657D02*
X180981829Y-73074800D01*
X180981829Y-73074800D02*
X181029448Y-72836704D01*
X181029448Y-72836704D02*
X181029448Y-72646228D01*
X181029448Y-72646228D02*
X180981829Y-72408133D01*
X180981829Y-72408133D02*
X180934210Y-72265276D01*
X180934210Y-72265276D02*
X180886591Y-72170038D01*
X180886591Y-72170038D02*
X180791353Y-72027180D01*
X180791353Y-72027180D02*
X180743734Y-71979561D01*
X180077067Y-73503371D02*
X180124686Y-73455752D01*
X180124686Y-73455752D02*
X180219924Y-73312895D01*
X180219924Y-73312895D02*
X180267543Y-73217657D01*
X180267543Y-73217657D02*
X180315162Y-73074800D01*
X180315162Y-73074800D02*
X180362781Y-72836704D01*
X180362781Y-72836704D02*
X180362781Y-72646228D01*
X180362781Y-72646228D02*
X180315162Y-72408133D01*
X180315162Y-72408133D02*
X180267543Y-72265276D01*
X180267543Y-72265276D02*
X180219924Y-72170038D01*
X180219924Y-72170038D02*
X180124686Y-72027180D01*
X180124686Y-72027180D02*
X180077067Y-71979561D01*
X179553257Y-73122419D02*
X179648495Y-73074800D01*
X179648495Y-73074800D02*
X179696114Y-73027180D01*
X179696114Y-73027180D02*
X179743733Y-72931942D01*
X179743733Y-72931942D02*
X179743733Y-72646228D01*
X179743733Y-72646228D02*
X179696114Y-72550990D01*
X179696114Y-72550990D02*
X179648495Y-72503371D01*
X179648495Y-72503371D02*
X179553257Y-72455752D01*
X179553257Y-72455752D02*
X179410400Y-72455752D01*
X179410400Y-72455752D02*
X179315162Y-72503371D01*
X179315162Y-72503371D02*
X179267543Y-72550990D01*
X179267543Y-72550990D02*
X179219924Y-72646228D01*
X179219924Y-72646228D02*
X179219924Y-72931942D01*
X179219924Y-72931942D02*
X179267543Y-73027180D01*
X179267543Y-73027180D02*
X179315162Y-73074800D01*
X179315162Y-73074800D02*
X179410400Y-73122419D01*
X179410400Y-73122419D02*
X179553257Y-73122419D01*
X178505638Y-73503371D02*
X178553257Y-73455752D01*
X178553257Y-73455752D02*
X178648495Y-73312895D01*
X178648495Y-73312895D02*
X178696114Y-73217657D01*
X178696114Y-73217657D02*
X178743733Y-73074800D01*
X178743733Y-73074800D02*
X178791352Y-72836704D01*
X178791352Y-72836704D02*
X178791352Y-72646228D01*
X178791352Y-72646228D02*
X178743733Y-72408133D01*
X178743733Y-72408133D02*
X178696114Y-72265276D01*
X178696114Y-72265276D02*
X178648495Y-72170038D01*
X178648495Y-72170038D02*
X178553257Y-72027180D01*
X178553257Y-72027180D02*
X178505638Y-71979561D01*
X177981828Y-72122419D02*
X177981828Y-72360514D01*
X178219923Y-72265276D02*
X177981828Y-72360514D01*
X177981828Y-72360514D02*
X177743733Y-72265276D01*
X178124685Y-72550990D02*
X177981828Y-72360514D01*
X177981828Y-72360514D02*
X177838971Y-72550990D01*
X177458018Y-72074800D02*
X177410399Y-72074800D01*
X177410399Y-72074800D02*
X177362780Y-72122419D01*
X177362780Y-72122419D02*
X177362780Y-72170038D01*
X177362780Y-72170038D02*
X177410399Y-72217657D01*
X177410399Y-72217657D02*
X177458018Y-72217657D01*
X177458018Y-72217657D02*
X177505637Y-72170038D01*
X177505637Y-72170038D02*
X177505637Y-72122419D01*
X177505637Y-72122419D02*
X177458018Y-72074800D01*
X176458018Y-73122419D02*
X176886589Y-72360514D01*
X176886589Y-72360514D02*
X176029446Y-72360514D01*
X176029446Y-72360514D02*
X176458018Y-73122419D01*
X175696113Y-72074800D02*
X175648494Y-72074800D01*
X175648494Y-72074800D02*
X175600875Y-72122419D01*
X175600875Y-72122419D02*
X175600875Y-72170038D01*
X175600875Y-72170038D02*
X175648494Y-72217657D01*
X175648494Y-72217657D02*
X175696113Y-72217657D01*
X175696113Y-72217657D02*
X175743732Y-72170038D01*
X175743732Y-72170038D02*
X175743732Y-72122419D01*
X175743732Y-72122419D02*
X175696113Y-72074800D01*
X174934208Y-72122419D02*
X174934208Y-72360514D01*
X175172303Y-72265276D02*
X174934208Y-72360514D01*
X174934208Y-72360514D02*
X174696113Y-72265276D01*
X175077065Y-72550990D02*
X174934208Y-72360514D01*
X174934208Y-72360514D02*
X174791351Y-72550990D01*
X174410398Y-73503371D02*
X174362779Y-73455752D01*
X174362779Y-73455752D02*
X174267541Y-73312895D01*
X174267541Y-73312895D02*
X174219922Y-73217657D01*
X174219922Y-73217657D02*
X174172303Y-73074800D01*
X174172303Y-73074800D02*
X174124684Y-72836704D01*
X174124684Y-72836704D02*
X174124684Y-72646228D01*
X174124684Y-72646228D02*
X174172303Y-72408133D01*
X174172303Y-72408133D02*
X174219922Y-72265276D01*
X174219922Y-72265276D02*
X174267541Y-72170038D01*
X174267541Y-72170038D02*
X174362779Y-72027180D01*
X174362779Y-72027180D02*
X174410398Y-71979561D01*
X173505636Y-73122419D02*
X173600874Y-73074800D01*
X173600874Y-73074800D02*
X173648493Y-73027180D01*
X173648493Y-73027180D02*
X173696112Y-72931942D01*
X173696112Y-72931942D02*
X173696112Y-72646228D01*
X173696112Y-72646228D02*
X173648493Y-72550990D01*
X173648493Y-72550990D02*
X173600874Y-72503371D01*
X173600874Y-72503371D02*
X173505636Y-72455752D01*
X173505636Y-72455752D02*
X173362779Y-72455752D01*
X173362779Y-72455752D02*
X173267541Y-72503371D01*
X173267541Y-72503371D02*
X173219922Y-72550990D01*
X173219922Y-72550990D02*
X173172303Y-72646228D01*
X173172303Y-72646228D02*
X173172303Y-72931942D01*
X173172303Y-72931942D02*
X173219922Y-73027180D01*
X173219922Y-73027180D02*
X173267541Y-73074800D01*
X173267541Y-73074800D02*
X173362779Y-73122419D01*
X173362779Y-73122419D02*
X173505636Y-73122419D01*
X172838969Y-73503371D02*
X172791350Y-73455752D01*
X172791350Y-73455752D02*
X172696112Y-73312895D01*
X172696112Y-73312895D02*
X172648493Y-73217657D01*
X172648493Y-73217657D02*
X172600874Y-73074800D01*
X172600874Y-73074800D02*
X172553255Y-72836704D01*
X172553255Y-72836704D02*
X172553255Y-72646228D01*
X172553255Y-72646228D02*
X172600874Y-72408133D01*
X172600874Y-72408133D02*
X172648493Y-72265276D01*
X172648493Y-72265276D02*
X172696112Y-72170038D01*
X172696112Y-72170038D02*
X172791350Y-72027180D01*
X172791350Y-72027180D02*
X172838969Y-71979561D01*
X172172302Y-73503371D02*
X172124683Y-73455752D01*
X172124683Y-73455752D02*
X172029445Y-73312895D01*
X172029445Y-73312895D02*
X171981826Y-73217657D01*
X171981826Y-73217657D02*
X171934207Y-73074800D01*
X171934207Y-73074800D02*
X171886588Y-72836704D01*
X171886588Y-72836704D02*
X171886588Y-72646228D01*
X171886588Y-72646228D02*
X171934207Y-72408133D01*
X171934207Y-72408133D02*
X171981826Y-72265276D01*
X171981826Y-72265276D02*
X172029445Y-72170038D01*
X172029445Y-72170038D02*
X172124683Y-72027180D01*
X172124683Y-72027180D02*
X172172302Y-71979561D01*
X171505635Y-73503371D02*
X171458016Y-73455752D01*
X171458016Y-73455752D02*
X171362778Y-73312895D01*
X171362778Y-73312895D02*
X171315159Y-73217657D01*
X171315159Y-73217657D02*
X171267540Y-73074800D01*
X171267540Y-73074800D02*
X171219921Y-72836704D01*
X171219921Y-72836704D02*
X171219921Y-72646228D01*
X171219921Y-72646228D02*
X171267540Y-72408133D01*
X171267540Y-72408133D02*
X171315159Y-72265276D01*
X171315159Y-72265276D02*
X171362778Y-72170038D01*
X171362778Y-72170038D02*
X171458016Y-72027180D01*
X171458016Y-72027180D02*
X171505635Y-71979561D01*
M02*
