%TF.GenerationSoftware,KiCad,Pcbnew,10.0.0*%
%TF.CreationDate,2026-06-04T22:54:10+01:00*%
%TF.ProjectId,design,64657369-676e-42e6-9b69-6361645f7063,2.0.0*%
%TF.SameCoordinates,Original*%
%TF.FileFunction,Paste,Top*%
%TF.FilePolarity,Positive*%
%FSLAX46Y46*%
G04 Gerber Fmt 4.6, Leading zero omitted, Abs format (unit mm)*
G04 Created by KiCad (PCBNEW 10.0.0) date 2026-06-04 22:54:10*
%MOMM*%
%LPD*%
G01*
G04 APERTURE LIST*
G04 Aperture macros list*
%AMRoundRect*
0 Rectangle with rounded corners*
0 $1 Rounding radius*
0 $2 $3 $4 $5 $6 $7 $8 $9 X,Y pos of 4 corners*
0 Add a 4 corners polygon primitive as box body*
4,1,4,$2,$3,$4,$5,$6,$7,$8,$9,$2,$3,0*
0 Add four circle primitives for the rounded corners*
1,1,$1+$1,$2,$3*
1,1,$1+$1,$4,$5*
1,1,$1+$1,$6,$7*
1,1,$1+$1,$8,$9*
0 Add four rect primitives between the rounded corners*
20,1,$1+$1,$2,$3,$4,$5,0*
20,1,$1+$1,$4,$5,$6,$7,0*
20,1,$1+$1,$6,$7,$8,$9,0*
20,1,$1+$1,$8,$9,$2,$3,0*%
G04 Aperture macros list end*
%ADD10RoundRect,0.250000X-0.425000X-0.650000X0.425000X-0.650000X0.425000X0.650000X-0.425000X0.650000X0*%
%ADD11RoundRect,0.075000X-0.350000X-0.075000X0.350000X-0.075000X0.350000X0.075000X-0.350000X0.075000X0*%
%ADD12RoundRect,0.075000X0.075000X-0.350000X0.075000X0.350000X-0.075000X0.350000X-0.075000X-0.350000X0*%
%ADD13RoundRect,0.079500X0.100500X-0.079500X0.100500X0.079500X-0.100500X0.079500X-0.100500X-0.079500X0*%
%ADD14RoundRect,0.140000X0.170000X-0.140000X0.170000X0.140000X-0.170000X0.140000X-0.170000X-0.140000X0*%
%ADD15RoundRect,0.200000X0.275000X-0.200000X0.275000X0.200000X-0.275000X0.200000X-0.275000X-0.200000X0*%
%ADD16RoundRect,0.140000X-0.140000X-0.170000X0.140000X-0.170000X0.140000X0.170000X-0.140000X0.170000X0*%
%ADD17RoundRect,0.200000X-0.275000X0.200000X-0.275000X-0.200000X0.275000X-0.200000X0.275000X0.200000X0*%
%ADD18RoundRect,0.218750X0.256250X-0.218750X0.256250X0.218750X-0.256250X0.218750X-0.256250X-0.218750X0*%
%ADD19RoundRect,0.225000X0.250000X-0.225000X0.250000X0.225000X-0.250000X0.225000X-0.250000X-0.225000X0*%
%ADD20RoundRect,0.225000X-0.225000X-0.250000X0.225000X-0.250000X0.225000X0.250000X-0.225000X0.250000X0*%
G04 APERTURE END LIST*
D10*
%TO.C,S2*%
X148825000Y-113500000D03*
X144675000Y-113500000D03*
%TD*%
D11*
%TO.C,U1*%
X161800000Y-93250000D03*
X161800000Y-93750000D03*
X161800000Y-94250000D03*
X161800000Y-94750000D03*
X161800000Y-95250000D03*
X161800000Y-95750000D03*
D12*
X162500000Y-96450000D03*
X163000000Y-96450000D03*
X163500000Y-96450000D03*
X164000000Y-96450000D03*
X164500000Y-96450000D03*
X165000000Y-96450000D03*
D11*
X165700000Y-95750000D03*
X165700000Y-95250000D03*
X165700000Y-94750000D03*
X165700000Y-94250000D03*
X165700000Y-93750000D03*
X165700000Y-93250000D03*
D12*
X165000000Y-92550000D03*
X164500000Y-92550000D03*
X164000000Y-92550000D03*
X163500000Y-92550000D03*
X163000000Y-92550000D03*
X162500000Y-92550000D03*
%TD*%
D13*
%TO.C,R1*%
X154750000Y-76415000D03*
X154750000Y-75725000D03*
%TD*%
D10*
%TO.C,S1*%
X138425000Y-113500000D03*
X142575000Y-113500000D03*
%TD*%
D14*
%TO.C,C2*%
X170000000Y-95730000D03*
X170000000Y-94770000D03*
%TD*%
D15*
%TO.C,R3*%
X152000000Y-95325000D03*
X152000000Y-93675000D03*
%TD*%
D16*
%TO.C,C1*%
X164020000Y-98500000D03*
X164980000Y-98500000D03*
%TD*%
D17*
%TO.C,R2*%
X153500000Y-92675000D03*
X153500000Y-94325000D03*
%TD*%
D18*
%TO.C,D1*%
X152500000Y-76500000D03*
X152500000Y-74925000D03*
%TD*%
D19*
%TO.C,C4*%
X168500000Y-95750000D03*
X168500000Y-94200000D03*
%TD*%
D20*
%TO.C,C3*%
X164475000Y-89000000D03*
X166025000Y-89000000D03*
%TD*%
M02*
