%TF.GenerationSoftware,KiCad,Pcbnew,10.0.0*%
%TF.CreationDate,2026-06-04T22:54:10+01:00*%
%TF.ProjectId,design,64657369-676e-42e6-9b69-6361645f7063,2.0.0*%
%TF.SameCoordinates,Original*%
%TF.FileFunction,Copper,L1,Top*%
%TF.FilePolarity,Positive*%
%FSLAX46Y46*%
G04 Gerber Fmt 4.6, Leading zero omitted, Abs format (unit mm)*
G04 Created by KiCad (PCBNEW 10.0.0) date 2026-06-04 22:54:10*
%MOMM*%
%LPD*%
G01*
G04 APERTURE LIST*
G04 Aperture macros list*
%AMRoundRect*
0 Rectangle with rounded corners*
0 $1 Rounding radius*
0 $2 $3 $4 $5 $6 $7 $8 $9 X,Y pos of 4 corners*
0 Add a 4 corners polygon primitive as box body*
4,1,4,$2,$3,$4,$5,$6,$7,$8,$9,$2,$3,0*
0 Add four circle primitives for the rounded corners*
1,1,$1+$1,$2,$3*
1,1,$1+$1,$4,$5*
1,1,$1+$1,$6,$7*
1,1,$1+$1,$8,$9*
0 Add four rect primitives between the rounded corners*
20,1,$1+$1,$2,$3,$4,$5,0*
20,1,$1+$1,$4,$5,$6,$7,0*
20,1,$1+$1,$6,$7,$8,$9,0*
20,1,$1+$1,$8,$9,$2,$3,0*%
%AMFreePoly0*
4,1,37,0.800000,0.796148,0.878414,0.796148,1.032228,0.765552,1.177117,0.705537,1.307515,0.618408,1.418408,0.507515,1.505537,0.377117,1.565552,0.232228,1.596148,0.078414,1.596148,-0.078414,1.565552,-0.232228,1.505537,-0.377117,1.418408,-0.507515,1.307515,-0.618408,1.177117,-0.705537,1.032228,-0.765552,0.878414,-0.796148,0.800000,-0.796148,0.800000,-0.800000,-1.400000,-0.800000,
-1.403843,-0.796157,-1.439018,-0.796157,-1.511114,-0.766294,-1.566294,-0.711114,-1.596157,-0.639018,-1.596157,-0.603843,-1.600000,-0.600000,-1.600000,0.600000,-1.596157,0.603843,-1.596157,0.639018,-1.566294,0.711114,-1.511114,0.766294,-1.439018,0.796157,-1.403843,0.796157,-1.400000,0.800000,0.800000,0.800000,0.800000,0.796148,0.800000,0.796148,$1*%
%AMFreePoly1*
4,1,37,1.403843,0.796157,1.439018,0.796157,1.511114,0.766294,1.566294,0.711114,1.596157,0.639018,1.596157,0.603843,1.600000,0.600000,1.600000,-0.600000,1.596157,-0.603843,1.596157,-0.639018,1.566294,-0.711114,1.511114,-0.766294,1.439018,-0.796157,1.403843,-0.796157,1.400000,-0.800000,-0.800000,-0.800000,-0.800000,-0.796148,-0.878414,-0.796148,-1.032228,-0.765552,-1.177117,-0.705537,
-1.307515,-0.618408,-1.418408,-0.507515,-1.505537,-0.377117,-1.565552,-0.232228,-1.596148,-0.078414,-1.596148,0.078414,-1.565552,0.232228,-1.505537,0.377117,-1.418408,0.507515,-1.307515,0.618408,-1.177117,0.705537,-1.032228,0.765552,-0.878414,0.796148,-0.800000,0.796148,-0.800000,0.800000,1.400000,0.800000,1.403843,0.796157,1.403843,0.796157,$1*%
%AMFreePoly2*
4,1,37,0.603843,0.796157,0.639018,0.796157,0.711114,0.766294,0.766294,0.711114,0.796157,0.639018,0.796157,0.603843,0.800000,0.600000,0.800000,-0.600000,0.796157,-0.603843,0.796157,-0.639018,0.766294,-0.711114,0.711114,-0.766294,0.639018,-0.796157,0.603843,-0.796157,0.600000,-0.800000,0.000000,-0.800000,0.000000,-0.796148,-0.078414,-0.796148,-0.232228,-0.765552,-0.377117,-0.705537,
-0.507515,-0.618408,-0.618408,-0.507515,-0.705537,-0.377117,-0.765552,-0.232228,-0.796148,-0.078414,-0.796148,0.078414,-0.765552,0.232228,-0.705537,0.377117,-0.618408,0.507515,-0.507515,0.618408,-0.377117,0.705537,-0.232228,0.765552,-0.078414,0.796148,0.000000,0.796148,0.000000,0.800000,0.600000,0.800000,0.603843,0.796157,0.603843,0.796157,$1*%
%AMFreePoly3*
4,1,37,0.000000,0.796148,0.078414,0.796148,0.232228,0.765552,0.377117,0.705537,0.507515,0.618408,0.618408,0.507515,0.705537,0.377117,0.765552,0.232228,0.796148,0.078414,0.796148,-0.078414,0.765552,-0.232228,0.705537,-0.377117,0.618408,-0.507515,0.507515,-0.618408,0.377117,-0.705537,0.232228,-0.765552,0.078414,-0.796148,0.000000,-0.796148,0.000000,-0.800000,-0.600000,-0.800000,
-0.603843,-0.796157,-0.639018,-0.796157,-0.711114,-0.766294,-0.766294,-0.711114,-0.796157,-0.639018,-0.796157,-0.603843,-0.800000,-0.600000,-0.800000,0.600000,-0.796157,0.603843,-0.796157,0.639018,-0.766294,0.711114,-0.711114,0.766294,-0.639018,0.796157,-0.603843,0.796157,-0.600000,0.800000,0.000000,0.800000,0.000000,0.796148,0.000000,0.796148,$1*%
G04 Aperture macros list end*
%TA.AperFunction,SMDPad,CuDef*%
%ADD10RoundRect,0.250000X-0.425000X-0.650000X0.425000X-0.650000X0.425000X0.650000X-0.425000X0.650000X0*%
%TD*%
%TA.AperFunction,SMDPad,CuDef*%
%ADD11FreePoly0,0.000000*%
%TD*%
%TA.AperFunction,ComponentPad*%
%ADD12RoundRect,0.200000X-0.600000X-0.600000X0.600000X-0.600000X0.600000X0.600000X-0.600000X0.600000X0*%
%TD*%
%TA.AperFunction,SMDPad,CuDef*%
%ADD13RoundRect,0.800000X-0.800000X-0.000010X0.800000X-0.000010X0.800000X0.000010X-0.800000X0.000010X0*%
%TD*%
%TA.AperFunction,ComponentPad*%
%ADD14C,1.600000*%
%TD*%
%TA.AperFunction,SMDPad,CuDef*%
%ADD15FreePoly1,0.000000*%
%TD*%
%TA.AperFunction,ComponentPad*%
%ADD16FreePoly2,0.000000*%
%TD*%
%TA.AperFunction,ComponentPad*%
%ADD17FreePoly3,0.000000*%
%TD*%
%TA.AperFunction,ComponentPad*%
%ADD18O,1.700000X2.900000*%
%TD*%
%TA.AperFunction,ComponentPad*%
%ADD19O,2.900000X1.700000*%
%TD*%
%TA.AperFunction,SMDPad,CuDef*%
%ADD20RoundRect,0.075000X-0.350000X-0.075000X0.350000X-0.075000X0.350000X0.075000X-0.350000X0.075000X0*%
%TD*%
%TA.AperFunction,SMDPad,CuDef*%
%ADD21RoundRect,0.075000X0.075000X-0.350000X0.075000X0.350000X-0.075000X0.350000X-0.075000X-0.350000X0*%
%TD*%
%TA.AperFunction,SMDPad,CuDef*%
%ADD22RoundRect,0.100000X0.100000X-0.130000X0.100000X0.130000X-0.100000X0.130000X-0.100000X-0.130000X0*%
%TD*%
%TA.AperFunction,SMDPad,CuDef*%
%ADD23RoundRect,0.140000X0.170000X-0.140000X0.170000X0.140000X-0.170000X0.140000X-0.170000X-0.140000X0*%
%TD*%
%TA.AperFunction,SMDPad,CuDef*%
%ADD24RoundRect,0.200000X0.275000X-0.200000X0.275000X0.200000X-0.275000X0.200000X-0.275000X-0.200000X0*%
%TD*%
%TA.AperFunction,SMDPad,CuDef*%
%ADD25RoundRect,0.140000X-0.140000X-0.170000X0.140000X-0.170000X0.140000X0.170000X-0.140000X0.170000X0*%
%TD*%
%TA.AperFunction,SMDPad,CuDef*%
%ADD26RoundRect,0.200000X-0.275000X0.200000X-0.275000X-0.200000X0.275000X-0.200000X0.275000X0.200000X0*%
%TD*%
%TA.AperFunction,SMDPad,CuDef*%
%ADD27RoundRect,0.218750X0.256250X-0.218750X0.256250X0.218750X-0.256250X0.218750X-0.256250X-0.218750X0*%
%TD*%
%TA.AperFunction,SMDPad,CuDef*%
%ADD28RoundRect,0.225000X0.250000X-0.225000X0.250000X0.225000X-0.250000X0.225000X-0.250000X-0.225000X0*%
%TD*%
%TA.AperFunction,SMDPad,CuDef*%
%ADD29RoundRect,0.225000X-0.225000X-0.250000X0.225000X-0.250000X0.225000X0.250000X-0.225000X0.250000X0*%
%TD*%
%TA.AperFunction,ComponentPad*%
%ADD30R,1.700000X1.700000*%
%TD*%
%TA.AperFunction,ComponentPad*%
%ADD31C,1.700000*%
%TD*%
%TA.AperFunction,ViaPad*%
%ADD32C,0.600000*%
%TD*%
%TA.AperFunction,Conductor*%
%ADD33C,0.200000*%
%TD*%
%TA.AperFunction,Conductor*%
%ADD34C,0.500000*%
%TD*%
%TA.AperFunction,Conductor*%
%ADD35C,0.250000*%
%TD*%
G04 APERTURE END LIST*
D10*
%TO.P,S2,2,B_2*%
%TO.N,Net-(GND1-RUN)*%
X148825000Y-113500000D03*
%TO.P,S2,1,A_1*%
%TO.N,GND*%
X144675000Y-113500000D03*
%TD*%
D11*
%TO.P,GND1,1,GPIO0_1*%
%TO.N,Net-(GND1-GPIO0)*%
X128060000Y-59970000D03*
D12*
X128860000Y-59970000D03*
D13*
%TO.P,GND1,2,GPIO1_2*%
%TO.N,Net-(GND1-GPIO1)*%
X128060000Y-62510000D03*
D14*
X128860000Y-62510000D03*
D15*
%TO.P,GND1,3,GND_3*%
%TO.N,GND*%
X128060000Y-65050000D03*
D16*
X128860000Y-65050000D03*
D13*
%TO.P,GND1,4,GPIO2_4*%
%TO.N,Net-(GND1-GPIO2)*%
X128060000Y-67590000D03*
D14*
X128860000Y-67590000D03*
D13*
%TO.P,GND1,5,GPIO3_5*%
%TO.N,Net-(GND1-GPIO3)*%
X128060000Y-70130000D03*
D14*
X128860000Y-70130000D03*
D13*
%TO.P,GND1,6,GPIO4_6*%
%TO.N,Net-(GND1-GPIO4)*%
X128060000Y-72670000D03*
D14*
X128860000Y-72670000D03*
D13*
%TO.P,GND1,7,GPIO5_7*%
%TO.N,Net-(GND1-GPIO5)*%
X128060000Y-75210000D03*
D14*
X128860000Y-75210000D03*
D15*
%TO.P,GND1,8,GND_8*%
%TO.N,GND*%
X128060000Y-77750000D03*
D16*
X128860000Y-77750000D03*
D13*
%TO.P,GND1,9,GPIO6_9*%
%TO.N,Net-(GND1-GPIO6)*%
X128060000Y-80290000D03*
D14*
X128860000Y-80290000D03*
D13*
%TO.P,GND1,10,GPIO7_10*%
%TO.N,Net-(GND1-GPIO7)*%
X128060000Y-82830000D03*
D14*
X128860000Y-82830000D03*
D13*
%TO.P,GND1,11,GPIO8_11*%
%TO.N,unconnected-(GND1-GPIO8-Pad11)_1*%
X128060000Y-85370000D03*
D14*
%TO.N,unconnected-(GND1-GPIO8-Pad11)*%
X128860000Y-85370000D03*
D13*
%TO.P,GND1,12,GPIO9_12*%
%TO.N,unconnected-(GND1-GPIO9-Pad12)*%
X128060000Y-87910000D03*
D14*
%TO.N,unconnected-(GND1-GPIO9-Pad12)_1*%
X128860000Y-87910000D03*
D15*
%TO.P,GND1,13,GND_13*%
%TO.N,GND*%
X128060000Y-90450000D03*
D16*
X128860000Y-90450000D03*
D13*
%TO.P,GND1,14,GPIO10_14*%
%TO.N,/SCK*%
X128060000Y-92990000D03*
D14*
X128860000Y-92990000D03*
D13*
%TO.P,GND1,15,GPIO11_15*%
%TO.N,/SDA*%
X128060000Y-95530000D03*
D14*
X128860000Y-95530000D03*
D13*
%TO.P,GND1,16,GPIO12_16*%
%TO.N,Net-(GND1-GPIO12)*%
X128060000Y-98070000D03*
D14*
X128860000Y-98070000D03*
D13*
%TO.P,GND1,17,GPIO13_17*%
%TO.N,Net-(GND1-GPIO13)*%
X128060000Y-100610000D03*
D14*
X128860000Y-100610000D03*
D15*
%TO.P,GND1,18,GND_18*%
%TO.N,GND*%
X128060000Y-103150000D03*
D16*
X128860000Y-103150000D03*
D13*
%TO.P,GND1,19,GPIO14_19*%
%TO.N,Net-(GND1-GPIO14)*%
X128060000Y-105690000D03*
D14*
X128860000Y-105690000D03*
D13*
%TO.P,GND1,20,GPIO15_20*%
%TO.N,Net-(GND1-GPIO15)*%
X128060000Y-108230000D03*
D14*
X128860000Y-108230000D03*
%TO.P,GND1,21,GPIO16_21*%
%TO.N,/A0*%
X146640000Y-108230000D03*
D13*
X147440000Y-108230000D03*
D14*
%TO.P,GND1,22,GPIO17_22*%
%TO.N,/RESET*%
X146640000Y-105690000D03*
D13*
X147440000Y-105690000D03*
D17*
%TO.P,GND1,23,GND_23*%
%TO.N,GND*%
X146640000Y-103150000D03*
D11*
X147440000Y-103150000D03*
D14*
%TO.P,GND1,24,GPIO18_24*%
%TO.N,/CS*%
X146640000Y-100610000D03*
D13*
X147440000Y-100610000D03*
D14*
%TO.P,GND1,25,GPIO19_25*%
%TO.N,unconnected-(GND1-GPIO19-Pad25)_1*%
X146640000Y-98070000D03*
D13*
%TO.N,unconnected-(GND1-GPIO19-Pad25)*%
X147440000Y-98070000D03*
D14*
%TO.P,GND1,26,GPIO20_26*%
%TO.N,Net-(GND1-GPIO20)*%
X146640000Y-95530000D03*
D13*
X147440000Y-95530000D03*
D14*
%TO.P,GND1,27,GPIO21_27*%
%TO.N,Net-(GND1-GPIO21)*%
X146640000Y-92990000D03*
D13*
X147440000Y-92990000D03*
D17*
%TO.P,GND1,28,GND_28*%
%TO.N,GND*%
X146640000Y-90450000D03*
D11*
X147440000Y-90450000D03*
D14*
%TO.P,GND1,29,GPIO22_29*%
%TO.N,Net-(GND1-GPIO22)*%
X146640000Y-87910000D03*
D13*
X147440000Y-87910000D03*
D14*
%TO.P,GND1,30,RUN_30*%
%TO.N,Net-(GND1-RUN)*%
X146640000Y-85370000D03*
D13*
X147440000Y-85370000D03*
D14*
%TO.P,GND1,31,GPIO26_ADC0_31*%
%TO.N,unconnected-(GND1-GPIO26_ADC0-Pad31)_1*%
X146640000Y-82830000D03*
D13*
%TO.N,unconnected-(GND1-GPIO26_ADC0-Pad31)*%
X147440000Y-82830000D03*
D14*
%TO.P,GND1,32,GPIO27_ADC1_32*%
%TO.N,unconnected-(GND1-GPIO27_ADC1-Pad32)*%
X146640000Y-80290000D03*
D13*
%TO.N,unconnected-(GND1-GPIO27_ADC1-Pad32)_1*%
X147440000Y-80290000D03*
D17*
%TO.P,GND1,33,AGND_33*%
%TO.N,GND*%
X146640000Y-77750000D03*
D11*
X147440000Y-77750000D03*
D14*
%TO.P,GND1,34,GPIO28_ADC2_34*%
%TO.N,Net-(GND1-GPIO28_ADC2)*%
X146640000Y-75210000D03*
D13*
X147440000Y-75210000D03*
D14*
%TO.P,GND1,35,ADC_VREF_35*%
%TO.N,unconnected-(GND1-ADC_VREF-Pad35)_1*%
X146640000Y-72670000D03*
D13*
%TO.N,unconnected-(GND1-ADC_VREF-Pad35)*%
X147440000Y-72670000D03*
D14*
%TO.P,GND1,36,3V3_36*%
%TO.N,/3V3*%
X146640000Y-70130000D03*
D13*
X147440000Y-70130000D03*
D14*
%TO.P,GND1,37,3V3_EN_37*%
%TO.N,unconnected-(GND1-3V3_EN-Pad37)*%
X146640000Y-67590000D03*
D13*
%TO.N,unconnected-(GND1-3V3_EN-Pad37)_1*%
X147440000Y-67590000D03*
D17*
%TO.P,GND1,38,GND_38*%
%TO.N,GND*%
X146640000Y-65050000D03*
D11*
X147440000Y-65050000D03*
D14*
%TO.P,GND1,39,VSYS_39*%
%TO.N,unconnected-(GND1-VSYS-Pad39)*%
X146640000Y-62510000D03*
D13*
X147440000Y-62510000D03*
D14*
%TO.P,GND1,40,VBUS_40*%
%TO.N,/VCC*%
X146640000Y-59970000D03*
D13*
X147440000Y-59970000D03*
%TD*%
D18*
%TO.P,SW11,1,1_1*%
%TO.N,Net-(GND1-GPIO14)*%
X152500000Y-137500000D03*
X152500000Y-125000000D03*
%TO.P,SW11,2,2_2*%
%TO.N,GND*%
X157500000Y-137500000D03*
X157500000Y-125000000D03*
%TD*%
D19*
%TO.P,SW4,1,1_1*%
%TO.N,Net-(GND1-GPIO3)*%
X209000000Y-107750000D03*
X221500000Y-107750000D03*
%TO.P,SW4,2,2_2*%
%TO.N,GND*%
X209000000Y-112750000D03*
X221500000Y-112750000D03*
%TD*%
D20*
%TO.P,U1,1,CLKIN_1*%
%TO.N,GND*%
X161800000Y-93250000D03*
%TO.P,U1,2,NC_2*%
%TO.N,unconnected-(U1-NC-Pad2)*%
X161800000Y-93750000D03*
%TO.P,U1,3,NC_3*%
%TO.N,unconnected-(U1-NC-Pad3)*%
X161800000Y-94250000D03*
%TO.P,U1,4,NC_4*%
%TO.N,unconnected-(U1-NC-Pad4)*%
X161800000Y-94750000D03*
%TO.P,U1,5,NC_5*%
%TO.N,unconnected-(U1-NC-Pad5)*%
X161800000Y-95250000D03*
%TO.P,U1,6,AUX_DA_6*%
%TO.N,unconnected-(U1-AUX_DA-Pad6)*%
X161800000Y-95750000D03*
D21*
%TO.P,U1,7,AUX_CL_7*%
%TO.N,unconnected-(U1-AUX_CL-Pad7)*%
X162500000Y-96450000D03*
%TO.P,U1,8,VLOGIC_8*%
%TO.N,/3V3*%
X163000000Y-96450000D03*
%TO.P,U1,9,AD0_9*%
%TO.N,GND*%
X163500000Y-96450000D03*
%TO.P,U1,10,REGOUT_10*%
%TO.N,Net-(U1-REGOUT)*%
X164000000Y-96450000D03*
%TO.P,U1,11,FSYNC_11*%
%TO.N,GND*%
X164500000Y-96450000D03*
%TO.P,U1,12,INT_12*%
%TO.N,unconnected-(U1-INT-Pad12)*%
X165000000Y-96450000D03*
D20*
%TO.P,U1,13,VDD_13*%
%TO.N,/3V3*%
X165700000Y-95750000D03*
%TO.P,U1,14,NC_14*%
%TO.N,unconnected-(U1-NC-Pad14)*%
X165700000Y-95250000D03*
%TO.P,U1,15,NC_15*%
%TO.N,unconnected-(U1-NC-Pad15)*%
X165700000Y-94750000D03*
%TO.P,U1,16,NC_16*%
%TO.N,unconnected-(U1-NC-Pad16)*%
X165700000Y-94250000D03*
%TO.P,U1,17,NC_17*%
%TO.N,unconnected-(U1-NC-Pad17)*%
X165700000Y-93750000D03*
%TO.P,U1,18,GND_18*%
%TO.N,GND*%
X165700000Y-93250000D03*
D21*
%TO.P,U1,19,RESV_19*%
%TO.N,unconnected-(U1-RESV-Pad19)*%
X165000000Y-92550000D03*
%TO.P,U1,20,CPOUT_20*%
%TO.N,Net-(U1-CPOUT)*%
X164500000Y-92550000D03*
%TO.P,U1,21,RESV_21*%
%TO.N,unconnected-(U1-RESV-Pad21)*%
X164000000Y-92550000D03*
%TO.P,U1,22,RESV_22*%
%TO.N,unconnected-(U1-RESV-Pad22)*%
X163500000Y-92550000D03*
%TO.P,U1,23,SCL_23*%
%TO.N,Net-(GND1-GPIO21)*%
X163000000Y-92550000D03*
%TO.P,U1,24,SDA_24*%
%TO.N,Net-(GND1-GPIO20)*%
X162500000Y-92550000D03*
%TD*%
D22*
%TO.P,R1,1*%
%TO.N,/3V3*%
X154750000Y-76390000D03*
%TO.P,R1,2*%
%TO.N,Net-(D1-A)*%
X154750000Y-75750000D03*
%TD*%
D19*
%TO.P,SW3,1,1_1*%
%TO.N,Net-(GND1-GPIO2)*%
X224750000Y-92750000D03*
X237250000Y-92750000D03*
%TO.P,SW3,2,2_2*%
%TO.N,GND*%
X224750000Y-97750000D03*
X237250000Y-97750000D03*
%TD*%
D10*
%TO.P,S1,1,A_1*%
%TO.N,Net-(GND1-GPIO22)*%
X138425000Y-113500000D03*
%TO.P,S1,2,B_2*%
%TO.N,GND*%
X142575000Y-113500000D03*
%TD*%
D19*
%TO.P,SW2,1,1_1*%
%TO.N,Net-(GND1-GPIO1)*%
X193250000Y-92750000D03*
X205750000Y-92750000D03*
%TO.P,SW2,2,2_2*%
%TO.N,GND*%
X193250000Y-97750000D03*
X205750000Y-97750000D03*
%TD*%
D18*
%TO.P,SW13,1,1_1*%
%TO.N,Net-(GND1-GPIO28_ADC2)*%
X182500000Y-137500000D03*
X182500000Y-125000000D03*
%TO.P,SW13,2,2_2*%
%TO.N,GND*%
X187500000Y-137500000D03*
X187500000Y-125000000D03*
%TD*%
D19*
%TO.P,SW8,1,1_1*%
%TO.N,Net-(GND1-GPIO7)*%
X86000000Y-107750000D03*
X98500000Y-107750000D03*
%TO.P,SW8,2,2_2*%
%TO.N,GND*%
X86000000Y-112750000D03*
X98500000Y-112750000D03*
%TD*%
D18*
%TO.P,SW9,1,1_1*%
%TO.N,Net-(GND1-GPIO12)*%
X122250000Y-137500000D03*
X122250000Y-125000000D03*
%TO.P,SW9,2,2_2*%
%TO.N,GND*%
X127250000Y-137500000D03*
X127250000Y-125000000D03*
%TD*%
D23*
%TO.P,C2,1*%
%TO.N,/3V3*%
X170000000Y-95730000D03*
%TO.P,C2,2*%
%TO.N,GND*%
X170000000Y-94770000D03*
%TD*%
D24*
%TO.P,R3,1*%
%TO.N,Net-(GND1-GPIO20)*%
X152000000Y-95325000D03*
%TO.P,R3,2*%
%TO.N,/3V3*%
X152000000Y-93675000D03*
%TD*%
D25*
%TO.P,C1,1*%
%TO.N,Net-(U1-REGOUT)*%
X164020000Y-98500000D03*
%TO.P,C1,2*%
%TO.N,GND*%
X164980000Y-98500000D03*
%TD*%
D26*
%TO.P,R2,1*%
%TO.N,Net-(GND1-GPIO21)*%
X153500000Y-92675000D03*
%TO.P,R2,2*%
%TO.N,/3V3*%
X153500000Y-94325000D03*
%TD*%
D18*
%TO.P,SW12,1,1_1*%
%TO.N,Net-(GND1-GPIO15)*%
X167500000Y-137500000D03*
X167500000Y-125000000D03*
%TO.P,SW12,2,2_2*%
%TO.N,GND*%
X172500000Y-137500000D03*
X172500000Y-125000000D03*
%TD*%
D27*
%TO.P,D1,1,K_1*%
%TO.N,/3V3*%
X152500000Y-76500000D03*
%TO.P,D1,2,A_2*%
%TO.N,Net-(D1-A)*%
X152500000Y-74925000D03*
%TD*%
D18*
%TO.P,SW10,1,1_1*%
%TO.N,Net-(GND1-GPIO13)*%
X137500000Y-137500000D03*
X137500000Y-125000000D03*
%TO.P,SW10,2,2_2*%
%TO.N,GND*%
X142500000Y-137500000D03*
X142500000Y-125000000D03*
%TD*%
D28*
%TO.P,C4,1*%
%TO.N,/3V3*%
X168500000Y-95750000D03*
%TO.P,C4,2*%
%TO.N,GND*%
X168500000Y-94200000D03*
%TD*%
D19*
%TO.P,SW5,1,1_1*%
%TO.N,Net-(GND1-GPIO4)*%
X86000000Y-77750000D03*
X98500000Y-77750000D03*
%TO.P,SW5,2,2_2*%
%TO.N,GND*%
X86000000Y-82750000D03*
X98500000Y-82750000D03*
%TD*%
D29*
%TO.P,C3,1*%
%TO.N,Net-(U1-CPOUT)*%
X164475000Y-89000000D03*
%TO.P,C3,2*%
%TO.N,GND*%
X166025000Y-89000000D03*
%TD*%
D19*
%TO.P,SW7,1,1_1*%
%TO.N,Net-(GND1-GPIO6)*%
X101750000Y-92750000D03*
X114250000Y-92750000D03*
%TO.P,SW7,2,2_2*%
%TO.N,GND*%
X101750000Y-97750000D03*
X114250000Y-97750000D03*
%TD*%
D30*
%TO.P,J2,1,Pin_1_1*%
%TO.N,/3V3*%
X179120000Y-115000000D03*
D31*
%TO.P,J2,2,Pin_2_2*%
%TO.N,/SCK*%
X176580000Y-115000000D03*
%TO.P,J2,3,Pin_3_3*%
%TO.N,/SDA*%
X174040000Y-115000000D03*
%TO.P,J2,4,Pin_4_4*%
%TO.N,/A0*%
X171500000Y-115000000D03*
%TO.P,J2,5,Pin_5_5*%
%TO.N,/RESET*%
X168960000Y-115000000D03*
%TO.P,J2,6,Pin_6_6*%
%TO.N,/CS*%
X166420000Y-115000000D03*
%TO.P,J2,7,Pin_7_7*%
%TO.N,GND*%
X163880000Y-115000000D03*
%TO.P,J2,8,Pin_8_8*%
%TO.N,/VCC*%
X161340000Y-115000000D03*
%TD*%
D19*
%TO.P,SW1,1,1_1*%
%TO.N,Net-(GND1-GPIO0)*%
X209000000Y-77750000D03*
X221500000Y-77750000D03*
%TO.P,SW1,2,2_2*%
%TO.N,GND*%
X209000000Y-82750000D03*
X221500000Y-82750000D03*
%TD*%
%TO.P,SW6,1,1_1*%
%TO.N,Net-(GND1-GPIO5)*%
X70250000Y-92750000D03*
X82750000Y-92750000D03*
%TO.P,SW6,2,2_2*%
%TO.N,GND*%
X70250000Y-97750000D03*
X82750000Y-97750000D03*
%TD*%
D32*
%TO.N,Net-(GND1-GPIO22)*%
X135750000Y-114100000D03*
X122750000Y-100250000D03*
%TO.N,Net-(GND1-RUN)*%
X125250000Y-84250000D03*
X133500000Y-111250000D03*
%TO.N,GND*%
X142500000Y-115500000D03*
%TO.N,Net-(GND1-GPIO0)*%
X149500000Y-63500000D03*
X151750000Y-63500000D03*
%TO.N,Net-(GND1-GPIO1)*%
X137750000Y-66250000D03*
%TO.N,GND*%
X170000000Y-93000000D03*
X166000000Y-98000000D03*
X167500000Y-89000000D03*
X164500000Y-97500000D03*
X163300000Y-98000000D03*
X167000000Y-93250000D03*
X168500000Y-93000000D03*
X159750000Y-94250000D03*
X124500000Y-102837500D03*
%TO.N,Net-(GND1-GPIO2)*%
X149500000Y-68250000D03*
X154000000Y-68000000D03*
%TO.N,/3V3*%
X160750000Y-97750000D03*
X167250000Y-78500000D03*
X175500000Y-90500000D03*
X156000000Y-94250000D03*
%TO.N,/VCC*%
X151000000Y-101750000D03*
X151000000Y-71500000D03*
%TD*%
%TO.N,Net-(GND1-GPIO22)*%
D33*
X137500000Y-113500000D02*
X138425000Y-113500000D01*
X136900000Y-114100000D02*
X137500000Y-113500000D01*
X135750000Y-114100000D02*
X136900000Y-114100000D01*
X122750000Y-88497500D02*
X122750000Y-100250000D01*
X124750000Y-86497500D02*
X146340000Y-86497500D01*
X124750000Y-86497500D02*
X122750000Y-88497500D01*
%TO.N,Net-(GND1-RUN)*%
X131500000Y-84250000D02*
X132307500Y-85057500D01*
X131500000Y-84250000D02*
X125250000Y-84250000D01*
X148825000Y-111325000D02*
X148825000Y-113500000D01*
X148500000Y-111000000D02*
X148825000Y-111325000D01*
X133750000Y-111000000D02*
X148500000Y-111000000D01*
X133500000Y-111250000D02*
X133750000Y-111000000D01*
%TO.N,GND*%
X142575000Y-115425000D02*
X142500000Y-115500000D01*
X142575000Y-113500000D02*
X142575000Y-115425000D01*
X143500000Y-115500000D02*
X142500000Y-115500000D01*
X144675000Y-114325000D02*
X143500000Y-115500000D01*
X144675000Y-113500000D02*
X144675000Y-114325000D01*
%TO.N,Net-(GND1-GPIO15)*%
X152750000Y-117250000D02*
X154750000Y-119250000D01*
X134750000Y-117250000D02*
X152750000Y-117250000D01*
X128060000Y-110560000D02*
X134750000Y-117250000D01*
X128060000Y-108230000D02*
X128060000Y-110560000D01*
%TO.N,Net-(GND1-GPIO5)*%
X93000000Y-80250000D02*
X105750000Y-80250000D01*
X87500000Y-85750000D02*
X93000000Y-80250000D01*
X111102500Y-74897500D02*
X128860000Y-74897500D01*
X85500000Y-85750000D02*
X87500000Y-85750000D01*
X105750000Y-80250000D02*
X111102500Y-74897500D01*
X82750000Y-88500000D02*
X85500000Y-85750000D01*
X82750000Y-92750000D02*
X82750000Y-88500000D01*
%TO.N,Net-(GND1-GPIO2)*%
X224750000Y-89250000D02*
X224750000Y-92750000D01*
X222250000Y-86750000D02*
X224750000Y-89250000D01*
X177250000Y-77250000D02*
X177250000Y-81000000D01*
X168000000Y-68000000D02*
X177250000Y-77250000D01*
X177250000Y-81000000D02*
X183000000Y-86750000D01*
X154000000Y-68000000D02*
X168000000Y-68000000D01*
X183000000Y-86750000D02*
X222250000Y-86750000D01*
%TO.N,Net-(GND1-GPIO0)*%
X187250000Y-77750000D02*
X209000000Y-77750000D01*
X149055000Y-63945000D02*
X149500000Y-63500000D01*
X173000000Y-63500000D02*
X187250000Y-77750000D01*
X128860000Y-59657500D02*
X129907500Y-59657500D01*
X144000000Y-63945000D02*
X149055000Y-63945000D01*
X151750000Y-63500000D02*
X173000000Y-63500000D01*
X129907500Y-59657500D02*
X135000000Y-64750000D01*
X135000000Y-64750000D02*
X143195000Y-64750000D01*
X221500000Y-77750000D02*
X209000000Y-77750000D01*
X143195000Y-64750000D02*
X144000000Y-63945000D01*
%TO.N,Net-(GND1-GPIO1)*%
X149250000Y-71250000D02*
X142750000Y-71250000D01*
X185500000Y-92750000D02*
X165000000Y-72250000D01*
X142750000Y-71250000D02*
X137750000Y-66250000D01*
X165000000Y-72250000D02*
X150250000Y-72250000D01*
X193250000Y-92750000D02*
X185500000Y-92750000D01*
X150250000Y-72250000D02*
X149250000Y-71250000D01*
X193250000Y-92750000D02*
X205750000Y-92750000D01*
%TO.N,GND*%
X124500000Y-102837500D02*
X128060000Y-102837500D01*
X165500000Y-98500000D02*
X166000000Y-98000000D01*
X163300000Y-98000000D02*
X163300000Y-97200000D01*
X163300000Y-97200000D02*
X163500000Y-97000000D01*
X161800000Y-93250000D02*
X160750000Y-93250000D01*
X114250000Y-97750000D02*
X114250000Y-98500000D01*
X165700000Y-93250000D02*
X167000000Y-93250000D01*
X168500000Y-94200000D02*
X168500000Y-93000000D01*
X160750000Y-93250000D02*
X159750000Y-94250000D01*
X163500000Y-97000000D02*
X163500000Y-96450000D01*
X82750000Y-97750000D02*
X83250000Y-97750000D01*
X170000000Y-94540000D02*
X170000000Y-93000000D01*
X164500000Y-96450000D02*
X164500000Y-97500000D01*
X164980000Y-98500000D02*
X165500000Y-98500000D01*
X166025000Y-89000000D02*
X167500000Y-89000000D01*
%TO.N,Net-(GND1-GPIO2)*%
X224750000Y-92750000D02*
X237250000Y-92750000D01*
X130722500Y-67277500D02*
X132500000Y-65500000D01*
X145500000Y-69000000D02*
X148750000Y-69000000D01*
X132500000Y-65500000D02*
X142000000Y-65500000D01*
X142000000Y-65500000D02*
X145500000Y-69000000D01*
X148750000Y-69000000D02*
X149500000Y-68250000D01*
X128860000Y-67277500D02*
X130722500Y-67277500D01*
%TO.N,Net-(GND1-GPIO3)*%
X209000000Y-107750000D02*
X189250000Y-107750000D01*
X133992500Y-75750000D02*
X128060000Y-69817500D01*
X141750000Y-75750000D02*
X133992500Y-75750000D01*
X184500000Y-93000000D02*
X165250000Y-73750000D01*
X150500000Y-74000000D02*
X143500000Y-74000000D01*
X209000000Y-107750000D02*
X221500000Y-107750000D01*
X150750000Y-73750000D02*
X150500000Y-74000000D01*
X143500000Y-74000000D02*
X141750000Y-75750000D01*
X165250000Y-73750000D02*
X150750000Y-73750000D01*
X184500000Y-103000000D02*
X184500000Y-93000000D01*
X189250000Y-107750000D02*
X184500000Y-103000000D01*
%TO.N,Net-(GND1-GPIO4)*%
X86000000Y-77750000D02*
X98500000Y-77750000D01*
X111642500Y-72357500D02*
X128060000Y-72357500D01*
X106250000Y-77750000D02*
X111642500Y-72357500D01*
X98500000Y-77750000D02*
X106250000Y-77750000D01*
%TO.N,Net-(GND1-GPIO5)*%
X70250000Y-92750000D02*
X82750000Y-92750000D01*
%TO.N,Net-(GND1-GPIO6)*%
X114250000Y-92750000D02*
X114250000Y-85750000D01*
X101750000Y-92750000D02*
X114250000Y-92750000D01*
X114250000Y-85750000D02*
X120022500Y-79977500D01*
X120022500Y-79977500D02*
X128060000Y-79977500D01*
%TO.N,Net-(GND1-GPIO7)*%
X115750000Y-94250000D02*
X116750000Y-93250000D01*
X111732233Y-94250000D02*
X115750000Y-94250000D01*
X98500000Y-107482233D02*
X111732233Y-94250000D01*
X118732500Y-82517500D02*
X128060000Y-82517500D01*
X86000000Y-107750000D02*
X98500000Y-107750000D01*
X116750000Y-84500000D02*
X118732500Y-82517500D01*
X116750000Y-93250000D02*
X116750000Y-84500000D01*
X98500000Y-107750000D02*
X98500000Y-107482233D01*
%TO.N,/SCK*%
X145750000Y-96750000D02*
X158330000Y-96750000D01*
X158330000Y-96750000D02*
X176580000Y-115000000D01*
X128060000Y-92677500D02*
X141677500Y-92677500D01*
X141677500Y-92677500D02*
X145750000Y-96750000D01*
%TO.N,/SDA*%
X158170000Y-99170000D02*
X171000000Y-112000000D01*
X142217500Y-95217500D02*
X146170000Y-99170000D01*
X146170000Y-99170000D02*
X158170000Y-99170000D01*
X171040000Y-112000000D02*
X174040000Y-115000000D01*
X171000000Y-112000000D02*
X171040000Y-112000000D01*
X128860000Y-95217500D02*
X142217500Y-95217500D01*
%TO.N,Net-(GND1-GPIO12)*%
X122250000Y-103567500D02*
X128060000Y-97757500D01*
X122250000Y-137500000D02*
X122250000Y-125000000D01*
X122250000Y-125000000D02*
X122250000Y-103567500D01*
%TO.N,Net-(GND1-GPIO13)*%
X137500000Y-124500000D02*
X122750000Y-109750000D01*
X137500000Y-125000000D02*
X137500000Y-124500000D01*
X122750000Y-103738971D02*
X126191471Y-100297500D01*
X122750000Y-109750000D02*
X122750000Y-103738971D01*
X126191471Y-100297500D02*
X128060000Y-100297500D01*
X137500000Y-137500000D02*
X137500000Y-125000000D01*
%TO.N,Net-(GND1-GPIO14)*%
X147250000Y-118500000D02*
X133000000Y-118500000D01*
X152500000Y-137500000D02*
X152500000Y-125000000D01*
X125500000Y-107937500D02*
X128060000Y-105377500D01*
X125500000Y-111000000D02*
X125500000Y-107937500D01*
X133000000Y-118500000D02*
X125500000Y-111000000D01*
X152500000Y-125000000D02*
X152500000Y-123750000D01*
X152500000Y-123750000D02*
X147250000Y-118500000D01*
%TO.N,Net-(GND1-GPIO15)*%
X154750000Y-119206814D02*
X154750000Y-119250000D01*
X128060000Y-107917500D02*
X136642500Y-116500000D01*
X154750000Y-119250000D02*
X160500000Y-125000000D01*
X152043186Y-116500000D02*
X154750000Y-119206814D01*
X160500000Y-125000000D02*
X167500000Y-125000000D01*
X167500000Y-125000000D02*
X167500000Y-137500000D01*
X136642500Y-116500000D02*
X152043186Y-116500000D01*
%TO.N,/A0*%
X169000000Y-119000000D02*
X171500000Y-116500000D01*
X147440000Y-107917500D02*
X158522500Y-119000000D01*
X158522500Y-119000000D02*
X169000000Y-119000000D01*
X171500000Y-116500000D02*
X171500000Y-115000000D01*
%TO.N,/RESET*%
X159000000Y-118000000D02*
X151000000Y-110000000D01*
X168960000Y-115000000D02*
X165960000Y-118000000D01*
X151000000Y-110000000D02*
X151000000Y-108000000D01*
X165960000Y-118000000D02*
X159000000Y-118000000D01*
X148377500Y-105377500D02*
X146640000Y-105377500D01*
X151000000Y-108000000D02*
X148377500Y-105377500D01*
%TO.N,/CS*%
X157297500Y-100297500D02*
X147440000Y-100297500D01*
X166420000Y-109420000D02*
X157297500Y-100297500D01*
X166420000Y-115000000D02*
X166420000Y-109420000D01*
%TO.N,Net-(GND1-GPIO20)*%
X151892500Y-95217500D02*
X152000000Y-95325000D01*
X152000000Y-95325000D02*
X157175000Y-95325000D01*
X157175000Y-95325000D02*
X159950000Y-92550000D01*
X147440000Y-95217500D02*
X151892500Y-95217500D01*
X159950000Y-92550000D02*
X162500000Y-92550000D01*
%TO.N,Net-(GND1-GPIO21)*%
X163000000Y-92092590D02*
X163000000Y-92550000D01*
X153497500Y-92677500D02*
X153500000Y-92675000D01*
X158075000Y-92675000D02*
X158925000Y-91825000D01*
X162732410Y-91825000D02*
X163000000Y-92092590D01*
X147440000Y-92677500D02*
X153497500Y-92677500D01*
X158925000Y-91825000D02*
X162732410Y-91825000D01*
X153500000Y-92675000D02*
X158075000Y-92675000D01*
%TO.N,Net-(GND1-GPIO22)*%
X146340000Y-86497500D02*
X147440000Y-87597500D01*
%TO.N,Net-(GND1-RUN)*%
X147440000Y-85057500D02*
X132307500Y-85057500D01*
%TO.N,Net-(GND1-GPIO28_ADC2)*%
X170500000Y-81250000D02*
X153792500Y-81250000D01*
X182500000Y-125000000D02*
X182500000Y-93250000D01*
X153792500Y-81250000D02*
X147440000Y-74897500D01*
X182500000Y-93250000D02*
X170500000Y-81250000D01*
X182500000Y-125000000D02*
X182500000Y-137500000D01*
%TO.N,/3V3*%
X163000000Y-96934314D02*
X162184314Y-97750000D01*
X152850000Y-93675000D02*
X153500000Y-94325000D01*
D34*
X172020000Y-95730000D02*
X170000000Y-95730000D01*
X175500000Y-92250000D02*
X172020000Y-95730000D01*
X175500000Y-92250000D02*
X175500000Y-106500000D01*
D33*
X154640000Y-76500000D02*
X154750000Y-76390000D01*
X155500000Y-79500000D02*
X166250000Y-79500000D01*
X152500000Y-76500000D02*
X155500000Y-79500000D01*
X163000000Y-96450000D02*
X163000000Y-96934314D01*
D34*
X179120000Y-110120000D02*
X179120000Y-115000000D01*
D33*
X152000000Y-93675000D02*
X152850000Y-93675000D01*
D34*
X175500000Y-106500000D02*
X179120000Y-110120000D01*
X167000000Y-100750000D02*
X163750000Y-100750000D01*
D33*
X166250000Y-79500000D02*
X167250000Y-78500000D01*
D34*
X153575000Y-94250000D02*
X153500000Y-94325000D01*
D35*
X165700000Y-95750000D02*
X168500000Y-95750000D01*
D34*
X163750000Y-100750000D02*
X160750000Y-97750000D01*
X172020000Y-95730000D02*
X167000000Y-100750000D01*
X168520000Y-95730000D02*
X168500000Y-95750000D01*
D33*
X162184314Y-97750000D02*
X160750000Y-97750000D01*
D34*
X170000000Y-95730000D02*
X168520000Y-95730000D01*
X175500000Y-90500000D02*
X175500000Y-92250000D01*
X156000000Y-94250000D02*
X153575000Y-94250000D01*
D33*
X152500000Y-76500000D02*
X154640000Y-76500000D01*
%TO.N,/VCC*%
X151000000Y-63217500D02*
X147440000Y-59657500D01*
X151000000Y-71500000D02*
X151000000Y-63217500D01*
X151000000Y-104660000D02*
X151000000Y-101750000D01*
X161340000Y-115000000D02*
X151000000Y-104660000D01*
%TO.N,Net-(U1-REGOUT)*%
X164000000Y-97151471D02*
X164000000Y-96450000D01*
X164020000Y-98500000D02*
X163900000Y-98380000D01*
X163900000Y-97251471D02*
X164000000Y-97151471D01*
X163900000Y-98380000D02*
X163900000Y-97251471D01*
%TO.N,Net-(U1-CPOUT)*%
X164475000Y-89000000D02*
X164475000Y-92525000D01*
X164475000Y-92525000D02*
X164500000Y-92550000D01*
%TO.N,Net-(D1-A)*%
X154175000Y-74925000D02*
X152500000Y-74925000D01*
X154750000Y-75750000D02*
X154750000Y-75500000D01*
X154750000Y-75500000D02*
X154175000Y-74925000D01*
%TD*%
M02*
