%TF.GenerationSoftware,KiCad,Pcbnew,10.0.0*%
%TF.CreationDate,2026-07-27T12:49:20+01:00*%
%TF.ProjectId,design,64657369-676e-42e6-9b69-6361645f7063,2.2.1*%
%TF.SameCoordinates,Original*%
%TF.FileFunction,Copper,L1,Top*%
%TF.FilePolarity,Positive*%
%FSLAX46Y46*%
G04 Gerber Fmt 4.6, Leading zero omitted, Abs format (unit mm)*
G04 Created by KiCad (PCBNEW 10.0.0) date 2026-07-27 12:49:20*
%MOMM*%
%LPD*%
G01*
G04 APERTURE LIST*
G04 Aperture macros list*
%AMRoundRect*
0 Rectangle with rounded corners*
0 $1 Rounding radius*
0 $2 $3 $4 $5 $6 $7 $8 $9 X,Y pos of 4 corners*
0 Add a 4 corners polygon primitive as box body*
4,1,4,$2,$3,$4,$5,$6,$7,$8,$9,$2,$3,0*
0 Add four circle primitives for the rounded corners*
1,1,$1+$1,$2,$3*
1,1,$1+$1,$4,$5*
1,1,$1+$1,$6,$7*
1,1,$1+$1,$8,$9*
0 Add four rect primitives between the rounded corners*
20,1,$1+$1,$2,$3,$4,$5,0*
20,1,$1+$1,$4,$5,$6,$7,0*
20,1,$1+$1,$6,$7,$8,$9,0*
20,1,$1+$1,$8,$9,$2,$3,0*%
%AMFreePoly0*
4,1,37,0.800000,0.796148,0.878414,0.796148,1.032228,0.765552,1.177117,0.705537,1.307515,0.618408,1.418408,0.507515,1.505537,0.377117,1.565552,0.232228,1.596148,0.078414,1.596148,-0.078414,1.565552,-0.232228,1.505537,-0.377117,1.418408,-0.507515,1.307515,-0.618408,1.177117,-0.705537,1.032228,-0.765552,0.878414,-0.796148,0.800000,-0.796148,0.800000,-0.800000,-1.400000,-0.800000,
-1.403843,-0.796157,-1.439018,-0.796157,-1.511114,-0.766294,-1.566294,-0.711114,-1.596157,-0.639018,-1.596157,-0.603843,-1.600000,-0.600000,-1.600000,0.600000,-1.596157,0.603843,-1.596157,0.639018,-1.566294,0.711114,-1.511114,0.766294,-1.439018,0.796157,-1.403843,0.796157,-1.400000,0.800000,0.800000,0.800000,0.800000,0.796148,0.800000,0.796148,$1*%
%AMFreePoly1*
4,1,37,1.403843,0.796157,1.439018,0.796157,1.511114,0.766294,1.566294,0.711114,1.596157,0.639018,1.596157,0.603843,1.600000,0.600000,1.600000,-0.600000,1.596157,-0.603843,1.596157,-0.639018,1.566294,-0.711114,1.511114,-0.766294,1.439018,-0.796157,1.403843,-0.796157,1.400000,-0.800000,-0.800000,-0.800000,-0.800000,-0.796148,-0.878414,-0.796148,-1.032228,-0.765552,-1.177117,-0.705537,
-1.307515,-0.618408,-1.418408,-0.507515,-1.505537,-0.377117,-1.565552,-0.232228,-1.596148,-0.078414,-1.596148,0.078414,-1.565552,0.232228,-1.505537,0.377117,-1.418408,0.507515,-1.307515,0.618408,-1.177117,0.705537,-1.032228,0.765552,-0.878414,0.796148,-0.800000,0.796148,-0.800000,0.800000,1.400000,0.800000,1.403843,0.796157,1.403843,0.796157,$1*%
%AMFreePoly2*
4,1,37,0.603843,0.796157,0.639018,0.796157,0.711114,0.766294,0.766294,0.711114,0.796157,0.639018,0.796157,0.603843,0.800000,0.600000,0.800000,-0.600000,0.796157,-0.603843,0.796157,-0.639018,0.766294,-0.711114,0.711114,-0.766294,0.639018,-0.796157,0.603843,-0.796157,0.600000,-0.800000,0.000000,-0.800000,0.000000,-0.796148,-0.078414,-0.796148,-0.232228,-0.765552,-0.377117,-0.705537,
-0.507515,-0.618408,-0.618408,-0.507515,-0.705537,-0.377117,-0.765552,-0.232228,-0.796148,-0.078414,-0.796148,0.078414,-0.765552,0.232228,-0.705537,0.377117,-0.618408,0.507515,-0.507515,0.618408,-0.377117,0.705537,-0.232228,0.765552,-0.078414,0.796148,0.000000,0.796148,0.000000,0.800000,0.600000,0.800000,0.603843,0.796157,0.603843,0.796157,$1*%
%AMFreePoly3*
4,1,37,0.000000,0.796148,0.078414,0.796148,0.232228,0.765552,0.377117,0.705537,0.507515,0.618408,0.618408,0.507515,0.705537,0.377117,0.765552,0.232228,0.796148,0.078414,0.796148,-0.078414,0.765552,-0.232228,0.705537,-0.377117,0.618408,-0.507515,0.507515,-0.618408,0.377117,-0.705537,0.232228,-0.765552,0.078414,-0.796148,0.000000,-0.796148,0.000000,-0.800000,-0.600000,-0.800000,
-0.603843,-0.796157,-0.639018,-0.796157,-0.711114,-0.766294,-0.766294,-0.711114,-0.796157,-0.639018,-0.796157,-0.603843,-0.800000,-0.600000,-0.800000,0.600000,-0.796157,0.603843,-0.796157,0.639018,-0.766294,0.711114,-0.711114,0.766294,-0.639018,0.796157,-0.603843,0.796157,-0.600000,0.800000,0.000000,0.800000,0.000000,0.796148,0.000000,0.796148,$1*%
G04 Aperture macros list end*
%TA.AperFunction,NonConductor*%
%ADD10C,0.200000*%
%TD*%
%TA.AperFunction,EtchedComponent*%
%ADD11C,0.000000*%
%TD*%
%TA.AperFunction,ComponentPad*%
%ADD12C,1.700000*%
%TD*%
%TA.AperFunction,ComponentPad*%
%ADD13R,1.700000X1.700000*%
%TD*%
%TA.AperFunction,SMDPad,CuDef*%
%ADD14RoundRect,0.087500X0.087500X-0.225000X0.087500X0.225000X-0.087500X0.225000X-0.087500X-0.225000X0*%
%TD*%
%TA.AperFunction,SMDPad,CuDef*%
%ADD15RoundRect,0.087500X0.225000X-0.087500X0.225000X0.087500X-0.225000X0.087500X-0.225000X-0.087500X0*%
%TD*%
%TA.AperFunction,SMDPad,CuDef*%
%ADD16RoundRect,0.140000X-0.140000X-0.170000X0.140000X-0.170000X0.140000X0.170000X-0.140000X0.170000X0*%
%TD*%
%TA.AperFunction,SMDPad,CuDef*%
%ADD17FreePoly0,0.000000*%
%TD*%
%TA.AperFunction,ComponentPad*%
%ADD18RoundRect,0.200000X-0.600000X-0.600000X0.600000X-0.600000X0.600000X0.600000X-0.600000X0.600000X0*%
%TD*%
%TA.AperFunction,SMDPad,CuDef*%
%ADD19RoundRect,0.800000X-0.800000X-0.000010X0.800000X-0.000010X0.800000X0.000010X-0.800000X0.000010X0*%
%TD*%
%TA.AperFunction,ComponentPad*%
%ADD20C,1.600000*%
%TD*%
%TA.AperFunction,SMDPad,CuDef*%
%ADD21FreePoly1,0.000000*%
%TD*%
%TA.AperFunction,ComponentPad*%
%ADD22FreePoly2,0.000000*%
%TD*%
%TA.AperFunction,ComponentPad*%
%ADD23FreePoly3,0.000000*%
%TD*%
%TA.AperFunction,ComponentPad*%
%ADD24O,1.700000X2.900000*%
%TD*%
%TA.AperFunction,ComponentPad*%
%ADD25O,2.900000X1.700000*%
%TD*%
%TA.AperFunction,SMDPad,CuDef*%
%ADD26RoundRect,0.250000X-0.425000X-0.650000X0.425000X-0.650000X0.425000X0.650000X-0.425000X0.650000X0*%
%TD*%
%TA.AperFunction,SMDPad,CuDef*%
%ADD27RoundRect,0.100000X0.100000X-0.130000X0.100000X0.130000X-0.100000X0.130000X-0.100000X-0.130000X0*%
%TD*%
%TA.AperFunction,SMDPad,CuDef*%
%ADD28RoundRect,0.200000X0.275000X-0.200000X0.275000X0.200000X-0.275000X0.200000X-0.275000X-0.200000X0*%
%TD*%
%TA.AperFunction,SMDPad,CuDef*%
%ADD29RoundRect,0.200000X-0.275000X0.200000X-0.275000X-0.200000X0.275000X-0.200000X0.275000X0.200000X0*%
%TD*%
%TA.AperFunction,SMDPad,CuDef*%
%ADD30RoundRect,0.218750X0.256250X-0.218750X0.256250X0.218750X-0.256250X0.218750X-0.256250X-0.218750X0*%
%TD*%
%TA.AperFunction,ViaPad*%
%ADD31C,0.600000*%
%TD*%
%TA.AperFunction,Conductor*%
%ADD32C,0.200000*%
%TD*%
%TA.AperFunction,Conductor*%
%ADD33C,0.500000*%
%TD*%
G04 APERTURE END LIST*
D10*
X66000000Y-69750000D02*
X66000000Y-58750000D01*
X76750000Y-58500000D02*
X66000000Y-58500000D01*
X232500000Y-58500000D02*
X246750000Y-58500000D01*
X242500000Y-73750000D02*
X242500000Y-58500000D01*
D11*
%TA.AperFunction,EtchedComponent*%
%TO.C,G\u002A\u002A\u002A*%
G36*
X201182501Y-122005401D02*
G01*
X201313847Y-122046796D01*
X201407090Y-122130488D01*
X201461578Y-122253622D01*
X201476656Y-122413343D01*
X201451669Y-122606796D01*
X201385963Y-122831124D01*
X201377213Y-122854918D01*
X201294992Y-123016288D01*
X201184115Y-123150396D01*
X201054014Y-123251410D01*
X200914123Y-123313496D01*
X200773874Y-123330822D01*
X200653352Y-123302534D01*
X200561994Y-123232637D01*
X200490556Y-123121593D01*
X200447609Y-122985806D01*
X200439030Y-122892222D01*
X200460138Y-122721551D01*
X200518540Y-122550838D01*
X200606854Y-122388891D01*
X200717698Y-122244514D01*
X200843690Y-122126513D01*
X200977446Y-122043694D01*
X201111585Y-122004863D01*
X201182501Y-122005401D01*
G37*
%TD.AperFunction*%
%TA.AperFunction,EtchedComponent*%
G36*
X206167956Y-122008852D02*
G01*
X206304371Y-122065227D01*
X206349575Y-122096428D01*
X206458936Y-122211515D01*
X206536516Y-122358144D01*
X206582863Y-122525391D01*
X206598526Y-122702333D01*
X206584053Y-122878044D01*
X206539992Y-123041601D01*
X206466893Y-123182079D01*
X206365302Y-123288554D01*
X206287491Y-123333019D01*
X206161664Y-123369358D01*
X206049157Y-123360092D01*
X205952660Y-123319474D01*
X205840809Y-123229449D01*
X205748773Y-123096554D01*
X205681506Y-122934670D01*
X205643968Y-122757675D01*
X205641115Y-122579449D01*
X205655659Y-122487937D01*
X205718028Y-122300506D01*
X205805678Y-122155928D01*
X205913373Y-122057157D01*
X206035878Y-122007147D01*
X206167956Y-122008852D01*
G37*
%TD.AperFunction*%
%TA.AperFunction,EtchedComponent*%
G36*
X203766617Y-122327913D02*
G01*
X203972406Y-122369369D01*
X204141589Y-122448732D01*
X204211455Y-122503198D01*
X204297790Y-122612295D01*
X204330210Y-122725171D01*
X204312962Y-122837981D01*
X204250296Y-122946881D01*
X204146459Y-123048025D01*
X204005700Y-123137568D01*
X203832266Y-123211667D01*
X203630405Y-123266475D01*
X203404366Y-123298148D01*
X203328060Y-123302751D01*
X203196223Y-123304359D01*
X203075035Y-123299131D01*
X202984934Y-123288161D01*
X202964940Y-123283296D01*
X202829558Y-123226275D01*
X202735367Y-123144729D01*
X202667960Y-123029392D01*
X202623618Y-122910484D01*
X202614343Y-122818559D01*
X202640942Y-122732989D01*
X202682182Y-122664576D01*
X202782868Y-122562064D01*
X202933552Y-122472157D01*
X203126185Y-122398995D01*
X203269911Y-122362413D01*
X203530394Y-122325287D01*
X203766617Y-122327913D01*
G37*
%TD.AperFunction*%
%TA.AperFunction,EtchedComponent*%
G36*
X203807646Y-126377468D02*
G01*
X203859205Y-126410356D01*
X203898729Y-126447796D01*
X203961792Y-126526895D01*
X203986079Y-126611444D01*
X203987990Y-126656635D01*
X203990458Y-126730969D01*
X203996635Y-126772830D01*
X203999303Y-126776212D01*
X204030385Y-126764068D01*
X204090358Y-126734616D01*
X204094626Y-126732397D01*
X204230981Y-126692509D01*
X204379985Y-126701066D01*
X204527530Y-126754308D01*
X204659512Y-126848476D01*
X204702892Y-126894497D01*
X204764161Y-127009922D01*
X204781448Y-127146665D01*
X204754142Y-127286544D01*
X204718596Y-127360372D01*
X204645620Y-127461704D01*
X204550870Y-127566665D01*
X204441813Y-127669991D01*
X204325919Y-127766416D01*
X204210654Y-127850673D01*
X204103487Y-127917498D01*
X204011887Y-127961624D01*
X203943322Y-127977787D01*
X203905260Y-127960719D01*
X203900000Y-127937544D01*
X203923598Y-127901068D01*
X203984299Y-127851126D01*
X204039318Y-127816052D01*
X204218119Y-127699746D01*
X204376072Y-127571397D01*
X204506031Y-127438850D01*
X204600850Y-127309952D01*
X204653379Y-127192548D01*
X204661653Y-127132874D01*
X204649292Y-127035420D01*
X204606699Y-126960522D01*
X204522627Y-126891211D01*
X204486086Y-126868025D01*
X204351652Y-126816520D01*
X204216944Y-126820109D01*
X204091267Y-126876011D01*
X203983927Y-126981446D01*
X203953888Y-127027020D01*
X203908564Y-127089064D01*
X203869078Y-127119024D01*
X203859711Y-127119215D01*
X203843212Y-127108009D01*
X203834548Y-127081626D01*
X203833659Y-127029708D01*
X203840485Y-126941896D01*
X203854969Y-126807831D01*
X203857801Y-126783070D01*
X203867160Y-126676483D01*
X203863127Y-126609108D01*
X203843122Y-126562500D01*
X203823533Y-126538099D01*
X203773852Y-126498718D01*
X203708607Y-126486697D01*
X203641244Y-126491222D01*
X203495207Y-126535548D01*
X203366017Y-126627145D01*
X203262355Y-126755197D01*
X203192902Y-126908886D01*
X203166339Y-127077395D01*
X203166294Y-127083062D01*
X203160529Y-127177944D01*
X203146383Y-127252443D01*
X203136964Y-127274826D01*
X203103785Y-127301383D01*
X203077545Y-127275962D01*
X203060442Y-127205054D01*
X203054676Y-127095152D01*
X203056269Y-127036683D01*
X203090832Y-126841197D01*
X203170311Y-126669722D01*
X203287848Y-126529958D01*
X203436587Y-126429605D01*
X203609668Y-126376362D01*
X203648394Y-126371893D01*
X203745252Y-126367035D01*
X203807646Y-126377468D01*
G37*
%TD.AperFunction*%
%TA.AperFunction,EtchedComponent*%
G36*
X203619805Y-117751501D02*
G01*
X203873228Y-117777805D01*
X204151088Y-117820750D01*
X204462610Y-117880539D01*
X204817017Y-117957374D01*
X204983284Y-117995333D01*
X205246891Y-118055644D01*
X205461260Y-118102620D01*
X205634163Y-118136738D01*
X205773374Y-118158473D01*
X205886667Y-118168298D01*
X205981814Y-118166691D01*
X206066589Y-118154124D01*
X206148765Y-118131075D01*
X206236116Y-118098016D01*
X206290415Y-118075213D01*
X206646743Y-117942650D01*
X207003427Y-117847691D01*
X207351536Y-117791529D01*
X207682142Y-117775360D01*
X207986315Y-117800379D01*
X208128183Y-117829330D01*
X208400237Y-117909616D01*
X208623364Y-118002592D01*
X208806747Y-118112941D01*
X208959571Y-118245346D01*
X208974173Y-118260670D01*
X209067906Y-118371464D01*
X209156472Y-118494219D01*
X209221983Y-118603961D01*
X209226275Y-118612633D01*
X209263466Y-118695873D01*
X209288505Y-118773376D01*
X209304409Y-118861500D01*
X209314196Y-118976600D01*
X209320494Y-119123471D01*
X209323054Y-119318941D01*
X209314969Y-119473292D01*
X209295081Y-119603295D01*
X209284170Y-119649871D01*
X209230931Y-119814833D01*
X209152329Y-120005179D01*
X209058277Y-120200336D01*
X208958692Y-120379728D01*
X208863564Y-120522681D01*
X208800066Y-120610527D01*
X208768253Y-120671204D01*
X208761692Y-120722134D01*
X208771498Y-120771988D01*
X208787214Y-120828791D01*
X208815843Y-120931736D01*
X208854499Y-121070473D01*
X208900298Y-121234650D01*
X208950356Y-121413917D01*
X208957114Y-121438106D01*
X209024042Y-121678907D01*
X209088877Y-121914536D01*
X209149078Y-122135587D01*
X209202105Y-122332654D01*
X209245419Y-122496333D01*
X209276480Y-122617218D01*
X209285822Y-122655311D01*
X209306072Y-122784189D01*
X209317108Y-122948812D01*
X209318555Y-123126933D01*
X209310034Y-123296304D01*
X209298348Y-123395173D01*
X209267271Y-123563881D01*
X209224029Y-123760424D01*
X209172618Y-123969718D01*
X209117032Y-124176675D01*
X209061265Y-124366211D01*
X209009311Y-124523240D01*
X208978583Y-124602849D01*
X208922524Y-124721052D01*
X208847263Y-124861395D01*
X208766963Y-124997770D01*
X208748152Y-125027574D01*
X208599796Y-125258729D01*
X208687354Y-125584849D01*
X208755489Y-125812546D01*
X208843931Y-126067611D01*
X208949054Y-126342396D01*
X209067235Y-126629251D01*
X209194849Y-126920529D01*
X209328272Y-127208580D01*
X209463881Y-127485757D01*
X209598051Y-127744410D01*
X209727157Y-127976891D01*
X209847576Y-128175552D01*
X209955683Y-128332744D01*
X210033966Y-128426765D01*
X210128062Y-128529866D01*
X210193985Y-128618445D01*
X210239950Y-128709722D01*
X210274169Y-128820916D01*
X210304855Y-128969247D01*
X210312232Y-129010176D01*
X210328345Y-129132104D01*
X210342269Y-129298303D01*
X210353907Y-129499542D01*
X210363161Y-129726592D01*
X210369932Y-129970223D01*
X210374122Y-130221207D01*
X210375633Y-130470314D01*
X210374366Y-130708314D01*
X210370224Y-130925979D01*
X210363108Y-131114079D01*
X210352920Y-131263384D01*
X210339561Y-131364665D01*
X210337394Y-131374652D01*
X210280022Y-131565360D01*
X210205175Y-131732751D01*
X210120489Y-131860098D01*
X210110723Y-131871139D01*
X210051391Y-131935927D01*
X210160586Y-132252432D01*
X210204895Y-132372619D01*
X210268393Y-132533580D01*
X210345887Y-132722731D01*
X210432188Y-132927491D01*
X210522104Y-133135279D01*
X210563452Y-133228868D01*
X210811270Y-133813673D01*
X211016854Y-134359987D01*
X211180612Y-134869602D01*
X211302951Y-135344309D01*
X211384279Y-135785902D01*
X211425005Y-136196170D01*
X211425535Y-136576907D01*
X211394404Y-136880484D01*
X211298725Y-137318512D01*
X211147941Y-137762004D01*
X210944589Y-138205546D01*
X210691209Y-138643722D01*
X210390336Y-139071117D01*
X210334221Y-139142850D01*
X210270380Y-139224041D01*
X210179459Y-139340763D01*
X210070026Y-139481959D01*
X209950650Y-139636575D01*
X209833565Y-139788780D01*
X209475791Y-140254793D01*
X209217630Y-140348902D01*
X208998465Y-140423276D01*
X208784621Y-140483117D01*
X208561538Y-140531407D01*
X208314656Y-140571123D01*
X208029415Y-140605244D01*
X207903579Y-140617779D01*
X207727733Y-140631065D01*
X207508693Y-140642284D01*
X207260322Y-140651202D01*
X206996481Y-140657580D01*
X206731032Y-140661183D01*
X206477837Y-140661774D01*
X206250758Y-140659116D01*
X206063658Y-140652974D01*
X206011778Y-140650060D01*
X205846099Y-140637346D01*
X205672878Y-140620688D01*
X205517307Y-140602654D01*
X205440188Y-140591818D01*
X205302443Y-140564425D01*
X205190232Y-140524969D01*
X205095994Y-140465975D01*
X205012171Y-140379971D01*
X204931203Y-140259484D01*
X204845532Y-140097039D01*
X204765218Y-139924507D01*
X204736468Y-139924440D01*
X204657303Y-139927663D01*
X204535853Y-139933756D01*
X204380248Y-139942294D01*
X204198616Y-139952858D01*
X204074546Y-139960359D01*
X203828777Y-139974047D01*
X203555501Y-139986959D01*
X203275979Y-139998240D01*
X203011472Y-140007035D01*
X202783241Y-140012489D01*
X202774033Y-140012645D01*
X202161347Y-140022756D01*
X202093878Y-140155512D01*
X201977235Y-140323124D01*
X201819837Y-140449054D01*
X201648772Y-140523987D01*
X201560633Y-140541090D01*
X201422845Y-140555084D01*
X201244339Y-140565968D01*
X201034043Y-140573741D01*
X200800887Y-140578403D01*
X200553801Y-140579954D01*
X200301713Y-140578392D01*
X200053555Y-140573717D01*
X199818254Y-140565929D01*
X199604742Y-140555027D01*
X199421946Y-140541010D01*
X199280485Y-140524139D01*
X199141002Y-140504087D01*
X198960788Y-140480298D01*
X198757468Y-140454985D01*
X198548670Y-140430360D01*
X198408501Y-140414696D01*
X198177109Y-140386303D01*
X197941211Y-140351542D01*
X197710648Y-140312365D01*
X197495263Y-140270723D01*
X197304897Y-140228567D01*
X197149394Y-140187848D01*
X197038595Y-140150518D01*
X197009894Y-140137437D01*
X196907018Y-140060222D01*
X196798482Y-139935716D01*
X196692436Y-139773641D01*
X196668043Y-139729827D01*
X196615837Y-139639746D01*
X196541683Y-139520335D01*
X196457341Y-139390271D01*
X196406742Y-139314895D01*
X196260887Y-139094537D01*
X196144001Y-138901934D01*
X196046809Y-138720361D01*
X195960038Y-138533092D01*
X195918843Y-138434988D01*
X195811022Y-138171016D01*
X195521966Y-137973597D01*
X195324554Y-137846897D01*
X195096349Y-137713613D01*
X194855729Y-137583588D01*
X194621073Y-137466665D01*
X194410759Y-137372687D01*
X194367135Y-137355106D01*
X194256119Y-137314724D01*
X194110617Y-137266253D01*
X193952774Y-137216914D01*
X193853855Y-137187744D01*
X193647389Y-137123276D01*
X193483108Y-137057596D01*
X193345003Y-136982130D01*
X193217061Y-136888302D01*
X193101011Y-136784540D01*
X192918652Y-136571807D01*
X192774339Y-136320669D01*
X192671682Y-136040211D01*
X192614292Y-135739520D01*
X192602963Y-135531293D01*
X192604179Y-135516628D01*
X192744399Y-135516628D01*
X192745727Y-135687214D01*
X192752303Y-135815963D01*
X192766054Y-135919607D01*
X192788911Y-136014874D01*
X192809315Y-136079488D01*
X192923790Y-136339845D01*
X193078937Y-136571016D01*
X193268020Y-136766203D01*
X193484301Y-136918608D01*
X193721044Y-137021433D01*
X193751732Y-137030459D01*
X194079323Y-137130926D01*
X194404010Y-137247746D01*
X194716295Y-137376519D01*
X195006677Y-137512847D01*
X195265659Y-137652328D01*
X195483740Y-137790563D01*
X195621516Y-137896558D01*
X195693397Y-137944362D01*
X195753733Y-137961289D01*
X195790167Y-137947384D01*
X195790345Y-137902696D01*
X195787630Y-137895926D01*
X195770815Y-137825514D01*
X195769025Y-137789722D01*
X195767675Y-137740434D01*
X195762614Y-137644811D01*
X195754569Y-137515009D01*
X195744265Y-137363186D01*
X195739839Y-137301277D01*
X195725504Y-137036203D01*
X195725344Y-136997805D01*
X195822996Y-136997805D01*
X195834454Y-137393302D01*
X195871101Y-137746110D01*
X195936611Y-138068113D01*
X196034660Y-138371196D01*
X196168924Y-138667241D01*
X196343077Y-138968135D01*
X196507833Y-139212240D01*
X196593258Y-139337166D01*
X196674678Y-139464456D01*
X196739723Y-139574431D01*
X196762615Y-139617533D01*
X196830069Y-139732497D01*
X196915258Y-139851109D01*
X196960444Y-139904557D01*
X197013847Y-139960289D01*
X197062861Y-140000895D01*
X197120375Y-140032259D01*
X197199276Y-140060262D01*
X197312451Y-140090787D01*
X197432679Y-140120100D01*
X197712813Y-140183025D01*
X197964572Y-140229132D01*
X198214303Y-140262738D01*
X198429907Y-140283487D01*
X198554205Y-140295675D01*
X198714931Y-140314127D01*
X198890529Y-140336254D01*
X199045843Y-140357507D01*
X199504927Y-140415349D01*
X199932963Y-140451711D01*
X200352931Y-140467962D01*
X200787808Y-140465474D01*
X200834988Y-140464190D01*
X201094984Y-140454160D01*
X201304299Y-140439920D01*
X201470843Y-140420121D01*
X201602525Y-140393411D01*
X201707255Y-140358441D01*
X201792943Y-140313859D01*
X201819355Y-140296122D01*
X201866929Y-140246491D01*
X201929614Y-140159737D01*
X201996602Y-140051359D01*
X202022447Y-140004930D01*
X202096694Y-139876334D01*
X202152843Y-139800688D01*
X202192615Y-139775731D01*
X202196625Y-139776083D01*
X202237175Y-139806637D01*
X202242840Y-139828577D01*
X202252323Y-139847064D01*
X202286422Y-139860417D01*
X202353615Y-139869813D01*
X202462380Y-139876428D01*
X202621193Y-139881440D01*
X202624134Y-139881512D01*
X202776389Y-139882647D01*
X202974587Y-139880240D01*
X203206146Y-139874768D01*
X203458488Y-139866705D01*
X203719031Y-139856529D01*
X203975194Y-139844715D01*
X204214398Y-139831739D01*
X204424062Y-139818076D01*
X204537933Y-139809106D01*
X204647355Y-139798701D01*
X204710824Y-139787047D01*
X204740853Y-139768124D01*
X204749955Y-139735913D01*
X204750577Y-139706808D01*
X204765963Y-139647977D01*
X204800391Y-139620020D01*
X204836271Y-139631222D01*
X204850989Y-139659526D01*
X204933929Y-139920654D01*
X205016993Y-140130652D01*
X205099225Y-140287752D01*
X205179670Y-140390186D01*
X205257374Y-140436186D01*
X205271523Y-140438382D01*
X205334703Y-140445409D01*
X205438808Y-140458817D01*
X205566740Y-140476357D01*
X205645150Y-140487540D01*
X205778535Y-140501095D01*
X205960494Y-140511208D01*
X206181050Y-140517989D01*
X206430225Y-140521546D01*
X206698040Y-140521990D01*
X206974518Y-140519430D01*
X207249679Y-140513974D01*
X207513547Y-140505734D01*
X207756142Y-140494817D01*
X207967487Y-140481334D01*
X208137603Y-140465394D01*
X208182217Y-140459721D01*
X208481293Y-140409566D01*
X208774028Y-140344217D01*
X209041760Y-140268268D01*
X209225610Y-140202880D01*
X209324252Y-140157885D01*
X209401458Y-140105077D01*
X209475704Y-140029374D01*
X209546073Y-139941293D01*
X209614260Y-139852274D01*
X209708694Y-139729462D01*
X209819689Y-139585433D01*
X209937559Y-139432760D01*
X210015358Y-139332147D01*
X210216387Y-139069113D01*
X210383982Y-138842058D01*
X210523488Y-138642949D01*
X210640252Y-138463751D01*
X210739618Y-138296432D01*
X210826933Y-138132958D01*
X210866037Y-138053694D01*
X211028941Y-137687776D01*
X211152647Y-137342812D01*
X211238007Y-137008934D01*
X211285874Y-136676274D01*
X211297099Y-136334963D01*
X211272536Y-135975132D01*
X211213037Y-135586914D01*
X211119455Y-135160440D01*
X211116883Y-135149999D01*
X211007756Y-134749838D01*
X210876190Y-134346272D01*
X210717715Y-133926950D01*
X210527856Y-133479520D01*
X210447759Y-133302193D01*
X210370218Y-133127821D01*
X210282460Y-132922100D01*
X210194418Y-132708772D01*
X210116023Y-132511579D01*
X210104207Y-132480946D01*
X210046618Y-132331652D01*
X209996287Y-132202767D01*
X209956955Y-132103737D01*
X209932357Y-132044010D01*
X209926064Y-132030761D01*
X209896384Y-132035788D01*
X209825441Y-132058068D01*
X209726527Y-132093298D01*
X209687381Y-132108035D01*
X209540173Y-132159523D01*
X209375576Y-132210046D01*
X209230773Y-132248283D01*
X209112912Y-132274134D01*
X209027490Y-132285683D01*
X208950060Y-132282927D01*
X208856169Y-132265865D01*
X208779577Y-132248244D01*
X208555691Y-132195463D01*
X208481107Y-132294209D01*
X208368628Y-132424601D01*
X208218434Y-132572393D01*
X208044056Y-132726442D01*
X207859027Y-132875606D01*
X207676879Y-133008742D01*
X207511143Y-133114706D01*
X207434295Y-133156184D01*
X207340310Y-133195571D01*
X207210537Y-133240870D01*
X207066363Y-133284872D01*
X206994341Y-133304450D01*
X206840174Y-133341500D01*
X206715385Y-133362560D01*
X206593763Y-133370369D01*
X206449098Y-133367665D01*
X206407736Y-133365741D01*
X206118472Y-133334118D01*
X205871885Y-133270737D01*
X205671376Y-133176586D01*
X205608572Y-133133407D01*
X205419543Y-132956918D01*
X205250566Y-132736182D01*
X205110108Y-132484459D01*
X205006632Y-132215007D01*
X204993999Y-132170860D01*
X204966459Y-132028703D01*
X204948574Y-131850753D01*
X204940301Y-131653041D01*
X204941596Y-131451599D01*
X204952414Y-131262458D01*
X204972713Y-131101652D01*
X204997202Y-130999768D01*
X205066525Y-130823345D01*
X205164650Y-130615624D01*
X205285878Y-130385615D01*
X205424511Y-130142328D01*
X205574850Y-129894772D01*
X205731200Y-129651957D01*
X205887860Y-129422892D01*
X206039133Y-129216588D01*
X206179322Y-129042053D01*
X206302728Y-128908298D01*
X206344209Y-128869887D01*
X206446505Y-128786048D01*
X206540213Y-128725172D01*
X206637685Y-128683896D01*
X206751271Y-128658858D01*
X206893323Y-128646696D01*
X207076191Y-128644048D01*
X207170323Y-128644995D01*
X207386943Y-128650906D01*
X207607967Y-128661908D01*
X207819796Y-128676939D01*
X208008830Y-128694937D01*
X208161472Y-128714840D01*
X208233545Y-128728034D01*
X208285109Y-128757119D01*
X208299538Y-128789625D01*
X208290310Y-128816531D01*
X208253754Y-128826890D01*
X208176560Y-128823341D01*
X208145554Y-128820184D01*
X208066012Y-128812892D01*
X207940783Y-128802957D01*
X207782730Y-128791330D01*
X207604715Y-128778962D01*
X207447726Y-128768602D01*
X207209350Y-128755326D01*
X207019703Y-128750912D01*
X206869277Y-128757185D01*
X206748563Y-128775966D01*
X206648054Y-128809082D01*
X206558241Y-128858354D01*
X206469617Y-128925608D01*
X206424679Y-128964838D01*
X206300029Y-129091878D01*
X206157003Y-129262779D01*
X206001751Y-129468115D01*
X205840422Y-129698461D01*
X205679167Y-129944390D01*
X205524134Y-130196476D01*
X205381475Y-130445294D01*
X205257338Y-130681416D01*
X205157874Y-130895417D01*
X205144879Y-130926443D01*
X205112034Y-131009402D01*
X205089024Y-131080848D01*
X205074119Y-131154055D01*
X205065588Y-131242300D01*
X205061699Y-131358856D01*
X205060722Y-131516999D01*
X205060735Y-131571708D01*
X205061747Y-131747940D01*
X205065569Y-131879725D01*
X205073897Y-131981265D01*
X205088428Y-132066762D01*
X205110855Y-132150420D01*
X205140459Y-132239515D01*
X205220980Y-132442374D01*
X205315175Y-132616784D01*
X205437615Y-132788075D01*
X205499265Y-132863167D01*
X205669032Y-133019636D01*
X205877480Y-133137862D01*
X206117453Y-133216202D01*
X206381791Y-133253016D01*
X206663339Y-133246662D01*
X206952094Y-133196215D01*
X207217545Y-133115941D01*
X207439069Y-133017290D01*
X207630076Y-132894281D01*
X207631837Y-132892938D01*
X207724015Y-132828197D01*
X207813934Y-132773942D01*
X207854336Y-132753974D01*
X207909985Y-132717189D01*
X207989317Y-132647990D01*
X208083093Y-132556438D01*
X208182078Y-132452596D01*
X208277031Y-132346526D01*
X208358715Y-132248293D01*
X208417892Y-132167957D01*
X208445325Y-132115582D01*
X208446189Y-132109285D01*
X208447398Y-132080007D01*
X208457777Y-132063501D01*
X208487449Y-132060119D01*
X208546541Y-132070216D01*
X208645175Y-132094146D01*
X208744743Y-132119722D01*
X208868041Y-132150516D01*
X208955202Y-132166933D01*
X209026798Y-132169615D01*
X209103398Y-132159202D01*
X209205573Y-132136333D01*
X209214027Y-132134327D01*
X209485279Y-132059618D01*
X209704224Y-131974793D01*
X209876933Y-131875491D01*
X210009477Y-131757350D01*
X210107926Y-131616006D01*
X210178351Y-131447098D01*
X210180667Y-131439722D01*
X210200844Y-131371886D01*
X210216602Y-131308243D01*
X210228479Y-131240524D01*
X210237013Y-131160462D01*
X210242743Y-131059788D01*
X210246207Y-130930232D01*
X210247944Y-130763527D01*
X210248492Y-130551405D01*
X210248474Y-130398498D01*
X210245996Y-130046594D01*
X210238647Y-129745143D01*
X210225887Y-129486096D01*
X210207173Y-129261406D01*
X210181963Y-129063023D01*
X210149715Y-128882900D01*
X210144828Y-128859705D01*
X210116807Y-128765635D01*
X210070119Y-128680869D01*
X209993240Y-128586419D01*
X209952384Y-128542649D01*
X209844430Y-128411456D01*
X209722626Y-128232103D01*
X209590533Y-128012446D01*
X209451711Y-127760342D01*
X209309722Y-127483649D01*
X209168125Y-127190223D01*
X209030481Y-126887920D01*
X208900351Y-126584599D01*
X208781296Y-126288115D01*
X208676875Y-126006325D01*
X208590649Y-125747087D01*
X208526179Y-125518258D01*
X208487026Y-125327693D01*
X208483301Y-125300902D01*
X208486302Y-125192282D01*
X208512146Y-125139586D01*
X208580857Y-125045830D01*
X208661721Y-124913772D01*
X208745912Y-124759890D01*
X208824601Y-124600663D01*
X208888963Y-124452567D01*
X208909623Y-124397582D01*
X208978324Y-124183717D01*
X209042125Y-123949404D01*
X209097941Y-123709292D01*
X209142688Y-123478029D01*
X209173280Y-123270265D01*
X209186633Y-123100646D01*
X209186952Y-123080600D01*
X209185130Y-122985470D01*
X209177532Y-122886947D01*
X209162629Y-122778032D01*
X209138894Y-122651724D01*
X209104798Y-122501025D01*
X209058813Y-122318933D01*
X208999412Y-122098450D01*
X208925066Y-121832576D01*
X208879618Y-121672748D01*
X208830422Y-121499211D01*
X208785095Y-121337043D01*
X208746870Y-121197987D01*
X208718981Y-121093788D01*
X208705990Y-121042147D01*
X208679062Y-120937988D01*
X208644925Y-120821296D01*
X208634595Y-120788751D01*
X208590281Y-120652677D01*
X208739098Y-120456062D01*
X208864095Y-120278719D01*
X208963068Y-120106637D01*
X209048048Y-119916841D01*
X209110900Y-119745960D01*
X209148470Y-119627110D01*
X209172111Y-119521150D01*
X209184844Y-119407044D01*
X209189689Y-119263756D01*
X209190093Y-119194341D01*
X209188677Y-119043711D01*
X209182312Y-118934974D01*
X209168439Y-118851413D01*
X209144502Y-118776309D01*
X209116071Y-118710392D01*
X209055129Y-118596811D01*
X208975476Y-118472022D01*
X208916441Y-118391562D01*
X208836991Y-118301424D01*
X208752707Y-118231469D01*
X208644248Y-118167401D01*
X208552705Y-118122644D01*
X208270827Y-118006670D01*
X208008869Y-117934372D01*
X207751067Y-117902872D01*
X207481654Y-117909289D01*
X207418874Y-117915547D01*
X206971978Y-117993482D01*
X206539033Y-118126771D01*
X206465251Y-118155443D01*
X206321392Y-118207258D01*
X206162233Y-118255800D01*
X206021887Y-118290677D01*
X206020113Y-118291040D01*
X205918598Y-118310568D01*
X205840978Y-118319535D01*
X205768605Y-118316733D01*
X205682834Y-118300954D01*
X205565021Y-118270989D01*
X205518804Y-118258557D01*
X205397498Y-118227059D01*
X205234088Y-118186417D01*
X205043710Y-118140301D01*
X204841505Y-118092380D01*
X204656738Y-118049556D01*
X204286724Y-117970969D01*
X203957399Y-117915747D01*
X203655747Y-117883659D01*
X203368754Y-117874476D01*
X203083402Y-117887966D01*
X202786676Y-117923898D01*
X202465560Y-117982042D01*
X202340907Y-118008493D01*
X202066065Y-118072114D01*
X201834316Y-118134231D01*
X201630449Y-118199814D01*
X201439253Y-118273830D01*
X201245520Y-118361251D01*
X201212745Y-118377070D01*
X201106206Y-118428338D01*
X201019523Y-118465060D01*
X200942483Y-118486550D01*
X200864872Y-118492121D01*
X200776476Y-118481089D01*
X200667082Y-118452768D01*
X200526477Y-118406473D01*
X200344447Y-118341518D01*
X200267305Y-118313613D01*
X199902087Y-118188927D01*
X199577989Y-118095012D01*
X199286999Y-118030594D01*
X199021105Y-117994395D01*
X198772295Y-117985141D01*
X198532557Y-118001555D01*
X198415242Y-118018705D01*
X198174763Y-118073883D01*
X197970811Y-118149462D01*
X197946858Y-118161028D01*
X197841790Y-118217472D01*
X197772370Y-118269872D01*
X197719901Y-118336259D01*
X197668221Y-118429681D01*
X197630376Y-118507079D01*
X197605131Y-118573283D01*
X197589947Y-118643376D01*
X197582284Y-118732439D01*
X197579604Y-118855554D01*
X197579330Y-118957625D01*
X197584162Y-119149984D01*
X197601163Y-119319715D01*
X197634094Y-119481432D01*
X197686712Y-119649749D01*
X197762776Y-119839280D01*
X197861755Y-120055613D01*
X197959774Y-120245568D01*
X198052330Y-120388734D01*
X198141286Y-120490944D01*
X198276418Y-120622278D01*
X198260495Y-120876208D01*
X198247150Y-121007600D01*
X198221457Y-121152721D01*
X198180746Y-121323597D01*
X198122349Y-121532256D01*
X198093514Y-121628752D01*
X197988363Y-121981731D01*
X197901548Y-122288118D01*
X197831443Y-122556483D01*
X197776422Y-122795395D01*
X197734860Y-123013423D01*
X197705132Y-123219135D01*
X197685611Y-123421101D01*
X197674672Y-123627889D01*
X197670690Y-123848069D01*
X197670650Y-123857852D01*
X197670575Y-124044302D01*
X197672758Y-124184733D01*
X197678534Y-124291779D01*
X197689234Y-124378074D01*
X197706193Y-124456251D01*
X197730742Y-124538946D01*
X197748023Y-124591108D01*
X197820126Y-124774072D01*
X197911810Y-124960973D01*
X198013884Y-125135769D01*
X198117156Y-125282418D01*
X198192457Y-125366781D01*
X198265530Y-125455962D01*
X198297655Y-125539023D01*
X198284949Y-125604486D01*
X198276366Y-125614780D01*
X198263421Y-125653941D01*
X198252741Y-125732206D01*
X198248128Y-125801461D01*
X198235406Y-125918099D01*
X198208928Y-126057402D01*
X198178897Y-126173420D01*
X198137076Y-126297851D01*
X198072508Y-126470903D01*
X197987099Y-126687971D01*
X197882756Y-126944448D01*
X197761387Y-127235727D01*
X197624897Y-127557202D01*
X197475193Y-127904266D01*
X197314182Y-128272313D01*
X197249548Y-128418706D01*
X197178518Y-128582223D01*
X197128577Y-128707291D01*
X197095411Y-128808338D01*
X197074706Y-128899788D01*
X197062148Y-128996069D01*
X197056601Y-129063972D01*
X197052555Y-129186399D01*
X197054019Y-129349178D01*
X197060296Y-129542968D01*
X197070686Y-129758428D01*
X197084491Y-129986218D01*
X197101011Y-130216996D01*
X197119548Y-130441422D01*
X197139404Y-130650154D01*
X197159879Y-130833853D01*
X197180275Y-130983175D01*
X197199893Y-131088782D01*
X197210938Y-131127116D01*
X197248321Y-131175417D01*
X197330462Y-131235615D01*
X197461823Y-131310782D01*
X197527112Y-131344692D01*
X197669259Y-131414280D01*
X197834740Y-131490929D01*
X198010989Y-131569267D01*
X198185443Y-131643924D01*
X198345534Y-131709528D01*
X198478698Y-131760709D01*
X198572369Y-131792096D01*
X198576558Y-131793259D01*
X198662878Y-131816411D01*
X198766599Y-131843728D01*
X198790774Y-131850022D01*
X198891949Y-131892608D01*
X199010512Y-131974594D01*
X199118727Y-132067909D01*
X199379424Y-132274949D01*
X199678976Y-132457219D01*
X199999307Y-132604098D01*
X200084538Y-132635448D01*
X200344823Y-132708957D01*
X200581053Y-132735856D01*
X200805897Y-132714865D01*
X201032027Y-132644707D01*
X201272110Y-132524102D01*
X201289607Y-132513831D01*
X201488375Y-132381924D01*
X201647408Y-132246530D01*
X201760091Y-132113826D01*
X201805121Y-132032472D01*
X201857743Y-131884776D01*
X201910159Y-131696406D01*
X201958264Y-131485219D01*
X201997956Y-131269073D01*
X202023317Y-131083000D01*
X202035815Y-130957977D01*
X202042043Y-130855240D01*
X202041130Y-130759410D01*
X202032204Y-130655107D01*
X202014396Y-130526950D01*
X201986834Y-130359562D01*
X201980142Y-130320413D01*
X201918836Y-129999614D01*
X201853631Y-129732231D01*
X201782946Y-129513067D01*
X201705199Y-129336924D01*
X201654431Y-129249614D01*
X201619285Y-129197636D01*
X201583796Y-129154307D01*
X201539974Y-129114437D01*
X201479832Y-129072841D01*
X201395382Y-129024330D01*
X201278634Y-128963717D01*
X201121601Y-128885814D01*
X201010352Y-128831367D01*
X200833059Y-128743404D01*
X200662356Y-128656248D01*
X200509573Y-128575866D01*
X200386037Y-128508228D01*
X200303078Y-128459304D01*
X200297847Y-128455930D01*
X200199208Y-128395712D01*
X200120537Y-128363076D01*
X200035186Y-128349993D01*
X199940415Y-128348229D01*
X199768728Y-128365276D01*
X199559166Y-128415146D01*
X199308741Y-128498703D01*
X199021246Y-128613913D01*
X198873491Y-128669690D01*
X198749011Y-128702557D01*
X198655746Y-128711456D01*
X198601637Y-128695326D01*
X198591224Y-128671277D01*
X198617361Y-128638467D01*
X198683198Y-128613430D01*
X198691959Y-128611648D01*
X198771729Y-128589489D01*
X198879288Y-128550566D01*
X198977929Y-128509180D01*
X199256686Y-128393759D01*
X199513735Y-128307944D01*
X199740908Y-128254109D01*
X199922080Y-128234741D01*
X200026199Y-128234526D01*
X200104374Y-128242428D01*
X200175890Y-128264180D01*
X200260035Y-128305514D01*
X200367514Y-128367130D01*
X200473539Y-128426248D01*
X200618141Y-128502640D01*
X200786722Y-128588812D01*
X200964683Y-128677267D01*
X201085727Y-128735912D01*
X201268191Y-128824561D01*
X201406168Y-128895352D01*
X201508916Y-128953934D01*
X201585693Y-129005951D01*
X201645759Y-129057050D01*
X201692157Y-129105756D01*
X201780067Y-129227312D01*
X201859042Y-129384250D01*
X201930916Y-129581903D01*
X201997526Y-129825603D01*
X202060706Y-130120682D01*
X202083231Y-130241998D01*
X202115864Y-130426677D01*
X202138638Y-130567676D01*
X202152487Y-130678973D01*
X202158349Y-130774546D01*
X202157161Y-130868373D01*
X202149857Y-130974433D01*
X202139621Y-131083827D01*
X202107246Y-131334699D01*
X202061076Y-131580622D01*
X202004578Y-131807153D01*
X201941221Y-131999848D01*
X201893418Y-132109303D01*
X201796932Y-132252427D01*
X201655188Y-132398520D01*
X201479939Y-132536728D01*
X201327211Y-132632260D01*
X201060446Y-132758145D01*
X200802447Y-132829485D01*
X200543204Y-132847309D01*
X200272709Y-132812646D01*
X200080085Y-132760536D01*
X199845090Y-132668862D01*
X199594270Y-132542879D01*
X199348030Y-132394410D01*
X199126776Y-132235277D01*
X199025115Y-132149294D01*
X198914231Y-132054409D01*
X198824974Y-131993709D01*
X198740550Y-131957052D01*
X198681042Y-131941468D01*
X198579155Y-131912894D01*
X198437811Y-131864063D01*
X198270336Y-131800307D01*
X198090058Y-131726961D01*
X197910301Y-131649359D01*
X197744394Y-131572835D01*
X197675385Y-131538956D01*
X197574491Y-131490802D01*
X197490720Y-131455532D01*
X197440401Y-131439947D01*
X197437189Y-131439722D01*
X197405448Y-131468645D01*
X197381634Y-131554756D01*
X197376316Y-131589918D01*
X197358471Y-131692331D01*
X197329230Y-131808911D01*
X197286201Y-131946432D01*
X197226992Y-132111668D01*
X197149210Y-132311392D01*
X197050463Y-132552380D01*
X196963197Y-132759584D01*
X196831309Y-133070492D01*
X196719960Y-133334039D01*
X196626546Y-133556765D01*
X196548461Y-133745210D01*
X196483100Y-133905914D01*
X196427860Y-134045417D01*
X196380134Y-134170260D01*
X196337318Y-134286983D01*
X196296807Y-134402126D01*
X196255996Y-134522230D01*
X196229562Y-134601569D01*
X196082245Y-135082696D01*
X195970594Y-135534471D01*
X195892040Y-135972028D01*
X195844016Y-136410502D01*
X195823953Y-136865030D01*
X195822996Y-136997805D01*
X195725344Y-136997805D01*
X195724532Y-136803054D01*
X195736994Y-136576624D01*
X195742033Y-136520048D01*
X195764977Y-136319006D01*
X195797663Y-136087966D01*
X195837491Y-135841362D01*
X195881860Y-135593631D01*
X195928170Y-135359207D01*
X195973820Y-135152526D01*
X196016211Y-134988023D01*
X196020927Y-134971897D01*
X196089629Y-134740856D01*
X196016655Y-134608130D01*
X195856825Y-134376590D01*
X195651144Y-134174409D01*
X195407816Y-134008171D01*
X195135048Y-133884457D01*
X195099449Y-133872362D01*
X194835832Y-133813757D01*
X194548111Y-133799638D01*
X194250471Y-133830048D01*
X194074364Y-133869321D01*
X193888608Y-133923340D01*
X193740930Y-133977155D01*
X193611517Y-134040010D01*
X193480552Y-134121148D01*
X193374669Y-134195716D01*
X193149601Y-134395031D01*
X192968315Y-134632225D01*
X192834509Y-134902344D01*
X192822389Y-134935140D01*
X192788702Y-135036814D01*
X192766354Y-135128692D01*
X192753050Y-135227877D01*
X192746496Y-135351471D01*
X192744399Y-135516579D01*
X192744399Y-135516628D01*
X192604179Y-135516628D01*
X192604183Y-135516579D01*
X192629522Y-135210983D01*
X192706706Y-134906375D01*
X192830774Y-134623871D01*
X192997987Y-134369876D01*
X193204604Y-134150790D01*
X193446886Y-133973018D01*
X193544684Y-133919064D01*
X193668170Y-133867802D01*
X193832759Y-133815110D01*
X194021150Y-133765037D01*
X194216040Y-133721629D01*
X194400129Y-133688934D01*
X194556115Y-133671000D01*
X194614347Y-133668822D01*
X194904058Y-133696827D01*
X195192532Y-133777135D01*
X195468895Y-133904184D01*
X195722276Y-134072414D01*
X195941802Y-134276262D01*
X196042567Y-134399365D01*
X196116150Y-134499307D01*
X196214296Y-134223383D01*
X196251972Y-134122889D01*
X196308728Y-133978640D01*
X196380445Y-133800756D01*
X196463003Y-133599362D01*
X196552284Y-133384578D01*
X196644168Y-133166528D01*
X196648833Y-133155542D01*
X196777070Y-132852725D01*
X196883979Y-132597826D01*
X196971755Y-132385023D01*
X197042592Y-132208496D01*
X197098685Y-132062424D01*
X197142228Y-131940987D01*
X197175416Y-131838364D01*
X197200443Y-131748733D01*
X197219504Y-131666276D01*
X197229379Y-131615704D01*
X197269731Y-131395727D01*
X197169282Y-131307736D01*
X197129464Y-131271295D01*
X197100628Y-131235971D01*
X197079530Y-131190851D01*
X197062926Y-131125025D01*
X197047571Y-131027578D01*
X197030222Y-130887601D01*
X197021050Y-130809122D01*
X196994127Y-130550108D01*
X196970711Y-130270861D01*
X196951511Y-129984860D01*
X196937238Y-129705586D01*
X196928600Y-129446519D01*
X196926307Y-129221139D01*
X196929627Y-129071631D01*
X196934562Y-128970418D01*
X196941385Y-128887292D01*
X196953170Y-128811808D01*
X196972993Y-128733521D01*
X197003929Y-128641984D01*
X197049053Y-128526752D01*
X197111440Y-128377379D01*
X197184348Y-128206389D01*
X197275569Y-127993688D01*
X197376806Y-127758816D01*
X197479349Y-127521907D01*
X197574485Y-127303096D01*
X197638136Y-127157505D01*
X197768968Y-126855263D01*
X197875545Y-126599116D01*
X197959887Y-126382717D01*
X198024020Y-126199717D01*
X198069965Y-126043767D01*
X198099745Y-125908519D01*
X198115385Y-125787623D01*
X198118906Y-125674732D01*
X198118271Y-125650770D01*
X198109713Y-125541729D01*
X198087828Y-125466102D01*
X198043779Y-125398814D01*
X198019405Y-125370231D01*
X197870113Y-125167217D01*
X197737339Y-124916990D01*
X197626576Y-124629950D01*
X197623509Y-124620438D01*
X197529495Y-124327136D01*
X197543556Y-123740531D01*
X197549450Y-123547653D01*
X197558338Y-123373370D01*
X197571746Y-123210019D01*
X197591203Y-123049933D01*
X197618236Y-122885449D01*
X197654374Y-122708900D01*
X197701143Y-122512624D01*
X197760072Y-122288954D01*
X197832688Y-122030226D01*
X197920519Y-121728775D01*
X197993700Y-121482101D01*
X198056559Y-121257161D01*
X198101334Y-121066158D01*
X198126249Y-120917160D01*
X198130725Y-120860262D01*
X198131847Y-120757979D01*
X198120942Y-120690668D01*
X198088983Y-120634717D01*
X198026941Y-120566513D01*
X198012935Y-120552186D01*
X197929414Y-120447782D01*
X197836194Y-120298760D01*
X197739517Y-120116954D01*
X197645624Y-119914201D01*
X197560760Y-119702334D01*
X197552029Y-119678386D01*
X197483419Y-119440705D01*
X197441690Y-119191046D01*
X197427032Y-118942606D01*
X197439630Y-118708580D01*
X197479674Y-118502166D01*
X197533307Y-118362403D01*
X197619604Y-118238265D01*
X197742331Y-118119115D01*
X197881089Y-118024485D01*
X197892612Y-118018383D01*
X198005457Y-117974726D01*
X198161427Y-117934583D01*
X198344991Y-117900619D01*
X198540620Y-117875493D01*
X198732786Y-117861870D01*
X198815293Y-117860200D01*
X198992419Y-117864725D01*
X199168249Y-117880060D01*
X199351166Y-117908146D01*
X199549556Y-117950923D01*
X199771802Y-118010330D01*
X200026289Y-118088308D01*
X200321403Y-118186797D01*
X200508505Y-118251974D01*
X200885947Y-118384990D01*
X201080445Y-118287885D01*
X201287274Y-118190290D01*
X201487642Y-118109055D01*
X201699772Y-118037791D01*
X201941885Y-117970106D01*
X202095863Y-117931743D01*
X202396381Y-117862472D01*
X202665989Y-117808622D01*
X202913911Y-117770397D01*
X203149371Y-117748000D01*
X203381594Y-117741633D01*
X203619805Y-117751501D01*
G37*
%TD.AperFunction*%
%TD*%
D12*
%TO.P,J1,8,Pin_8_8*%
%TO.N,/VCC*%
X161340000Y-115000000D03*
%TO.P,J1,7,Pin_7_7*%
%TO.N,GND*%
X163880000Y-115000000D03*
%TO.P,J1,6,Pin_6_6*%
%TO.N,/CS*%
X166420000Y-115000000D03*
%TO.P,J1,5,Pin_5_5*%
%TO.N,/RESET*%
X168960000Y-115000000D03*
%TO.P,J1,4,Pin_4_4*%
%TO.N,/A0*%
X171500000Y-115000000D03*
%TO.P,J1,3,Pin_3_3*%
%TO.N,/SDA*%
X174040000Y-115000000D03*
%TO.P,J1,2,Pin_2_2*%
%TO.N,/SCK*%
X176580000Y-115000000D03*
D13*
%TO.P,J1,1,Pin_1_1*%
%TO.N,/3V3*%
X179120000Y-115000000D03*
%TD*%
D14*
%TO.P,U1,1,SDO/SA0_1*%
%TO.N,GND*%
X162662500Y-92062500D03*
%TO.P,U1,2,SDX_2*%
X163162500Y-92062500D03*
%TO.P,U1,3,SCX_3*%
X163662500Y-92062500D03*
%TO.P,U1,4,INT1_4*%
%TO.N,unconnected-(U1-INT1-Pad4)*%
X164162500Y-92062500D03*
D15*
%TO.P,U1,5,VDDIO_5*%
%TO.N,/3V3*%
X164325000Y-91400000D03*
%TO.P,U1,6,GND_6*%
%TO.N,GND*%
X164325000Y-90900000D03*
%TO.P,U1,7,GND_7*%
X164325000Y-90400000D03*
D14*
%TO.P,U1,8,VDD_8*%
%TO.N,/3V3*%
X164162500Y-89737500D03*
%TO.P,U1,9,INT2_9*%
%TO.N,unconnected-(U1-INT2-Pad9)*%
X163662500Y-89737500D03*
%TO.P,U1,10,NC_10*%
%TO.N,unconnected-(U1-NC-Pad10)*%
X163162500Y-89737500D03*
%TO.P,U1,11,NC_11*%
%TO.N,unconnected-(U1-NC-Pad11)*%
X162662500Y-89737500D03*
D15*
%TO.P,U1,12,CS_12*%
%TO.N,/3V3*%
X162500000Y-90400000D03*
%TO.P,U1,13,SCL_13*%
%TO.N,/SCL*%
X162500000Y-90900000D03*
%TO.P,U1,14,SDA_14*%
%TO.N,/I2CSDA*%
X162500000Y-91400000D03*
%TD*%
D16*
%TO.P,C2,1*%
%TO.N,/3V3*%
X165800000Y-91400000D03*
%TO.P,C2,2*%
%TO.N,GND*%
X166760000Y-91400000D03*
%TD*%
%TO.P,C1,1*%
%TO.N,/3V3*%
X165900000Y-88900000D03*
%TO.P,C1,2*%
%TO.N,GND*%
X166860000Y-88900000D03*
%TD*%
D17*
%TO.P,U2,1,GPIO0_1*%
%TO.N,Net-(GND1-GPIO0)*%
X128060000Y-59970000D03*
D18*
X128860000Y-59970000D03*
D19*
%TO.P,U2,2,GPIO1_2*%
%TO.N,Net-(GND1-GPIO1)*%
X128060000Y-62510000D03*
D20*
X128860000Y-62510000D03*
D21*
%TO.P,U2,3,GND_3*%
%TO.N,GND*%
X128060000Y-65050000D03*
D22*
X128860000Y-65050000D03*
D19*
%TO.P,U2,4,GPIO2_4*%
%TO.N,Net-(GND1-GPIO2)*%
X128060000Y-67590000D03*
D20*
X128860000Y-67590000D03*
D19*
%TO.P,U2,5,GPIO3_5*%
%TO.N,Net-(GND1-GPIO3)*%
X128060000Y-70130000D03*
D20*
X128860000Y-70130000D03*
D19*
%TO.P,U2,6,GPIO4_6*%
%TO.N,Net-(GND1-GPIO4)*%
X128060000Y-72670000D03*
D20*
X128860000Y-72670000D03*
D19*
%TO.P,U2,7,GPIO5_7*%
%TO.N,Net-(GND1-GPIO5)*%
X128060000Y-75210000D03*
D20*
X128860000Y-75210000D03*
D21*
%TO.P,U2,8,GND_8*%
%TO.N,GND*%
X128060000Y-77750000D03*
D22*
X128860000Y-77750000D03*
D19*
%TO.P,U2,9,GPIO6_9*%
%TO.N,Net-(GND1-GPIO6)*%
X128060000Y-80290000D03*
D20*
X128860000Y-80290000D03*
D19*
%TO.P,U2,10,GPIO7_10*%
%TO.N,Net-(GND1-GPIO7)*%
X128060000Y-82830000D03*
D20*
X128860000Y-82830000D03*
D19*
%TO.P,U2,11,GPIO8_11*%
%TO.N,unconnected-(GND1-GPIO8-Pad11)_1*%
X128060000Y-85370000D03*
D20*
%TO.N,unconnected-(GND1-GPIO8-Pad11)*%
X128860000Y-85370000D03*
D19*
%TO.P,U2,12,GPIO9_12*%
%TO.N,unconnected-(GND1-GPIO9-Pad12)*%
X128060000Y-87910000D03*
D20*
%TO.N,unconnected-(GND1-GPIO9-Pad12)_1*%
X128860000Y-87910000D03*
D21*
%TO.P,U2,13,GND_13*%
%TO.N,GND*%
X128060000Y-90450000D03*
D22*
X128860000Y-90450000D03*
D19*
%TO.P,U2,14,GPIO10_14*%
%TO.N,/SCK*%
X128060000Y-92990000D03*
D20*
X128860000Y-92990000D03*
D19*
%TO.P,U2,15,GPIO11_15*%
%TO.N,/SDA*%
X128060000Y-95530000D03*
D20*
X128860000Y-95530000D03*
D19*
%TO.P,U2,16,GPIO12_16*%
%TO.N,Net-(GND1-GPIO12)*%
X128060000Y-98070000D03*
D20*
X128860000Y-98070000D03*
D19*
%TO.P,U2,17,GPIO13_17*%
%TO.N,Net-(GND1-GPIO13)*%
X128060000Y-100610000D03*
D20*
X128860000Y-100610000D03*
D21*
%TO.P,U2,18,GND_18*%
%TO.N,GND*%
X128060000Y-103150000D03*
D22*
X128860000Y-103150000D03*
D19*
%TO.P,U2,19,GPIO14_19*%
%TO.N,Net-(GND1-GPIO14)*%
X128060000Y-105690000D03*
D20*
X128860000Y-105690000D03*
D19*
%TO.P,U2,20,GPIO15_20*%
%TO.N,Net-(GND1-GPIO15)*%
X128060000Y-108230000D03*
D20*
X128860000Y-108230000D03*
%TO.P,U2,21,GPIO16_21*%
%TO.N,/A0*%
X146640000Y-108230000D03*
D19*
X147440000Y-108230000D03*
D20*
%TO.P,U2,22,GPIO17_22*%
%TO.N,/RESET*%
X146640000Y-105690000D03*
D19*
X147440000Y-105690000D03*
D23*
%TO.P,U2,23,GND_23*%
%TO.N,GND*%
X146640000Y-103150000D03*
D17*
X147440000Y-103150000D03*
D20*
%TO.P,U2,24,GPIO18_24*%
%TO.N,/CS*%
X146640000Y-100610000D03*
D19*
X147440000Y-100610000D03*
D20*
%TO.P,U2,25,GPIO19_25*%
%TO.N,unconnected-(GND1-GPIO19-Pad25)_1*%
X146640000Y-98070000D03*
D19*
%TO.N,unconnected-(GND1-GPIO19-Pad25)*%
X147440000Y-98070000D03*
D20*
%TO.P,U2,26,GPIO20_26*%
%TO.N,/I2CSDA*%
X146640000Y-95530000D03*
D19*
X147440000Y-95530000D03*
D20*
%TO.P,U2,27,GPIO21_27*%
%TO.N,/SCL*%
X146640000Y-92990000D03*
D19*
X147440000Y-92990000D03*
D23*
%TO.P,U2,28,GND_28*%
%TO.N,GND*%
X146640000Y-90450000D03*
D17*
X147440000Y-90450000D03*
D20*
%TO.P,U2,29,GPIO22_29*%
%TO.N,Net-(GND1-GPIO22)*%
X146640000Y-87910000D03*
D19*
X147440000Y-87910000D03*
D20*
%TO.P,U2,30,RUN_30*%
%TO.N,Net-(GND1-RUN)*%
X146640000Y-85370000D03*
D19*
X147440000Y-85370000D03*
D20*
%TO.P,U2,31,GPIO26_ADC0_31*%
%TO.N,unconnected-(GND1-GPIO26_ADC0-Pad31)_1*%
X146640000Y-82830000D03*
D19*
%TO.N,unconnected-(GND1-GPIO26_ADC0-Pad31)*%
X147440000Y-82830000D03*
D20*
%TO.P,U2,32,GPIO27_ADC1_32*%
%TO.N,unconnected-(GND1-GPIO27_ADC1-Pad32)*%
X146640000Y-80290000D03*
D19*
%TO.N,unconnected-(GND1-GPIO27_ADC1-Pad32)_1*%
X147440000Y-80290000D03*
D23*
%TO.P,U2,33,AGND_33*%
%TO.N,GND*%
X146640000Y-77750000D03*
D17*
X147440000Y-77750000D03*
D20*
%TO.P,U2,34,GPIO28_ADC2_34*%
%TO.N,Net-(GND1-GPIO28_ADC2)*%
X146640000Y-75210000D03*
D19*
X147440000Y-75210000D03*
D20*
%TO.P,U2,35,ADC_VREF_35*%
%TO.N,unconnected-(GND1-ADC_VREF-Pad35)_1*%
X146640000Y-72670000D03*
D19*
%TO.N,unconnected-(GND1-ADC_VREF-Pad35)*%
X147440000Y-72670000D03*
D20*
%TO.P,U2,36,3V3_36*%
%TO.N,/3V3*%
X146640000Y-70130000D03*
D19*
X147440000Y-70130000D03*
D20*
%TO.P,U2,37,3V3_EN_37*%
%TO.N,unconnected-(GND1-3V3_EN-Pad37)*%
X146640000Y-67590000D03*
D19*
%TO.N,unconnected-(GND1-3V3_EN-Pad37)_1*%
X147440000Y-67590000D03*
D23*
%TO.P,U2,38,GND_38*%
%TO.N,GND*%
X146640000Y-65050000D03*
D17*
X147440000Y-65050000D03*
D20*
%TO.P,U2,39,VSYS_39*%
%TO.N,unconnected-(GND1-VSYS-Pad39)*%
X146640000Y-62510000D03*
D19*
X147440000Y-62510000D03*
D20*
%TO.P,U2,40,VBUS_40*%
%TO.N,/VCC*%
X146640000Y-59970000D03*
D19*
X147440000Y-59970000D03*
%TD*%
D24*
%TO.P,SW11,1,1_1*%
%TO.N,Net-(GND1-GPIO14)*%
X152500000Y-137500000D03*
X152500000Y-125000000D03*
%TO.P,SW11,2,2_2*%
%TO.N,GND*%
X157500000Y-137500000D03*
X157500000Y-125000000D03*
%TD*%
D25*
%TO.P,SW4,1,1_1*%
%TO.N,Net-(GND1-GPIO3)*%
X209000000Y-107750000D03*
X221500000Y-107750000D03*
%TO.P,SW4,2,2_2*%
%TO.N,GND*%
X209000000Y-112750000D03*
X221500000Y-112750000D03*
%TD*%
D26*
%TO.P,S2,1,A_1*%
%TO.N,GND*%
X144675000Y-113500000D03*
%TO.P,S2,2,B_2*%
%TO.N,Net-(GND1-RUN)*%
X148825000Y-113500000D03*
%TD*%
D27*
%TO.P,R1,1*%
%TO.N,/3V3*%
X154750000Y-76390000D03*
%TO.P,R1,2*%
%TO.N,Net-(D1-A)*%
X154750000Y-75750000D03*
%TD*%
D25*
%TO.P,SW3,1,1_1*%
%TO.N,Net-(GND1-GPIO2)*%
X224750000Y-92750000D03*
X237250000Y-92750000D03*
%TO.P,SW3,2,2_2*%
%TO.N,GND*%
X224750000Y-97750000D03*
X237250000Y-97750000D03*
%TD*%
D26*
%TO.P,S1,1,A_1*%
%TO.N,Net-(GND1-GPIO22)*%
X138425000Y-113500000D03*
%TO.P,S1,2,B_2*%
%TO.N,GND*%
X142575000Y-113500000D03*
%TD*%
D25*
%TO.P,SW2,1,1_1*%
%TO.N,Net-(GND1-GPIO1)*%
X193250000Y-92750000D03*
X205750000Y-92750000D03*
%TO.P,SW2,2,2_2*%
%TO.N,GND*%
X193250000Y-97750000D03*
X205750000Y-97750000D03*
%TD*%
D24*
%TO.P,SW13,1,1_1*%
%TO.N,Net-(GND1-GPIO28_ADC2)*%
X182500000Y-137500000D03*
X182500000Y-125000000D03*
%TO.P,SW13,2,2_2*%
%TO.N,GND*%
X187500000Y-137500000D03*
X187500000Y-125000000D03*
%TD*%
D25*
%TO.P,SW8,1,1_1*%
%TO.N,Net-(GND1-GPIO7)*%
X86000000Y-107750000D03*
X98500000Y-107750000D03*
%TO.P,SW8,2,2_2*%
%TO.N,GND*%
X86000000Y-112750000D03*
X98500000Y-112750000D03*
%TD*%
D24*
%TO.P,SW9,1,1_1*%
%TO.N,Net-(GND1-GPIO12)*%
X122250000Y-137500000D03*
X122250000Y-125000000D03*
%TO.P,SW9,2,2_2*%
%TO.N,GND*%
X127250000Y-137500000D03*
X127250000Y-125000000D03*
%TD*%
D28*
%TO.P,R3,1*%
%TO.N,/I2CSDA*%
X152000000Y-95325000D03*
%TO.P,R3,2*%
%TO.N,/3V3*%
X152000000Y-93675000D03*
%TD*%
D29*
%TO.P,R2,1*%
%TO.N,/SCL*%
X153500000Y-92675000D03*
%TO.P,R2,2*%
%TO.N,/3V3*%
X153500000Y-94325000D03*
%TD*%
D24*
%TO.P,SW12,1,1_1*%
%TO.N,Net-(GND1-GPIO15)*%
X167500000Y-137500000D03*
X167500000Y-125000000D03*
%TO.P,SW12,2,2_2*%
%TO.N,GND*%
X172500000Y-137500000D03*
X172500000Y-125000000D03*
%TD*%
D30*
%TO.P,D1,1,K_1*%
%TO.N,/3V3*%
X152500000Y-76500000D03*
%TO.P,D1,2,A_2*%
%TO.N,Net-(D1-A)*%
X152500000Y-74925000D03*
%TD*%
D24*
%TO.P,SW10,1,1_1*%
%TO.N,Net-(GND1-GPIO13)*%
X137500000Y-137500000D03*
X137500000Y-125000000D03*
%TO.P,SW10,2,2_2*%
%TO.N,GND*%
X142500000Y-137500000D03*
X142500000Y-125000000D03*
%TD*%
D25*
%TO.P,SW5,1,1_1*%
%TO.N,Net-(GND1-GPIO4)*%
X86000000Y-77750000D03*
X98500000Y-77750000D03*
%TO.P,SW5,2,2_2*%
%TO.N,GND*%
X86000000Y-82750000D03*
X98500000Y-82750000D03*
%TD*%
%TO.P,SW7,1,1_1*%
%TO.N,Net-(GND1-GPIO6)*%
X101750000Y-92750000D03*
X114250000Y-92750000D03*
%TO.P,SW7,2,2_2*%
%TO.N,GND*%
X101750000Y-97750000D03*
X114250000Y-97750000D03*
%TD*%
%TO.P,SW1,1,1_1*%
%TO.N,Net-(GND1-GPIO0)*%
X209000000Y-77750000D03*
X221500000Y-77750000D03*
%TO.P,SW1,2,2_2*%
%TO.N,GND*%
X209000000Y-82750000D03*
X221500000Y-82750000D03*
%TD*%
%TO.P,SW6,1,1_1*%
%TO.N,Net-(GND1-GPIO5)*%
X70250000Y-92750000D03*
X82750000Y-92750000D03*
%TO.P,SW6,2,2_2*%
%TO.N,GND*%
X70250000Y-97750000D03*
X82750000Y-97750000D03*
%TD*%
D31*
%TO.N,GND*%
X165400000Y-89900000D03*
X166000000Y-90300000D03*
X168900000Y-88900000D03*
X168200000Y-92300000D03*
X161700000Y-93500000D03*
X163200000Y-94600000D03*
X164400000Y-93600000D03*
%TO.N,Net-(GND1-GPIO0)*%
X149500000Y-63500000D03*
X151750000Y-63500000D03*
%TO.N,Net-(GND1-GPIO1)*%
X137750000Y-66250000D03*
%TO.N,GND*%
X142500000Y-115500000D03*
X124500000Y-102837500D03*
%TO.N,Net-(GND1-GPIO2)*%
X149500000Y-68250000D03*
X154000000Y-68000000D03*
%TO.N,Net-(GND1-GPIO22)*%
X122750000Y-100250000D03*
X135750000Y-114100000D03*
%TO.N,Net-(GND1-RUN)*%
X133500000Y-111250000D03*
X125250000Y-84250000D03*
%TO.N,/3V3*%
X160750000Y-97750000D03*
X167250000Y-78500000D03*
X175500000Y-90500000D03*
X156000000Y-94250000D03*
%TO.N,/VCC*%
X151000000Y-101750000D03*
X151000000Y-71500000D03*
%TD*%
%TO.N,/3V3*%
D32*
X161900000Y-90400000D02*
X162500000Y-90400000D01*
X161400000Y-89300000D02*
X161400000Y-89900000D01*
X161400000Y-89900000D02*
X161900000Y-90400000D01*
X161800000Y-88900000D02*
X161400000Y-89300000D01*
X165200000Y-88900000D02*
X161800000Y-88900000D01*
X165000000Y-88900000D02*
X165200000Y-88900000D01*
%TO.N,GND*%
X164600000Y-90400000D02*
X165100000Y-89900000D01*
X165100000Y-89900000D02*
X165400000Y-89900000D01*
X164325000Y-90400000D02*
X164600000Y-90400000D01*
X165000000Y-90900000D02*
X164325000Y-90900000D01*
X165600000Y-90300000D02*
X165000000Y-90900000D01*
X166000000Y-90300000D02*
X165600000Y-90300000D01*
X168900000Y-88900000D02*
X169000000Y-88900000D01*
X166860000Y-88900000D02*
X168900000Y-88900000D01*
X167300000Y-91400000D02*
X168200000Y-92300000D01*
X166760000Y-91400000D02*
X167300000Y-91400000D01*
%TO.N,/3V3*%
X172700000Y-95050000D02*
X172020000Y-95730000D01*
X172700000Y-92700000D02*
X172700000Y-95050000D01*
X169800000Y-89800000D02*
X172700000Y-92700000D01*
X166800000Y-89800000D02*
X169800000Y-89800000D01*
X165900000Y-88900000D02*
X166800000Y-89800000D01*
X165200000Y-88900000D02*
X165900000Y-88900000D01*
X164162500Y-89737500D02*
X165000000Y-88900000D01*
D33*
X164050000Y-98650000D02*
X165800000Y-96900000D01*
X161650000Y-98650000D02*
X164050000Y-98650000D01*
X165800000Y-96900000D02*
X165800000Y-94400000D01*
X161650000Y-98650000D02*
X160750000Y-97750000D01*
D32*
X165800000Y-94400000D02*
X165800000Y-91400000D01*
X164325000Y-91400000D02*
X165800000Y-91400000D01*
%TO.N,GND*%
X163662500Y-92862500D02*
X164400000Y-93600000D01*
X163662500Y-92062500D02*
X163662500Y-92862500D01*
X163200000Y-94600000D02*
X163162500Y-94562500D01*
X163162500Y-92062500D02*
X163162500Y-94562500D01*
X162662500Y-92537500D02*
X161700000Y-93500000D01*
X162662500Y-92062500D02*
X162662500Y-92537500D01*
%TO.N,/I2CSDA*%
X161100000Y-91400000D02*
X162500000Y-91400000D01*
X157175000Y-95325000D02*
X161100000Y-91400000D01*
X152000000Y-95325000D02*
X157175000Y-95325000D01*
%TO.N,/SCL*%
X159850000Y-90900000D02*
X162500000Y-90900000D01*
X158075000Y-92675000D02*
X159850000Y-90900000D01*
X153500000Y-92675000D02*
X158075000Y-92675000D01*
%TO.N,Net-(GND1-GPIO0)*%
X187250000Y-77750000D02*
X209000000Y-77750000D01*
X149055000Y-63945000D02*
X149500000Y-63500000D01*
X173000000Y-63500000D02*
X187250000Y-77750000D01*
X128860000Y-59657500D02*
X129907500Y-59657500D01*
X144000000Y-63945000D02*
X149055000Y-63945000D01*
X151750000Y-63500000D02*
X173000000Y-63500000D01*
X129907500Y-59657500D02*
X135000000Y-64750000D01*
X135000000Y-64750000D02*
X143195000Y-64750000D01*
X221500000Y-77750000D02*
X209000000Y-77750000D01*
X143195000Y-64750000D02*
X144000000Y-63945000D01*
%TO.N,Net-(GND1-GPIO1)*%
X149250000Y-71250000D02*
X142750000Y-71250000D01*
X185500000Y-92750000D02*
X165000000Y-72250000D01*
X142750000Y-71250000D02*
X137750000Y-66250000D01*
X165000000Y-72250000D02*
X150250000Y-72250000D01*
X193250000Y-92750000D02*
X185500000Y-92750000D01*
X150250000Y-72250000D02*
X149250000Y-71250000D01*
X193250000Y-92750000D02*
X205750000Y-92750000D01*
%TO.N,GND*%
X124500000Y-102837500D02*
X128060000Y-102837500D01*
X144675000Y-114325000D02*
X143500000Y-115500000D01*
X143500000Y-115500000D02*
X142500000Y-115500000D01*
X142575000Y-113500000D02*
X142575000Y-115425000D01*
X114250000Y-97750000D02*
X114250000Y-98500000D01*
X142575000Y-115425000D02*
X142500000Y-115500000D01*
X82750000Y-97750000D02*
X83250000Y-97750000D01*
X144675000Y-113500000D02*
X144675000Y-114325000D01*
%TO.N,Net-(GND1-GPIO2)*%
X224750000Y-92750000D02*
X237250000Y-92750000D01*
X222250000Y-86750000D02*
X224750000Y-89250000D01*
X177250000Y-81000000D02*
X183000000Y-86750000D01*
X224750000Y-89250000D02*
X224750000Y-92750000D01*
X154000000Y-68000000D02*
X168000000Y-68000000D01*
X130722500Y-67277500D02*
X132500000Y-65500000D01*
X168000000Y-68000000D02*
X177250000Y-77250000D01*
X145500000Y-69000000D02*
X148750000Y-69000000D01*
X177250000Y-77250000D02*
X177250000Y-81000000D01*
X132500000Y-65500000D02*
X142000000Y-65500000D01*
X142000000Y-65500000D02*
X145500000Y-69000000D01*
X183000000Y-86750000D02*
X222250000Y-86750000D01*
X148750000Y-69000000D02*
X149500000Y-68250000D01*
X128860000Y-67277500D02*
X130722500Y-67277500D01*
%TO.N,Net-(GND1-GPIO3)*%
X209000000Y-107750000D02*
X189250000Y-107750000D01*
X133992500Y-75750000D02*
X128060000Y-69817500D01*
X141750000Y-75750000D02*
X133992500Y-75750000D01*
X184500000Y-93000000D02*
X165250000Y-73750000D01*
X150500000Y-74000000D02*
X143500000Y-74000000D01*
X209000000Y-107750000D02*
X221500000Y-107750000D01*
X150750000Y-73750000D02*
X150500000Y-74000000D01*
X143500000Y-74000000D02*
X141750000Y-75750000D01*
X165250000Y-73750000D02*
X150750000Y-73750000D01*
X184500000Y-103000000D02*
X184500000Y-93000000D01*
X189250000Y-107750000D02*
X184500000Y-103000000D01*
%TO.N,Net-(GND1-GPIO4)*%
X86000000Y-77750000D02*
X98500000Y-77750000D01*
X111642500Y-72357500D02*
X128060000Y-72357500D01*
X106250000Y-77750000D02*
X111642500Y-72357500D01*
X98500000Y-77750000D02*
X106250000Y-77750000D01*
%TO.N,Net-(GND1-GPIO5)*%
X105750000Y-80250000D02*
X111102500Y-74897500D01*
X93000000Y-80250000D02*
X105750000Y-80250000D01*
X82750000Y-92750000D02*
X82750000Y-88500000D01*
X70250000Y-92750000D02*
X82750000Y-92750000D01*
X85500000Y-85750000D02*
X87500000Y-85750000D01*
X82750000Y-88500000D02*
X85500000Y-85750000D01*
X87500000Y-85750000D02*
X93000000Y-80250000D01*
X111102500Y-74897500D02*
X128860000Y-74897500D01*
%TO.N,Net-(GND1-GPIO6)*%
X114250000Y-92750000D02*
X114250000Y-85750000D01*
X101750000Y-92750000D02*
X114250000Y-92750000D01*
X114250000Y-85750000D02*
X120022500Y-79977500D01*
X120022500Y-79977500D02*
X128060000Y-79977500D01*
%TO.N,Net-(GND1-GPIO7)*%
X115750000Y-94250000D02*
X116750000Y-93250000D01*
X111732233Y-94250000D02*
X115750000Y-94250000D01*
X98500000Y-107482233D02*
X111732233Y-94250000D01*
X118732500Y-82517500D02*
X128060000Y-82517500D01*
X86000000Y-107750000D02*
X98500000Y-107750000D01*
X116750000Y-84500000D02*
X118732500Y-82517500D01*
X116750000Y-93250000D02*
X116750000Y-84500000D01*
X98500000Y-107750000D02*
X98500000Y-107482233D01*
%TO.N,/SCK*%
X145750000Y-96750000D02*
X158330000Y-96750000D01*
X158330000Y-96750000D02*
X176580000Y-115000000D01*
X128060000Y-92677500D02*
X141677500Y-92677500D01*
X141677500Y-92677500D02*
X145750000Y-96750000D01*
%TO.N,/SDA*%
X158170000Y-99170000D02*
X171000000Y-112000000D01*
X142217500Y-95217500D02*
X146170000Y-99170000D01*
X146170000Y-99170000D02*
X158170000Y-99170000D01*
X171040000Y-112000000D02*
X174040000Y-115000000D01*
X171000000Y-112000000D02*
X171040000Y-112000000D01*
X128860000Y-95217500D02*
X142217500Y-95217500D01*
%TO.N,Net-(GND1-GPIO12)*%
X122250000Y-103567500D02*
X128060000Y-97757500D01*
X122250000Y-137500000D02*
X122250000Y-125000000D01*
X122250000Y-125000000D02*
X122250000Y-103567500D01*
%TO.N,Net-(GND1-GPIO13)*%
X137500000Y-124500000D02*
X122750000Y-109750000D01*
X137500000Y-125000000D02*
X137500000Y-124500000D01*
X122750000Y-103738971D02*
X126191471Y-100297500D01*
X122750000Y-109750000D02*
X122750000Y-103738971D01*
X126191471Y-100297500D02*
X128060000Y-100297500D01*
X137500000Y-137500000D02*
X137500000Y-125000000D01*
%TO.N,Net-(GND1-GPIO14)*%
X147250000Y-118500000D02*
X133000000Y-118500000D01*
X152500000Y-137500000D02*
X152500000Y-125000000D01*
X125500000Y-107937500D02*
X128060000Y-105377500D01*
X125500000Y-111000000D02*
X125500000Y-107937500D01*
X133000000Y-118500000D02*
X125500000Y-111000000D01*
X152500000Y-125000000D02*
X152500000Y-123750000D01*
X152500000Y-123750000D02*
X147250000Y-118500000D01*
%TO.N,Net-(GND1-GPIO15)*%
X154750000Y-119206814D02*
X154750000Y-119250000D01*
X128060000Y-107917500D02*
X136642500Y-116500000D01*
X154750000Y-119250000D02*
X160500000Y-125000000D01*
X152750000Y-117250000D02*
X154750000Y-119250000D01*
X152043186Y-116500000D02*
X154750000Y-119206814D01*
X160500000Y-125000000D02*
X167500000Y-125000000D01*
X128060000Y-110560000D02*
X134750000Y-117250000D01*
X128060000Y-108230000D02*
X128060000Y-110560000D01*
X167500000Y-125000000D02*
X167500000Y-137500000D01*
X136642500Y-116500000D02*
X152043186Y-116500000D01*
X134750000Y-117250000D02*
X152750000Y-117250000D01*
%TO.N,/A0*%
X169000000Y-119000000D02*
X171500000Y-116500000D01*
X147440000Y-107917500D02*
X158522500Y-119000000D01*
X158522500Y-119000000D02*
X169000000Y-119000000D01*
X171500000Y-116500000D02*
X171500000Y-115000000D01*
%TO.N,/RESET*%
X159000000Y-118000000D02*
X151000000Y-110000000D01*
X168960000Y-115000000D02*
X165960000Y-118000000D01*
X151000000Y-110000000D02*
X151000000Y-108000000D01*
X165960000Y-118000000D02*
X159000000Y-118000000D01*
X148377500Y-105377500D02*
X146640000Y-105377500D01*
X151000000Y-108000000D02*
X148377500Y-105377500D01*
%TO.N,/CS*%
X157297500Y-100297500D02*
X147440000Y-100297500D01*
X166420000Y-109420000D02*
X157297500Y-100297500D01*
X166420000Y-115000000D02*
X166420000Y-109420000D01*
%TO.N,/I2CSDA*%
X151892500Y-95217500D02*
X152000000Y-95325000D01*
D33*
X147440000Y-95217500D02*
X151892500Y-95217500D01*
%TO.N,/SCL*%
D32*
X153497500Y-92677500D02*
X153500000Y-92675000D01*
X147440000Y-92677500D02*
X153497500Y-92677500D01*
%TO.N,Net-(GND1-GPIO22)*%
X136900000Y-114100000D02*
X137500000Y-113500000D01*
X135750000Y-114100000D02*
X136900000Y-114100000D01*
X146340000Y-86497500D02*
X147440000Y-87597500D01*
X122750000Y-88497500D02*
X122750000Y-100250000D01*
X124750000Y-86497500D02*
X146340000Y-86497500D01*
X137500000Y-113500000D02*
X138425000Y-113500000D01*
X124750000Y-86497500D02*
X122750000Y-88497500D01*
%TO.N,Net-(GND1-RUN)*%
X133750000Y-111000000D02*
X148500000Y-111000000D01*
X131500000Y-84250000D02*
X132307500Y-85057500D01*
X133500000Y-111250000D02*
X133750000Y-111000000D01*
X148500000Y-111000000D02*
X148825000Y-111325000D01*
X147440000Y-85057500D02*
X132307500Y-85057500D01*
X148825000Y-111325000D02*
X148825000Y-113500000D01*
X131500000Y-84250000D02*
X125250000Y-84250000D01*
%TO.N,Net-(GND1-GPIO28_ADC2)*%
X170500000Y-81250000D02*
X153792500Y-81250000D01*
X182500000Y-125000000D02*
X182500000Y-93250000D01*
X153792500Y-81250000D02*
X147440000Y-74897500D01*
X182500000Y-93250000D02*
X170500000Y-81250000D01*
X182500000Y-125000000D02*
X182500000Y-137500000D01*
%TO.N,/3V3*%
X152850000Y-93675000D02*
X153500000Y-94325000D01*
D33*
X175500000Y-92250000D02*
X172020000Y-95730000D01*
X175500000Y-92250000D02*
X175500000Y-106500000D01*
D32*
X154640000Y-76500000D02*
X154750000Y-76390000D01*
X155500000Y-79500000D02*
X166250000Y-79500000D01*
X152500000Y-76500000D02*
X155500000Y-79500000D01*
D33*
X179120000Y-110120000D02*
X179120000Y-115000000D01*
D32*
X152000000Y-93675000D02*
X152850000Y-93675000D01*
D33*
X175500000Y-106500000D02*
X179120000Y-110120000D01*
X167000000Y-100750000D02*
X163750000Y-100750000D01*
D32*
X166250000Y-79500000D02*
X167250000Y-78500000D01*
D33*
X153575000Y-94250000D02*
X153500000Y-94325000D01*
X163750000Y-100750000D02*
X161650000Y-98650000D01*
X172020000Y-95730000D02*
X167000000Y-100750000D01*
X175500000Y-90500000D02*
X175500000Y-92250000D01*
X156000000Y-94250000D02*
X153575000Y-94250000D01*
D32*
X152500000Y-76500000D02*
X154640000Y-76500000D01*
%TO.N,/VCC*%
X151000000Y-63217500D02*
X147440000Y-59657500D01*
X151000000Y-71500000D02*
X151000000Y-63217500D01*
X151000000Y-104660000D02*
X151000000Y-101750000D01*
X161340000Y-115000000D02*
X151000000Y-104660000D01*
%TO.N,Net-(D1-A)*%
X154175000Y-74925000D02*
X152500000Y-74925000D01*
X154750000Y-75750000D02*
X154750000Y-75500000D01*
X154750000Y-75500000D02*
X154175000Y-74925000D01*
%TD*%
M02*
