%TF.GenerationSoftware,KiCad,Pcbnew,10.0.0*%
%TF.CreationDate,2026-06-04T22:54:10+01:00*%
%TF.ProjectId,design,64657369-676e-42e6-9b69-6361645f7063,2.0.0*%
%TF.SameCoordinates,Original*%
%TF.FileFunction,Soldermask,Top*%
%TF.FilePolarity,Negative*%
%FSLAX46Y46*%
G04 Gerber Fmt 4.6, Leading zero omitted, Abs format (unit mm)*
G04 Created by KiCad (PCBNEW 10.0.0) date 2026-06-04 22:54:10*
%MOMM*%
%LPD*%
G01*
G04 APERTURE LIST*
G04 Aperture macros list*
%AMRoundRect*
0 Rectangle with rounded corners*
0 $1 Rounding radius*
0 $2 $3 $4 $5 $6 $7 $8 $9 X,Y pos of 4 corners*
0 Add a 4 corners polygon primitive as box body*
4,1,4,$2,$3,$4,$5,$6,$7,$8,$9,$2,$3,0*
0 Add four circle primitives for the rounded corners*
1,1,$1+$1,$2,$3*
1,1,$1+$1,$4,$5*
1,1,$1+$1,$6,$7*
1,1,$1+$1,$8,$9*
0 Add four rect primitives between the rounded corners*
20,1,$1+$1,$2,$3,$4,$5,0*
20,1,$1+$1,$4,$5,$6,$7,0*
20,1,$1+$1,$6,$7,$8,$9,0*
20,1,$1+$1,$8,$9,$2,$3,0*%
%AMFreePoly0*
4,1,37,0.800000,0.796148,0.878414,0.796148,1.032228,0.765552,1.177117,0.705537,1.307515,0.618408,1.418408,0.507515,1.505537,0.377117,1.565552,0.232228,1.596148,0.078414,1.596148,-0.078414,1.565552,-0.232228,1.505537,-0.377117,1.418408,-0.507515,1.307515,-0.618408,1.177117,-0.705537,1.032228,-0.765552,0.878414,-0.796148,0.800000,-0.796148,0.800000,-0.800000,-1.400000,-0.800000,
-1.403843,-0.796157,-1.439018,-0.796157,-1.511114,-0.766294,-1.566294,-0.711114,-1.596157,-0.639018,-1.596157,-0.603843,-1.600000,-0.600000,-1.600000,0.600000,-1.596157,0.603843,-1.596157,0.639018,-1.566294,0.711114,-1.511114,0.766294,-1.439018,0.796157,-1.403843,0.796157,-1.400000,0.800000,0.800000,0.800000,0.800000,0.796148,0.800000,0.796148,$1*%
%AMFreePoly1*
4,1,37,1.403843,0.796157,1.439018,0.796157,1.511114,0.766294,1.566294,0.711114,1.596157,0.639018,1.596157,0.603843,1.600000,0.600000,1.600000,-0.600000,1.596157,-0.603843,1.596157,-0.639018,1.566294,-0.711114,1.511114,-0.766294,1.439018,-0.796157,1.403843,-0.796157,1.400000,-0.800000,-0.800000,-0.800000,-0.800000,-0.796148,-0.878414,-0.796148,-1.032228,-0.765552,-1.177117,-0.705537,
-1.307515,-0.618408,-1.418408,-0.507515,-1.505537,-0.377117,-1.565552,-0.232228,-1.596148,-0.078414,-1.596148,0.078414,-1.565552,0.232228,-1.505537,0.377117,-1.418408,0.507515,-1.307515,0.618408,-1.177117,0.705537,-1.032228,0.765552,-0.878414,0.796148,-0.800000,0.796148,-0.800000,0.800000,1.400000,0.800000,1.403843,0.796157,1.403843,0.796157,$1*%
%AMFreePoly2*
4,1,37,0.603843,0.796157,0.639018,0.796157,0.711114,0.766294,0.766294,0.711114,0.796157,0.639018,0.796157,0.603843,0.800000,0.600000,0.800000,-0.600000,0.796157,-0.603843,0.796157,-0.639018,0.766294,-0.711114,0.711114,-0.766294,0.639018,-0.796157,0.603843,-0.796157,0.600000,-0.800000,0.000000,-0.800000,0.000000,-0.796148,-0.078414,-0.796148,-0.232228,-0.765552,-0.377117,-0.705537,
-0.507515,-0.618408,-0.618408,-0.507515,-0.705537,-0.377117,-0.765552,-0.232228,-0.796148,-0.078414,-0.796148,0.078414,-0.765552,0.232228,-0.705537,0.377117,-0.618408,0.507515,-0.507515,0.618408,-0.377117,0.705537,-0.232228,0.765552,-0.078414,0.796148,0.000000,0.796148,0.000000,0.800000,0.600000,0.800000,0.603843,0.796157,0.603843,0.796157,$1*%
%AMFreePoly3*
4,1,37,0.000000,0.796148,0.078414,0.796148,0.232228,0.765552,0.377117,0.705537,0.507515,0.618408,0.618408,0.507515,0.705537,0.377117,0.765552,0.232228,0.796148,0.078414,0.796148,-0.078414,0.765552,-0.232228,0.705537,-0.377117,0.618408,-0.507515,0.507515,-0.618408,0.377117,-0.705537,0.232228,-0.765552,0.078414,-0.796148,0.000000,-0.796148,0.000000,-0.800000,-0.600000,-0.800000,
-0.603843,-0.796157,-0.639018,-0.796157,-0.711114,-0.766294,-0.766294,-0.711114,-0.796157,-0.639018,-0.796157,-0.603843,-0.800000,-0.600000,-0.800000,0.600000,-0.796157,0.603843,-0.796157,0.639018,-0.766294,0.711114,-0.711114,0.766294,-0.639018,0.796157,-0.603843,0.796157,-0.600000,0.800000,0.000000,0.800000,0.000000,0.796148,0.000000,0.796148,$1*%
G04 Aperture macros list end*
%ADD10RoundRect,0.287778X-0.489222X-0.714222X0.489222X-0.714222X0.489222X0.714222X-0.489222X0.714222X0*%
%ADD11C,2.200000*%
%ADD12C,1.850000*%
%ADD13FreePoly0,0.000000*%
%ADD14RoundRect,0.200000X-0.600000X-0.600000X0.600000X-0.600000X0.600000X0.600000X-0.600000X0.600000X0*%
%ADD15RoundRect,0.800000X-0.800000X-0.000010X0.800000X-0.000010X0.800000X0.000010X-0.800000X0.000010X0*%
%ADD16C,1.600000*%
%ADD17FreePoly1,0.000000*%
%ADD18FreePoly2,0.000000*%
%ADD19FreePoly3,0.000000*%
%ADD20C,1.800000*%
%ADD21O,1.700000X2.900000*%
%ADD22O,2.900000X1.700000*%
%ADD23RoundRect,0.075000X-0.350000X-0.075000X0.350000X-0.075000X0.350000X0.075000X-0.350000X0.075000X0*%
%ADD24RoundRect,0.075000X0.075000X-0.350000X0.075000X0.350000X-0.075000X0.350000X-0.075000X-0.350000X0*%
%ADD25RoundRect,0.100000X0.100000X-0.130000X0.100000X0.130000X-0.100000X0.130000X-0.100000X-0.130000X0*%
%ADD26RoundRect,0.140000X0.170000X-0.140000X0.170000X0.140000X-0.170000X0.140000X-0.170000X-0.140000X0*%
%ADD27RoundRect,0.200000X0.275000X-0.200000X0.275000X0.200000X-0.275000X0.200000X-0.275000X-0.200000X0*%
%ADD28RoundRect,0.140000X-0.140000X-0.170000X0.140000X-0.170000X0.140000X0.170000X-0.140000X0.170000X0*%
%ADD29RoundRect,0.200000X-0.275000X0.200000X-0.275000X-0.200000X0.275000X-0.200000X0.275000X0.200000X0*%
%ADD30RoundRect,0.218750X0.256250X-0.218750X0.256250X0.218750X-0.256250X0.218750X-0.256250X-0.218750X0*%
%ADD31RoundRect,0.225000X0.250000X-0.225000X0.250000X0.225000X-0.250000X0.225000X-0.250000X-0.225000X0*%
%ADD32RoundRect,0.225000X-0.225000X-0.250000X0.225000X-0.250000X0.225000X0.250000X-0.225000X0.250000X0*%
%ADD33R,1.700000X1.700000*%
%ADD34C,1.700000*%
G04 APERTURE END LIST*
D10*
%TO.C,S2*%
X148825000Y-113500000D03*
X144675000Y-113500000D03*
%TD*%
D11*
%TO.C,GND1*%
X135025000Y-60100000D03*
D12*
X135325000Y-63130000D03*
X140175000Y-63130000D03*
D11*
X140475000Y-60100000D03*
D13*
X128060000Y-59970000D03*
D14*
X128860000Y-59970000D03*
D15*
X128060000Y-62510000D03*
D16*
X128860000Y-62510000D03*
D17*
X128060000Y-65050000D03*
D18*
X128860000Y-65050000D03*
D15*
X128060000Y-67590000D03*
D16*
X128860000Y-67590000D03*
D15*
X128060000Y-70130000D03*
D16*
X128860000Y-70130000D03*
D15*
X128060000Y-72670000D03*
D16*
X128860000Y-72670000D03*
D15*
X128060000Y-75210000D03*
D16*
X128860000Y-75210000D03*
D17*
X128060000Y-77750000D03*
D18*
X128860000Y-77750000D03*
D15*
X128060000Y-80290000D03*
D16*
X128860000Y-80290000D03*
D15*
X128060000Y-82830000D03*
D16*
X128860000Y-82830000D03*
D15*
X128060000Y-85370000D03*
D16*
X128860000Y-85370000D03*
D15*
X128060000Y-87910000D03*
D16*
X128860000Y-87910000D03*
D17*
X128060000Y-90450000D03*
D18*
X128860000Y-90450000D03*
D15*
X128060000Y-92990000D03*
D16*
X128860000Y-92990000D03*
D15*
X128060000Y-95530000D03*
D16*
X128860000Y-95530000D03*
D15*
X128060000Y-98070000D03*
D16*
X128860000Y-98070000D03*
D15*
X128060000Y-100610000D03*
D16*
X128860000Y-100610000D03*
D17*
X128060000Y-103150000D03*
D18*
X128860000Y-103150000D03*
D15*
X128060000Y-105690000D03*
D16*
X128860000Y-105690000D03*
D15*
X128060000Y-108230000D03*
D16*
X128860000Y-108230000D03*
X146640000Y-108230000D03*
D15*
X147440000Y-108230000D03*
D16*
X146640000Y-105690000D03*
D15*
X147440000Y-105690000D03*
D19*
X146640000Y-103150000D03*
D13*
X147440000Y-103150000D03*
D16*
X146640000Y-100610000D03*
D15*
X147440000Y-100610000D03*
D16*
X146640000Y-98070000D03*
D15*
X147440000Y-98070000D03*
D16*
X146640000Y-95530000D03*
D15*
X147440000Y-95530000D03*
D16*
X146640000Y-92990000D03*
D15*
X147440000Y-92990000D03*
D19*
X146640000Y-90450000D03*
D13*
X147440000Y-90450000D03*
D16*
X146640000Y-87910000D03*
D15*
X147440000Y-87910000D03*
D16*
X146640000Y-85370000D03*
D15*
X147440000Y-85370000D03*
D16*
X146640000Y-82830000D03*
D15*
X147440000Y-82830000D03*
D16*
X146640000Y-80290000D03*
D15*
X147440000Y-80290000D03*
D19*
X146640000Y-77750000D03*
D13*
X147440000Y-77750000D03*
D16*
X146640000Y-75210000D03*
D15*
X147440000Y-75210000D03*
D16*
X146640000Y-72670000D03*
D15*
X147440000Y-72670000D03*
D16*
X146640000Y-70130000D03*
D15*
X147440000Y-70130000D03*
D16*
X146640000Y-67590000D03*
D15*
X147440000Y-67590000D03*
D19*
X146640000Y-65050000D03*
D13*
X147440000Y-65050000D03*
D16*
X146640000Y-62510000D03*
D15*
X147440000Y-62510000D03*
D16*
X146640000Y-59970000D03*
D15*
X147440000Y-59970000D03*
%TD*%
D20*
%TO.C,SW11*%
X150500000Y-131250000D03*
X159500000Y-131250000D03*
D21*
X152500000Y-137500000D03*
X152500000Y-125000000D03*
X157500000Y-137500000D03*
X157500000Y-125000000D03*
%TD*%
D20*
%TO.C,SW4*%
X215250000Y-105750000D03*
X215250000Y-114750000D03*
D22*
X209000000Y-107750000D03*
X221500000Y-107750000D03*
X209000000Y-112750000D03*
X221500000Y-112750000D03*
%TD*%
D23*
%TO.C,U1*%
X161800000Y-93250000D03*
X161800000Y-93750000D03*
X161800000Y-94250000D03*
X161800000Y-94750000D03*
X161800000Y-95250000D03*
X161800000Y-95750000D03*
D24*
X162500000Y-96450000D03*
X163000000Y-96450000D03*
X163500000Y-96450000D03*
X164000000Y-96450000D03*
X164500000Y-96450000D03*
X165000000Y-96450000D03*
D23*
X165700000Y-95750000D03*
X165700000Y-95250000D03*
X165700000Y-94750000D03*
X165700000Y-94250000D03*
X165700000Y-93750000D03*
X165700000Y-93250000D03*
D24*
X165000000Y-92550000D03*
X164500000Y-92550000D03*
X164000000Y-92550000D03*
X163500000Y-92550000D03*
X163000000Y-92550000D03*
X162500000Y-92550000D03*
%TD*%
D25*
%TO.C,R1*%
X154750000Y-76390000D03*
X154750000Y-75750000D03*
%TD*%
D20*
%TO.C,SW3*%
X231000000Y-90750000D03*
X231000000Y-99750000D03*
D22*
X224750000Y-92750000D03*
X237250000Y-92750000D03*
X224750000Y-97750000D03*
X237250000Y-97750000D03*
%TD*%
D10*
%TO.C,S1*%
X138425000Y-113500000D03*
X142575000Y-113500000D03*
%TD*%
D20*
%TO.C,SW2*%
X199500000Y-90750000D03*
X199500000Y-99750000D03*
D22*
X193250000Y-92750000D03*
X205750000Y-92750000D03*
X193250000Y-97750000D03*
X205750000Y-97750000D03*
%TD*%
D20*
%TO.C,SW13*%
X180500000Y-131250000D03*
X189500000Y-131250000D03*
D21*
X182500000Y-137500000D03*
X182500000Y-125000000D03*
X187500000Y-137500000D03*
X187500000Y-125000000D03*
%TD*%
D20*
%TO.C,SW8*%
X92250000Y-105750000D03*
X92250000Y-114750000D03*
D22*
X86000000Y-107750000D03*
X98500000Y-107750000D03*
X86000000Y-112750000D03*
X98500000Y-112750000D03*
%TD*%
D20*
%TO.C,SW9*%
X120250000Y-131250000D03*
X129250000Y-131250000D03*
D21*
X122250000Y-137500000D03*
X122250000Y-125000000D03*
X127250000Y-137500000D03*
X127250000Y-125000000D03*
%TD*%
D26*
%TO.C,C2*%
X170000000Y-95730000D03*
X170000000Y-94770000D03*
%TD*%
D27*
%TO.C,R3*%
X152000000Y-95325000D03*
X152000000Y-93675000D03*
%TD*%
D28*
%TO.C,C1*%
X164020000Y-98500000D03*
X164980000Y-98500000D03*
%TD*%
D29*
%TO.C,R2*%
X153500000Y-92675000D03*
X153500000Y-94325000D03*
%TD*%
D20*
%TO.C,SW12*%
X165500000Y-131250000D03*
X174500000Y-131250000D03*
D21*
X167500000Y-137500000D03*
X167500000Y-125000000D03*
X172500000Y-137500000D03*
X172500000Y-125000000D03*
%TD*%
D30*
%TO.C,D1*%
X152500000Y-76500000D03*
X152500000Y-74925000D03*
%TD*%
D20*
%TO.C,SW10*%
X135500000Y-131250000D03*
X144500000Y-131250000D03*
D21*
X137500000Y-137500000D03*
X137500000Y-125000000D03*
X142500000Y-137500000D03*
X142500000Y-125000000D03*
%TD*%
D31*
%TO.C,C4*%
X168500000Y-95750000D03*
X168500000Y-94200000D03*
%TD*%
D20*
%TO.C,SW5*%
X92250000Y-75750000D03*
X92250000Y-84750000D03*
D22*
X86000000Y-77750000D03*
X98500000Y-77750000D03*
X86000000Y-82750000D03*
X98500000Y-82750000D03*
%TD*%
D32*
%TO.C,C3*%
X164475000Y-89000000D03*
X166025000Y-89000000D03*
%TD*%
D20*
%TO.C,SW7*%
X108000000Y-90750000D03*
X108000000Y-99750000D03*
D22*
X101750000Y-92750000D03*
X114250000Y-92750000D03*
X101750000Y-97750000D03*
X114250000Y-97750000D03*
%TD*%
D33*
%TO.C,J2*%
X179120000Y-115000000D03*
D34*
X176580000Y-115000000D03*
X174040000Y-115000000D03*
X171500000Y-115000000D03*
X168960000Y-115000000D03*
X166420000Y-115000000D03*
X163880000Y-115000000D03*
X161340000Y-115000000D03*
%TD*%
D20*
%TO.C,SW1*%
X215250000Y-75750000D03*
X215250000Y-84750000D03*
D22*
X209000000Y-77750000D03*
X221500000Y-77750000D03*
X209000000Y-82750000D03*
X221500000Y-82750000D03*
%TD*%
D20*
%TO.C,SW6*%
X76500000Y-90750000D03*
X76500000Y-99750000D03*
D22*
X70250000Y-92750000D03*
X82750000Y-92750000D03*
X70250000Y-97750000D03*
X82750000Y-97750000D03*
%TD*%
M02*
