%TF.GenerationSoftware,KiCad,Pcbnew,10.0.0*%
%TF.CreationDate,2026-04-03T19:05:29+01:00*%
%TF.ProjectId,design,64657369-676e-42e6-9b69-6361645f7063,rev?*%
%TF.SameCoordinates,Original*%
%TF.FileFunction,Legend,Top*%
%TF.FilePolarity,Positive*%
%FSLAX46Y46*%
G04 Gerber Fmt 4.6, Leading zero omitted, Abs format (unit mm)*
G04 Created by KiCad (PCBNEW 10.0.0) date 2026-04-03 19:05:29*
%MOMM*%
%LPD*%
G01*
G04 APERTURE LIST*
%ADD10C,0.100000*%
%ADD11C,0.150000*%
%ADD12C,0.120000*%
%ADD13C,0.127000*%
G04 APERTURE END LIST*
D10*
X148303884Y-64372419D02*
X148303884Y-63372419D01*
X148732455Y-64372419D02*
X148732455Y-63848609D01*
X148732455Y-63848609D02*
X148684836Y-63753371D01*
X148684836Y-63753371D02*
X148589598Y-63705752D01*
X148589598Y-63705752D02*
X148446741Y-63705752D01*
X148446741Y-63705752D02*
X148351503Y-63753371D01*
X148351503Y-63753371D02*
X148303884Y-63800990D01*
X149589598Y-64324800D02*
X149494360Y-64372419D01*
X149494360Y-64372419D02*
X149303884Y-64372419D01*
X149303884Y-64372419D02*
X149208646Y-64324800D01*
X149208646Y-64324800D02*
X149161027Y-64229561D01*
X149161027Y-64229561D02*
X149161027Y-63848609D01*
X149161027Y-63848609D02*
X149208646Y-63753371D01*
X149208646Y-63753371D02*
X149303884Y-63705752D01*
X149303884Y-63705752D02*
X149494360Y-63705752D01*
X149494360Y-63705752D02*
X149589598Y-63753371D01*
X149589598Y-63753371D02*
X149637217Y-63848609D01*
X149637217Y-63848609D02*
X149637217Y-63943847D01*
X149637217Y-63943847D02*
X149161027Y-64039085D01*
X150208646Y-64372419D02*
X150113408Y-64324800D01*
X150113408Y-64324800D02*
X150065789Y-64229561D01*
X150065789Y-64229561D02*
X150065789Y-63372419D01*
X150589599Y-63705752D02*
X150589599Y-64705752D01*
X150589599Y-63753371D02*
X150684837Y-63705752D01*
X150684837Y-63705752D02*
X150875313Y-63705752D01*
X150875313Y-63705752D02*
X150970551Y-63753371D01*
X150970551Y-63753371D02*
X151018170Y-63800990D01*
X151018170Y-63800990D02*
X151065789Y-63896228D01*
X151065789Y-63896228D02*
X151065789Y-64181942D01*
X151065789Y-64181942D02*
X151018170Y-64277180D01*
X151018170Y-64277180D02*
X150970551Y-64324800D01*
X150970551Y-64324800D02*
X150875313Y-64372419D01*
X150875313Y-64372419D02*
X150684837Y-64372419D01*
X150684837Y-64372419D02*
X150589599Y-64324800D01*
X118553884Y-99122419D02*
X118553884Y-98455752D01*
X118553884Y-98646228D02*
X118601503Y-98550990D01*
X118601503Y-98550990D02*
X118649122Y-98503371D01*
X118649122Y-98503371D02*
X118744360Y-98455752D01*
X118744360Y-98455752D02*
X118839598Y-98455752D01*
X119553884Y-99074800D02*
X119458646Y-99122419D01*
X119458646Y-99122419D02*
X119268170Y-99122419D01*
X119268170Y-99122419D02*
X119172932Y-99074800D01*
X119172932Y-99074800D02*
X119125313Y-98979561D01*
X119125313Y-98979561D02*
X119125313Y-98598609D01*
X119125313Y-98598609D02*
X119172932Y-98503371D01*
X119172932Y-98503371D02*
X119268170Y-98455752D01*
X119268170Y-98455752D02*
X119458646Y-98455752D01*
X119458646Y-98455752D02*
X119553884Y-98503371D01*
X119553884Y-98503371D02*
X119601503Y-98598609D01*
X119601503Y-98598609D02*
X119601503Y-98693847D01*
X119601503Y-98693847D02*
X119125313Y-98789085D01*
X119982456Y-99074800D02*
X120077694Y-99122419D01*
X120077694Y-99122419D02*
X120268170Y-99122419D01*
X120268170Y-99122419D02*
X120363408Y-99074800D01*
X120363408Y-99074800D02*
X120411027Y-98979561D01*
X120411027Y-98979561D02*
X120411027Y-98931942D01*
X120411027Y-98931942D02*
X120363408Y-98836704D01*
X120363408Y-98836704D02*
X120268170Y-98789085D01*
X120268170Y-98789085D02*
X120125313Y-98789085D01*
X120125313Y-98789085D02*
X120030075Y-98741466D01*
X120030075Y-98741466D02*
X119982456Y-98646228D01*
X119982456Y-98646228D02*
X119982456Y-98598609D01*
X119982456Y-98598609D02*
X120030075Y-98503371D01*
X120030075Y-98503371D02*
X120125313Y-98455752D01*
X120125313Y-98455752D02*
X120268170Y-98455752D01*
X120268170Y-98455752D02*
X120363408Y-98503371D01*
X121220551Y-99074800D02*
X121125313Y-99122419D01*
X121125313Y-99122419D02*
X120934837Y-99122419D01*
X120934837Y-99122419D02*
X120839599Y-99074800D01*
X120839599Y-99074800D02*
X120791980Y-98979561D01*
X120791980Y-98979561D02*
X120791980Y-98598609D01*
X120791980Y-98598609D02*
X120839599Y-98503371D01*
X120839599Y-98503371D02*
X120934837Y-98455752D01*
X120934837Y-98455752D02*
X121125313Y-98455752D01*
X121125313Y-98455752D02*
X121220551Y-98503371D01*
X121220551Y-98503371D02*
X121268170Y-98598609D01*
X121268170Y-98598609D02*
X121268170Y-98693847D01*
X121268170Y-98693847D02*
X120791980Y-98789085D01*
X121553885Y-98455752D02*
X121934837Y-98455752D01*
X121696742Y-98122419D02*
X121696742Y-98979561D01*
X121696742Y-98979561D02*
X121744361Y-99074800D01*
X121744361Y-99074800D02*
X121839599Y-99122419D01*
X121839599Y-99122419D02*
X121934837Y-99122419D01*
X163732455Y-110824800D02*
X163637217Y-110872419D01*
X163637217Y-110872419D02*
X163446741Y-110872419D01*
X163446741Y-110872419D02*
X163351503Y-110824800D01*
X163351503Y-110824800D02*
X163303884Y-110777180D01*
X163303884Y-110777180D02*
X163256265Y-110681942D01*
X163256265Y-110681942D02*
X163256265Y-110396228D01*
X163256265Y-110396228D02*
X163303884Y-110300990D01*
X163303884Y-110300990D02*
X163351503Y-110253371D01*
X163351503Y-110253371D02*
X163446741Y-110205752D01*
X163446741Y-110205752D02*
X163637217Y-110205752D01*
X163637217Y-110205752D02*
X163732455Y-110253371D01*
X164303884Y-110872419D02*
X164208646Y-110824800D01*
X164208646Y-110824800D02*
X164161027Y-110777180D01*
X164161027Y-110777180D02*
X164113408Y-110681942D01*
X164113408Y-110681942D02*
X164113408Y-110396228D01*
X164113408Y-110396228D02*
X164161027Y-110300990D01*
X164161027Y-110300990D02*
X164208646Y-110253371D01*
X164208646Y-110253371D02*
X164303884Y-110205752D01*
X164303884Y-110205752D02*
X164446741Y-110205752D01*
X164446741Y-110205752D02*
X164541979Y-110253371D01*
X164541979Y-110253371D02*
X164589598Y-110300990D01*
X164589598Y-110300990D02*
X164637217Y-110396228D01*
X164637217Y-110396228D02*
X164637217Y-110681942D01*
X164637217Y-110681942D02*
X164589598Y-110777180D01*
X164589598Y-110777180D02*
X164541979Y-110824800D01*
X164541979Y-110824800D02*
X164446741Y-110872419D01*
X164446741Y-110872419D02*
X164303884Y-110872419D01*
X165065789Y-110205752D02*
X165065789Y-110872419D01*
X165065789Y-110300990D02*
X165113408Y-110253371D01*
X165113408Y-110253371D02*
X165208646Y-110205752D01*
X165208646Y-110205752D02*
X165351503Y-110205752D01*
X165351503Y-110205752D02*
X165446741Y-110253371D01*
X165446741Y-110253371D02*
X165494360Y-110348609D01*
X165494360Y-110348609D02*
X165494360Y-110872419D01*
X165970551Y-110205752D02*
X165970551Y-110872419D01*
X165970551Y-110300990D02*
X166018170Y-110253371D01*
X166018170Y-110253371D02*
X166113408Y-110205752D01*
X166113408Y-110205752D02*
X166256265Y-110205752D01*
X166256265Y-110205752D02*
X166351503Y-110253371D01*
X166351503Y-110253371D02*
X166399122Y-110348609D01*
X166399122Y-110348609D02*
X166399122Y-110872419D01*
X167256265Y-110824800D02*
X167161027Y-110872419D01*
X167161027Y-110872419D02*
X166970551Y-110872419D01*
X166970551Y-110872419D02*
X166875313Y-110824800D01*
X166875313Y-110824800D02*
X166827694Y-110729561D01*
X166827694Y-110729561D02*
X166827694Y-110348609D01*
X166827694Y-110348609D02*
X166875313Y-110253371D01*
X166875313Y-110253371D02*
X166970551Y-110205752D01*
X166970551Y-110205752D02*
X167161027Y-110205752D01*
X167161027Y-110205752D02*
X167256265Y-110253371D01*
X167256265Y-110253371D02*
X167303884Y-110348609D01*
X167303884Y-110348609D02*
X167303884Y-110443847D01*
X167303884Y-110443847D02*
X166827694Y-110539085D01*
X168161027Y-110824800D02*
X168065789Y-110872419D01*
X168065789Y-110872419D02*
X167875313Y-110872419D01*
X167875313Y-110872419D02*
X167780075Y-110824800D01*
X167780075Y-110824800D02*
X167732456Y-110777180D01*
X167732456Y-110777180D02*
X167684837Y-110681942D01*
X167684837Y-110681942D02*
X167684837Y-110396228D01*
X167684837Y-110396228D02*
X167732456Y-110300990D01*
X167732456Y-110300990D02*
X167780075Y-110253371D01*
X167780075Y-110253371D02*
X167875313Y-110205752D01*
X167875313Y-110205752D02*
X168065789Y-110205752D01*
X168065789Y-110205752D02*
X168161027Y-110253371D01*
X168446742Y-110205752D02*
X168827694Y-110205752D01*
X168589599Y-109872419D02*
X168589599Y-110729561D01*
X168589599Y-110729561D02*
X168637218Y-110824800D01*
X168637218Y-110824800D02*
X168732456Y-110872419D01*
X168732456Y-110872419D02*
X168827694Y-110872419D01*
X170351504Y-110872419D02*
X170351504Y-109872419D01*
X170351504Y-110824800D02*
X170256266Y-110872419D01*
X170256266Y-110872419D02*
X170065790Y-110872419D01*
X170065790Y-110872419D02*
X169970552Y-110824800D01*
X169970552Y-110824800D02*
X169922933Y-110777180D01*
X169922933Y-110777180D02*
X169875314Y-110681942D01*
X169875314Y-110681942D02*
X169875314Y-110396228D01*
X169875314Y-110396228D02*
X169922933Y-110300990D01*
X169922933Y-110300990D02*
X169970552Y-110253371D01*
X169970552Y-110253371D02*
X170065790Y-110205752D01*
X170065790Y-110205752D02*
X170256266Y-110205752D01*
X170256266Y-110205752D02*
X170351504Y-110253371D01*
X170827695Y-110872419D02*
X170827695Y-110205752D01*
X170827695Y-109872419D02*
X170780076Y-109920038D01*
X170780076Y-109920038D02*
X170827695Y-109967657D01*
X170827695Y-109967657D02*
X170875314Y-109920038D01*
X170875314Y-109920038D02*
X170827695Y-109872419D01*
X170827695Y-109872419D02*
X170827695Y-109967657D01*
X171256266Y-110824800D02*
X171351504Y-110872419D01*
X171351504Y-110872419D02*
X171541980Y-110872419D01*
X171541980Y-110872419D02*
X171637218Y-110824800D01*
X171637218Y-110824800D02*
X171684837Y-110729561D01*
X171684837Y-110729561D02*
X171684837Y-110681942D01*
X171684837Y-110681942D02*
X171637218Y-110586704D01*
X171637218Y-110586704D02*
X171541980Y-110539085D01*
X171541980Y-110539085D02*
X171399123Y-110539085D01*
X171399123Y-110539085D02*
X171303885Y-110491466D01*
X171303885Y-110491466D02*
X171256266Y-110396228D01*
X171256266Y-110396228D02*
X171256266Y-110348609D01*
X171256266Y-110348609D02*
X171303885Y-110253371D01*
X171303885Y-110253371D02*
X171399123Y-110205752D01*
X171399123Y-110205752D02*
X171541980Y-110205752D01*
X171541980Y-110205752D02*
X171637218Y-110253371D01*
X172113409Y-110205752D02*
X172113409Y-111205752D01*
X172113409Y-110253371D02*
X172208647Y-110205752D01*
X172208647Y-110205752D02*
X172399123Y-110205752D01*
X172399123Y-110205752D02*
X172494361Y-110253371D01*
X172494361Y-110253371D02*
X172541980Y-110300990D01*
X172541980Y-110300990D02*
X172589599Y-110396228D01*
X172589599Y-110396228D02*
X172589599Y-110681942D01*
X172589599Y-110681942D02*
X172541980Y-110777180D01*
X172541980Y-110777180D02*
X172494361Y-110824800D01*
X172494361Y-110824800D02*
X172399123Y-110872419D01*
X172399123Y-110872419D02*
X172208647Y-110872419D01*
X172208647Y-110872419D02*
X172113409Y-110824800D01*
X173161028Y-110872419D02*
X173065790Y-110824800D01*
X173065790Y-110824800D02*
X173018171Y-110729561D01*
X173018171Y-110729561D02*
X173018171Y-109872419D01*
X173970552Y-110872419D02*
X173970552Y-110348609D01*
X173970552Y-110348609D02*
X173922933Y-110253371D01*
X173922933Y-110253371D02*
X173827695Y-110205752D01*
X173827695Y-110205752D02*
X173637219Y-110205752D01*
X173637219Y-110205752D02*
X173541981Y-110253371D01*
X173970552Y-110824800D02*
X173875314Y-110872419D01*
X173875314Y-110872419D02*
X173637219Y-110872419D01*
X173637219Y-110872419D02*
X173541981Y-110824800D01*
X173541981Y-110824800D02*
X173494362Y-110729561D01*
X173494362Y-110729561D02*
X173494362Y-110634323D01*
X173494362Y-110634323D02*
X173541981Y-110539085D01*
X173541981Y-110539085D02*
X173637219Y-110491466D01*
X173637219Y-110491466D02*
X173875314Y-110491466D01*
X173875314Y-110491466D02*
X173970552Y-110443847D01*
X174351505Y-110205752D02*
X174589600Y-110872419D01*
X174827695Y-110205752D02*
X174589600Y-110872419D01*
X174589600Y-110872419D02*
X174494362Y-111110514D01*
X174494362Y-111110514D02*
X174446743Y-111158133D01*
X174446743Y-111158133D02*
X174351505Y-111205752D01*
X175970553Y-110872419D02*
X175970553Y-109872419D01*
X176399124Y-110872419D02*
X176399124Y-110348609D01*
X176399124Y-110348609D02*
X176351505Y-110253371D01*
X176351505Y-110253371D02*
X176256267Y-110205752D01*
X176256267Y-110205752D02*
X176113410Y-110205752D01*
X176113410Y-110205752D02*
X176018172Y-110253371D01*
X176018172Y-110253371D02*
X175970553Y-110300990D01*
X177256267Y-110824800D02*
X177161029Y-110872419D01*
X177161029Y-110872419D02*
X176970553Y-110872419D01*
X176970553Y-110872419D02*
X176875315Y-110824800D01*
X176875315Y-110824800D02*
X176827696Y-110729561D01*
X176827696Y-110729561D02*
X176827696Y-110348609D01*
X176827696Y-110348609D02*
X176875315Y-110253371D01*
X176875315Y-110253371D02*
X176970553Y-110205752D01*
X176970553Y-110205752D02*
X177161029Y-110205752D01*
X177161029Y-110205752D02*
X177256267Y-110253371D01*
X177256267Y-110253371D02*
X177303886Y-110348609D01*
X177303886Y-110348609D02*
X177303886Y-110443847D01*
X177303886Y-110443847D02*
X176827696Y-110539085D01*
X177732458Y-110872419D02*
X177732458Y-110205752D01*
X177732458Y-110396228D02*
X177780077Y-110300990D01*
X177780077Y-110300990D02*
X177827696Y-110253371D01*
X177827696Y-110253371D02*
X177922934Y-110205752D01*
X177922934Y-110205752D02*
X178018172Y-110205752D01*
X178732458Y-110824800D02*
X178637220Y-110872419D01*
X178637220Y-110872419D02*
X178446744Y-110872419D01*
X178446744Y-110872419D02*
X178351506Y-110824800D01*
X178351506Y-110824800D02*
X178303887Y-110729561D01*
X178303887Y-110729561D02*
X178303887Y-110348609D01*
X178303887Y-110348609D02*
X178351506Y-110253371D01*
X178351506Y-110253371D02*
X178446744Y-110205752D01*
X178446744Y-110205752D02*
X178637220Y-110205752D01*
X178637220Y-110205752D02*
X178732458Y-110253371D01*
X178732458Y-110253371D02*
X178780077Y-110348609D01*
X178780077Y-110348609D02*
X178780077Y-110443847D01*
X178780077Y-110443847D02*
X178303887Y-110539085D01*
X171000000Y-112500000D02*
X171250000Y-112250000D01*
X171000000Y-112500000D02*
X170750000Y-112250000D01*
X171000000Y-112000000D02*
X171000000Y-112500000D01*
X174000000Y-64250000D02*
X174250000Y-64500000D01*
X174000000Y-64250000D02*
X173750000Y-64500000D01*
X174000000Y-65750000D02*
X174000000Y-64250000D01*
X171676098Y-65551687D02*
X172676098Y-64551687D01*
X171676098Y-64551687D02*
X172676098Y-65551687D01*
X163732455Y-67122419D02*
X163732455Y-66122419D01*
X163732455Y-67074800D02*
X163637217Y-67122419D01*
X163637217Y-67122419D02*
X163446741Y-67122419D01*
X163446741Y-67122419D02*
X163351503Y-67074800D01*
X163351503Y-67074800D02*
X163303884Y-67027180D01*
X163303884Y-67027180D02*
X163256265Y-66931942D01*
X163256265Y-66931942D02*
X163256265Y-66646228D01*
X163256265Y-66646228D02*
X163303884Y-66550990D01*
X163303884Y-66550990D02*
X163351503Y-66503371D01*
X163351503Y-66503371D02*
X163446741Y-66455752D01*
X163446741Y-66455752D02*
X163637217Y-66455752D01*
X163637217Y-66455752D02*
X163732455Y-66503371D01*
X164351503Y-67122419D02*
X164256265Y-67074800D01*
X164256265Y-67074800D02*
X164208646Y-67027180D01*
X164208646Y-67027180D02*
X164161027Y-66931942D01*
X164161027Y-66931942D02*
X164161027Y-66646228D01*
X164161027Y-66646228D02*
X164208646Y-66550990D01*
X164208646Y-66550990D02*
X164256265Y-66503371D01*
X164256265Y-66503371D02*
X164351503Y-66455752D01*
X164351503Y-66455752D02*
X164494360Y-66455752D01*
X164494360Y-66455752D02*
X164589598Y-66503371D01*
X164589598Y-66503371D02*
X164637217Y-66550990D01*
X164637217Y-66550990D02*
X164684836Y-66646228D01*
X164684836Y-66646228D02*
X164684836Y-66931942D01*
X164684836Y-66931942D02*
X164637217Y-67027180D01*
X164637217Y-67027180D02*
X164589598Y-67074800D01*
X164589598Y-67074800D02*
X164494360Y-67122419D01*
X164494360Y-67122419D02*
X164351503Y-67122419D01*
X165875313Y-66455752D02*
X165875313Y-67122419D01*
X165875313Y-66550990D02*
X165922932Y-66503371D01*
X165922932Y-66503371D02*
X166018170Y-66455752D01*
X166018170Y-66455752D02*
X166161027Y-66455752D01*
X166161027Y-66455752D02*
X166256265Y-66503371D01*
X166256265Y-66503371D02*
X166303884Y-66598609D01*
X166303884Y-66598609D02*
X166303884Y-67122419D01*
X166922932Y-67122419D02*
X166827694Y-67074800D01*
X166827694Y-67074800D02*
X166780075Y-67027180D01*
X166780075Y-67027180D02*
X166732456Y-66931942D01*
X166732456Y-66931942D02*
X166732456Y-66646228D01*
X166732456Y-66646228D02*
X166780075Y-66550990D01*
X166780075Y-66550990D02*
X166827694Y-66503371D01*
X166827694Y-66503371D02*
X166922932Y-66455752D01*
X166922932Y-66455752D02*
X167065789Y-66455752D01*
X167065789Y-66455752D02*
X167161027Y-66503371D01*
X167161027Y-66503371D02*
X167208646Y-66550990D01*
X167208646Y-66550990D02*
X167256265Y-66646228D01*
X167256265Y-66646228D02*
X167256265Y-66931942D01*
X167256265Y-66931942D02*
X167208646Y-67027180D01*
X167208646Y-67027180D02*
X167161027Y-67074800D01*
X167161027Y-67074800D02*
X167065789Y-67122419D01*
X167065789Y-67122419D02*
X166922932Y-67122419D01*
X167541980Y-66455752D02*
X167922932Y-66455752D01*
X167684837Y-66122419D02*
X167684837Y-66979561D01*
X167684837Y-66979561D02*
X167732456Y-67074800D01*
X167732456Y-67074800D02*
X167827694Y-67122419D01*
X167827694Y-67122419D02*
X167922932Y-67122419D01*
X169446742Y-66455752D02*
X169446742Y-67122419D01*
X169018171Y-66455752D02*
X169018171Y-66979561D01*
X169018171Y-66979561D02*
X169065790Y-67074800D01*
X169065790Y-67074800D02*
X169161028Y-67122419D01*
X169161028Y-67122419D02*
X169303885Y-67122419D01*
X169303885Y-67122419D02*
X169399123Y-67074800D01*
X169399123Y-67074800D02*
X169446742Y-67027180D01*
X169875314Y-67074800D02*
X169970552Y-67122419D01*
X169970552Y-67122419D02*
X170161028Y-67122419D01*
X170161028Y-67122419D02*
X170256266Y-67074800D01*
X170256266Y-67074800D02*
X170303885Y-66979561D01*
X170303885Y-66979561D02*
X170303885Y-66931942D01*
X170303885Y-66931942D02*
X170256266Y-66836704D01*
X170256266Y-66836704D02*
X170161028Y-66789085D01*
X170161028Y-66789085D02*
X170018171Y-66789085D01*
X170018171Y-66789085D02*
X169922933Y-66741466D01*
X169922933Y-66741466D02*
X169875314Y-66646228D01*
X169875314Y-66646228D02*
X169875314Y-66598609D01*
X169875314Y-66598609D02*
X169922933Y-66503371D01*
X169922933Y-66503371D02*
X170018171Y-66455752D01*
X170018171Y-66455752D02*
X170161028Y-66455752D01*
X170161028Y-66455752D02*
X170256266Y-66503371D01*
X171113409Y-67074800D02*
X171018171Y-67122419D01*
X171018171Y-67122419D02*
X170827695Y-67122419D01*
X170827695Y-67122419D02*
X170732457Y-67074800D01*
X170732457Y-67074800D02*
X170684838Y-66979561D01*
X170684838Y-66979561D02*
X170684838Y-66598609D01*
X170684838Y-66598609D02*
X170732457Y-66503371D01*
X170732457Y-66503371D02*
X170827695Y-66455752D01*
X170827695Y-66455752D02*
X171018171Y-66455752D01*
X171018171Y-66455752D02*
X171113409Y-66503371D01*
X171113409Y-66503371D02*
X171161028Y-66598609D01*
X171161028Y-66598609D02*
X171161028Y-66693847D01*
X171161028Y-66693847D02*
X170684838Y-66789085D01*
X172208648Y-66455752D02*
X172589600Y-66455752D01*
X172351505Y-66122419D02*
X172351505Y-66979561D01*
X172351505Y-66979561D02*
X172399124Y-67074800D01*
X172399124Y-67074800D02*
X172494362Y-67122419D01*
X172494362Y-67122419D02*
X172589600Y-67122419D01*
X172922934Y-67122419D02*
X172922934Y-66122419D01*
X173351505Y-67122419D02*
X173351505Y-66598609D01*
X173351505Y-66598609D02*
X173303886Y-66503371D01*
X173303886Y-66503371D02*
X173208648Y-66455752D01*
X173208648Y-66455752D02*
X173065791Y-66455752D01*
X173065791Y-66455752D02*
X172970553Y-66503371D01*
X172970553Y-66503371D02*
X172922934Y-66550990D01*
X173827696Y-67122419D02*
X173827696Y-66455752D01*
X173827696Y-66122419D02*
X173780077Y-66170038D01*
X173780077Y-66170038D02*
X173827696Y-66217657D01*
X173827696Y-66217657D02*
X173875315Y-66170038D01*
X173875315Y-66170038D02*
X173827696Y-66122419D01*
X173827696Y-66122419D02*
X173827696Y-66217657D01*
X174256267Y-67074800D02*
X174351505Y-67122419D01*
X174351505Y-67122419D02*
X174541981Y-67122419D01*
X174541981Y-67122419D02*
X174637219Y-67074800D01*
X174637219Y-67074800D02*
X174684838Y-66979561D01*
X174684838Y-66979561D02*
X174684838Y-66931942D01*
X174684838Y-66931942D02*
X174637219Y-66836704D01*
X174637219Y-66836704D02*
X174541981Y-66789085D01*
X174541981Y-66789085D02*
X174399124Y-66789085D01*
X174399124Y-66789085D02*
X174303886Y-66741466D01*
X174303886Y-66741466D02*
X174256267Y-66646228D01*
X174256267Y-66646228D02*
X174256267Y-66598609D01*
X174256267Y-66598609D02*
X174303886Y-66503371D01*
X174303886Y-66503371D02*
X174399124Y-66455752D01*
X174399124Y-66455752D02*
X174541981Y-66455752D01*
X174541981Y-66455752D02*
X174637219Y-66503371D01*
X175875315Y-67122419D02*
X175875315Y-66122419D01*
X176303886Y-67122419D02*
X176303886Y-66598609D01*
X176303886Y-66598609D02*
X176256267Y-66503371D01*
X176256267Y-66503371D02*
X176161029Y-66455752D01*
X176161029Y-66455752D02*
X176018172Y-66455752D01*
X176018172Y-66455752D02*
X175922934Y-66503371D01*
X175922934Y-66503371D02*
X175875315Y-66550990D01*
X177161029Y-67074800D02*
X177065791Y-67122419D01*
X177065791Y-67122419D02*
X176875315Y-67122419D01*
X176875315Y-67122419D02*
X176780077Y-67074800D01*
X176780077Y-67074800D02*
X176732458Y-66979561D01*
X176732458Y-66979561D02*
X176732458Y-66598609D01*
X176732458Y-66598609D02*
X176780077Y-66503371D01*
X176780077Y-66503371D02*
X176875315Y-66455752D01*
X176875315Y-66455752D02*
X177065791Y-66455752D01*
X177065791Y-66455752D02*
X177161029Y-66503371D01*
X177161029Y-66503371D02*
X177208648Y-66598609D01*
X177208648Y-66598609D02*
X177208648Y-66693847D01*
X177208648Y-66693847D02*
X176732458Y-66789085D01*
X178065791Y-67122419D02*
X178065791Y-66598609D01*
X178065791Y-66598609D02*
X178018172Y-66503371D01*
X178018172Y-66503371D02*
X177922934Y-66455752D01*
X177922934Y-66455752D02*
X177732458Y-66455752D01*
X177732458Y-66455752D02*
X177637220Y-66503371D01*
X178065791Y-67074800D02*
X177970553Y-67122419D01*
X177970553Y-67122419D02*
X177732458Y-67122419D01*
X177732458Y-67122419D02*
X177637220Y-67074800D01*
X177637220Y-67074800D02*
X177589601Y-66979561D01*
X177589601Y-66979561D02*
X177589601Y-66884323D01*
X177589601Y-66884323D02*
X177637220Y-66789085D01*
X177637220Y-66789085D02*
X177732458Y-66741466D01*
X177732458Y-66741466D02*
X177970553Y-66741466D01*
X177970553Y-66741466D02*
X178065791Y-66693847D01*
X178970553Y-67122419D02*
X178970553Y-66122419D01*
X178970553Y-67074800D02*
X178875315Y-67122419D01*
X178875315Y-67122419D02*
X178684839Y-67122419D01*
X178684839Y-67122419D02*
X178589601Y-67074800D01*
X178589601Y-67074800D02*
X178541982Y-67027180D01*
X178541982Y-67027180D02*
X178494363Y-66931942D01*
X178494363Y-66931942D02*
X178494363Y-66646228D01*
X178494363Y-66646228D02*
X178541982Y-66550990D01*
X178541982Y-66550990D02*
X178589601Y-66503371D01*
X178589601Y-66503371D02*
X178684839Y-66455752D01*
X178684839Y-66455752D02*
X178875315Y-66455752D01*
X178875315Y-66455752D02*
X178970553Y-66503371D01*
X179827696Y-67074800D02*
X179732458Y-67122419D01*
X179732458Y-67122419D02*
X179541982Y-67122419D01*
X179541982Y-67122419D02*
X179446744Y-67074800D01*
X179446744Y-67074800D02*
X179399125Y-66979561D01*
X179399125Y-66979561D02*
X179399125Y-66598609D01*
X179399125Y-66598609D02*
X179446744Y-66503371D01*
X179446744Y-66503371D02*
X179541982Y-66455752D01*
X179541982Y-66455752D02*
X179732458Y-66455752D01*
X179732458Y-66455752D02*
X179827696Y-66503371D01*
X179827696Y-66503371D02*
X179875315Y-66598609D01*
X179875315Y-66598609D02*
X179875315Y-66693847D01*
X179875315Y-66693847D02*
X179399125Y-66789085D01*
X180303887Y-67122419D02*
X180303887Y-66455752D01*
X180303887Y-66646228D02*
X180351506Y-66550990D01*
X180351506Y-66550990D02*
X180399125Y-66503371D01*
X180399125Y-66503371D02*
X180494363Y-66455752D01*
X180494363Y-66455752D02*
X180589601Y-66455752D01*
X185280074Y-139372419D02*
X184803884Y-139372419D01*
X184803884Y-139372419D02*
X184756265Y-139848609D01*
X184756265Y-139848609D02*
X184803884Y-139800990D01*
X184803884Y-139800990D02*
X184899122Y-139753371D01*
X184899122Y-139753371D02*
X185137217Y-139753371D01*
X185137217Y-139753371D02*
X185232455Y-139800990D01*
X185232455Y-139800990D02*
X185280074Y-139848609D01*
X185280074Y-139848609D02*
X185327693Y-139943847D01*
X185327693Y-139943847D02*
X185327693Y-140181942D01*
X185327693Y-140181942D02*
X185280074Y-140277180D01*
X185280074Y-140277180D02*
X185232455Y-140324800D01*
X185232455Y-140324800D02*
X185137217Y-140372419D01*
X185137217Y-140372419D02*
X184899122Y-140372419D01*
X184899122Y-140372419D02*
X184803884Y-140324800D01*
X184803884Y-140324800D02*
X184756265Y-140277180D01*
X170232455Y-139705752D02*
X170232455Y-140372419D01*
X169994360Y-139324800D02*
X169756265Y-140039085D01*
X169756265Y-140039085D02*
X170375312Y-140039085D01*
X154708646Y-139372419D02*
X155327693Y-139372419D01*
X155327693Y-139372419D02*
X154994360Y-139753371D01*
X154994360Y-139753371D02*
X155137217Y-139753371D01*
X155137217Y-139753371D02*
X155232455Y-139800990D01*
X155232455Y-139800990D02*
X155280074Y-139848609D01*
X155280074Y-139848609D02*
X155327693Y-139943847D01*
X155327693Y-139943847D02*
X155327693Y-140181942D01*
X155327693Y-140181942D02*
X155280074Y-140277180D01*
X155280074Y-140277180D02*
X155232455Y-140324800D01*
X155232455Y-140324800D02*
X155137217Y-140372419D01*
X155137217Y-140372419D02*
X154851503Y-140372419D01*
X154851503Y-140372419D02*
X154756265Y-140324800D01*
X154756265Y-140324800D02*
X154708646Y-140277180D01*
X139756265Y-139467657D02*
X139803884Y-139420038D01*
X139803884Y-139420038D02*
X139899122Y-139372419D01*
X139899122Y-139372419D02*
X140137217Y-139372419D01*
X140137217Y-139372419D02*
X140232455Y-139420038D01*
X140232455Y-139420038D02*
X140280074Y-139467657D01*
X140280074Y-139467657D02*
X140327693Y-139562895D01*
X140327693Y-139562895D02*
X140327693Y-139658133D01*
X140327693Y-139658133D02*
X140280074Y-139800990D01*
X140280074Y-139800990D02*
X139708646Y-140372419D01*
X139708646Y-140372419D02*
X140327693Y-140372419D01*
X125327693Y-140372419D02*
X124756265Y-140372419D01*
X125041979Y-140372419D02*
X125041979Y-139372419D01*
X125041979Y-139372419D02*
X124946741Y-139515276D01*
X124946741Y-139515276D02*
X124851503Y-139610514D01*
X124851503Y-139610514D02*
X124756265Y-139658133D01*
X231142857Y-86775514D02*
X231428571Y-86846942D01*
X231428571Y-86846942D02*
X231523809Y-86918371D01*
X231523809Y-86918371D02*
X231619047Y-87061228D01*
X231619047Y-87061228D02*
X231619047Y-87275514D01*
X231619047Y-87275514D02*
X231523809Y-87418371D01*
X231523809Y-87418371D02*
X231428571Y-87489800D01*
X231428571Y-87489800D02*
X231238095Y-87561228D01*
X231238095Y-87561228D02*
X230476190Y-87561228D01*
X230476190Y-87561228D02*
X230476190Y-86061228D01*
X230476190Y-86061228D02*
X231142857Y-86061228D01*
X231142857Y-86061228D02*
X231333333Y-86132657D01*
X231333333Y-86132657D02*
X231428571Y-86204085D01*
X231428571Y-86204085D02*
X231523809Y-86346942D01*
X231523809Y-86346942D02*
X231523809Y-86489800D01*
X231523809Y-86489800D02*
X231428571Y-86632657D01*
X231428571Y-86632657D02*
X231333333Y-86704085D01*
X231333333Y-86704085D02*
X231142857Y-86775514D01*
X231142857Y-86775514D02*
X230476190Y-86775514D01*
X214773809Y-102132657D02*
X215726190Y-102132657D01*
X214583333Y-102561228D02*
X215249999Y-101061228D01*
X215249999Y-101061228D02*
X215916666Y-102561228D01*
X198833333Y-86061228D02*
X200166666Y-87561228D01*
X200166666Y-86061228D02*
X198833333Y-87561228D01*
X215249999Y-71846942D02*
X215249999Y-72561228D01*
X214583333Y-71061228D02*
X215249999Y-71846942D01*
X215249999Y-71846942D02*
X215916666Y-71061228D01*
X107238095Y-86989800D02*
X108761905Y-86989800D01*
X108380952Y-87275514D02*
X108761905Y-86989800D01*
X108761905Y-86989800D02*
X108380952Y-86704085D01*
X77261905Y-86989800D02*
X75738095Y-86989800D01*
X76119047Y-87275514D02*
X75738095Y-86989800D01*
X75738095Y-86989800D02*
X76119047Y-86704085D01*
X92250000Y-101418371D02*
X92250000Y-102561228D01*
X92630952Y-102275514D02*
X92250000Y-102561228D01*
X92250000Y-102561228D02*
X91869047Y-102275514D01*
X92250000Y-72561228D02*
X92250000Y-71418371D01*
X91869047Y-71704085D02*
X92250000Y-71418371D01*
X92250000Y-71418371D02*
X92630952Y-71704085D01*
D11*
X149751660Y-115584104D02*
X150227850Y-115584104D01*
X149656422Y-115869819D02*
X149989755Y-114869819D01*
X149989755Y-114869819D02*
X150323088Y-115869819D01*
X151180231Y-115869819D02*
X150608803Y-115869819D01*
X150894517Y-115869819D02*
X150894517Y-114869819D01*
X150894517Y-114869819D02*
X150799279Y-115012676D01*
X150799279Y-115012676D02*
X150704041Y-115107914D01*
X150704041Y-115107914D02*
X150608803Y-115155533D01*
X133269999Y-91108773D02*
X133209523Y-91169250D01*
X133209523Y-91169250D02*
X133028094Y-91229726D01*
X133028094Y-91229726D02*
X132907142Y-91229726D01*
X132907142Y-91229726D02*
X132725713Y-91169250D01*
X132725713Y-91169250D02*
X132604761Y-91048297D01*
X132604761Y-91048297D02*
X132544284Y-90927345D01*
X132544284Y-90927345D02*
X132483808Y-90685440D01*
X132483808Y-90685440D02*
X132483808Y-90504011D01*
X132483808Y-90504011D02*
X132544284Y-90262107D01*
X132544284Y-90262107D02*
X132604761Y-90141154D01*
X132604761Y-90141154D02*
X132725713Y-90020202D01*
X132725713Y-90020202D02*
X132907142Y-89959726D01*
X132907142Y-89959726D02*
X133028094Y-89959726D01*
X133028094Y-89959726D02*
X133209523Y-90020202D01*
X133209523Y-90020202D02*
X133269999Y-90080678D01*
X134358570Y-90383059D02*
X134358570Y-91229726D01*
X134056189Y-89899250D02*
X133753808Y-90806392D01*
X133753808Y-90806392D02*
X134539999Y-90806392D01*
X135689047Y-91229726D02*
X134963332Y-91229726D01*
X135326189Y-91229726D02*
X135326189Y-89959726D01*
X135326189Y-89959726D02*
X135205237Y-90141154D01*
X135205237Y-90141154D02*
X135084285Y-90262107D01*
X135084285Y-90262107D02*
X134963332Y-90322583D01*
X136777618Y-90383059D02*
X136777618Y-91229726D01*
X136475237Y-89899250D02*
X136172856Y-90806392D01*
X136172856Y-90806392D02*
X136959047Y-90806392D01*
X137684761Y-89959726D02*
X137805714Y-89959726D01*
X137805714Y-89959726D02*
X137926666Y-90020202D01*
X137926666Y-90020202D02*
X137987142Y-90080678D01*
X137987142Y-90080678D02*
X138047618Y-90201630D01*
X138047618Y-90201630D02*
X138108095Y-90443535D01*
X138108095Y-90443535D02*
X138108095Y-90745916D01*
X138108095Y-90745916D02*
X138047618Y-90987821D01*
X138047618Y-90987821D02*
X137987142Y-91108773D01*
X137987142Y-91108773D02*
X137926666Y-91169250D01*
X137926666Y-91169250D02*
X137805714Y-91229726D01*
X137805714Y-91229726D02*
X137684761Y-91229726D01*
X137684761Y-91229726D02*
X137563809Y-91169250D01*
X137563809Y-91169250D02*
X137503333Y-91108773D01*
X137503333Y-91108773D02*
X137442856Y-90987821D01*
X137442856Y-90987821D02*
X137382380Y-90745916D01*
X137382380Y-90745916D02*
X137382380Y-90443535D01*
X137382380Y-90443535D02*
X137442856Y-90201630D01*
X137442856Y-90201630D02*
X137503333Y-90080678D01*
X137503333Y-90080678D02*
X137563809Y-90020202D01*
X137563809Y-90020202D02*
X137684761Y-89959726D01*
X138531428Y-89959726D02*
X139378095Y-89959726D01*
X139378095Y-89959726D02*
X138833809Y-91229726D01*
X140466666Y-89959726D02*
X139861904Y-89959726D01*
X139861904Y-89959726D02*
X139801428Y-90564488D01*
X139801428Y-90564488D02*
X139861904Y-90504011D01*
X139861904Y-90504011D02*
X139982857Y-90443535D01*
X139982857Y-90443535D02*
X140285238Y-90443535D01*
X140285238Y-90443535D02*
X140406190Y-90504011D01*
X140406190Y-90504011D02*
X140466666Y-90564488D01*
X140466666Y-90564488D02*
X140527143Y-90685440D01*
X140527143Y-90685440D02*
X140527143Y-90987821D01*
X140527143Y-90987821D02*
X140466666Y-91108773D01*
X140466666Y-91108773D02*
X140406190Y-91169250D01*
X140406190Y-91169250D02*
X140285238Y-91229726D01*
X140285238Y-91229726D02*
X139982857Y-91229726D01*
X139982857Y-91229726D02*
X139861904Y-91169250D01*
X139861904Y-91169250D02*
X139801428Y-91108773D01*
X141615714Y-90383059D02*
X141615714Y-91229726D01*
X141313333Y-89899250D02*
X141010952Y-90806392D01*
X141010952Y-90806392D02*
X141797143Y-90806392D01*
X142160000Y-89959726D02*
X143006667Y-89959726D01*
X143006667Y-89959726D02*
X142462381Y-91229726D01*
X206369285Y-78208773D02*
X206308809Y-78269250D01*
X206308809Y-78269250D02*
X206127380Y-78329726D01*
X206127380Y-78329726D02*
X206006428Y-78329726D01*
X206006428Y-78329726D02*
X205824999Y-78269250D01*
X205824999Y-78269250D02*
X205704047Y-78148297D01*
X205704047Y-78148297D02*
X205643570Y-78027345D01*
X205643570Y-78027345D02*
X205583094Y-77785440D01*
X205583094Y-77785440D02*
X205583094Y-77604011D01*
X205583094Y-77604011D02*
X205643570Y-77362107D01*
X205643570Y-77362107D02*
X205704047Y-77241154D01*
X205704047Y-77241154D02*
X205824999Y-77120202D01*
X205824999Y-77120202D02*
X206006428Y-77059726D01*
X206006428Y-77059726D02*
X206127380Y-77059726D01*
X206127380Y-77059726D02*
X206308809Y-77120202D01*
X206308809Y-77120202D02*
X206369285Y-77180678D01*
X207094999Y-77604011D02*
X206974047Y-77543535D01*
X206974047Y-77543535D02*
X206913570Y-77483059D01*
X206913570Y-77483059D02*
X206853094Y-77362107D01*
X206853094Y-77362107D02*
X206853094Y-77301630D01*
X206853094Y-77301630D02*
X206913570Y-77180678D01*
X206913570Y-77180678D02*
X206974047Y-77120202D01*
X206974047Y-77120202D02*
X207094999Y-77059726D01*
X207094999Y-77059726D02*
X207336904Y-77059726D01*
X207336904Y-77059726D02*
X207457856Y-77120202D01*
X207457856Y-77120202D02*
X207518332Y-77180678D01*
X207518332Y-77180678D02*
X207578809Y-77301630D01*
X207578809Y-77301630D02*
X207578809Y-77362107D01*
X207578809Y-77362107D02*
X207518332Y-77483059D01*
X207518332Y-77483059D02*
X207457856Y-77543535D01*
X207457856Y-77543535D02*
X207336904Y-77604011D01*
X207336904Y-77604011D02*
X207094999Y-77604011D01*
X207094999Y-77604011D02*
X206974047Y-77664488D01*
X206974047Y-77664488D02*
X206913570Y-77724964D01*
X206913570Y-77724964D02*
X206853094Y-77845916D01*
X206853094Y-77845916D02*
X206853094Y-78087821D01*
X206853094Y-78087821D02*
X206913570Y-78208773D01*
X206913570Y-78208773D02*
X206974047Y-78269250D01*
X206974047Y-78269250D02*
X207094999Y-78329726D01*
X207094999Y-78329726D02*
X207336904Y-78329726D01*
X207336904Y-78329726D02*
X207457856Y-78269250D01*
X207457856Y-78269250D02*
X207518332Y-78208773D01*
X207518332Y-78208773D02*
X207578809Y-78087821D01*
X207578809Y-78087821D02*
X207578809Y-77845916D01*
X207578809Y-77845916D02*
X207518332Y-77724964D01*
X207518332Y-77724964D02*
X207457856Y-77664488D01*
X207457856Y-77664488D02*
X207336904Y-77604011D01*
X208002142Y-77059726D02*
X208848809Y-77059726D01*
X208848809Y-77059726D02*
X208304523Y-78329726D01*
X209876904Y-77483059D02*
X209876904Y-78329726D01*
X209574523Y-76999250D02*
X209272142Y-77906392D01*
X209272142Y-77906392D02*
X210058333Y-77906392D01*
X210602619Y-78329726D02*
X210844523Y-78329726D01*
X210844523Y-78329726D02*
X210965476Y-78269250D01*
X210965476Y-78269250D02*
X211025952Y-78208773D01*
X211025952Y-78208773D02*
X211146904Y-78027345D01*
X211146904Y-78027345D02*
X211207381Y-77785440D01*
X211207381Y-77785440D02*
X211207381Y-77301630D01*
X211207381Y-77301630D02*
X211146904Y-77180678D01*
X211146904Y-77180678D02*
X211086428Y-77120202D01*
X211086428Y-77120202D02*
X210965476Y-77059726D01*
X210965476Y-77059726D02*
X210723571Y-77059726D01*
X210723571Y-77059726D02*
X210602619Y-77120202D01*
X210602619Y-77120202D02*
X210542142Y-77180678D01*
X210542142Y-77180678D02*
X210481666Y-77301630D01*
X210481666Y-77301630D02*
X210481666Y-77604011D01*
X210481666Y-77604011D02*
X210542142Y-77724964D01*
X210542142Y-77724964D02*
X210602619Y-77785440D01*
X210602619Y-77785440D02*
X210723571Y-77845916D01*
X210723571Y-77845916D02*
X210965476Y-77845916D01*
X210965476Y-77845916D02*
X211086428Y-77785440D01*
X211086428Y-77785440D02*
X211146904Y-77724964D01*
X211146904Y-77724964D02*
X211207381Y-77604011D01*
X212295952Y-77483059D02*
X212295952Y-78329726D01*
X211993571Y-76999250D02*
X211691190Y-77906392D01*
X211691190Y-77906392D02*
X212477381Y-77906392D01*
%TO.C,J2*%
D12*
X161390000Y-60670000D02*
X161390000Y-63330000D01*
X179230000Y-60670000D02*
X161390000Y-60670000D01*
X179230000Y-60670000D02*
X179230000Y-63330000D01*
X179230000Y-63330000D02*
X161390000Y-63330000D01*
X181830000Y-62000000D02*
X181830000Y-63330000D01*
X181830000Y-63330000D02*
X180500000Y-63330000D01*
%TO.C,A1*%
X127105000Y-67580000D02*
X126625000Y-67580000D01*
X127105000Y-67580000D02*
X127105000Y-68000000D01*
X127105000Y-70120000D02*
X127105000Y-70540000D01*
X127105000Y-72660000D02*
X127105000Y-73080000D01*
X127105000Y-75200000D02*
X127105000Y-75620000D01*
X127105000Y-77740000D02*
X127105000Y-78160000D01*
X127105000Y-80280000D02*
X127105000Y-80700000D01*
X127105000Y-82820000D02*
X127105000Y-83240000D01*
X127105000Y-85360000D02*
X127105000Y-85780000D01*
X127105000Y-87900000D02*
X127105000Y-88320000D01*
X127105000Y-90440000D02*
X127105000Y-90860000D01*
X127105000Y-92980000D02*
X127105000Y-93400000D01*
X127105000Y-95520000D02*
X127105000Y-95940000D01*
X127105000Y-98060000D02*
X127105000Y-98480000D01*
X127105000Y-100600000D02*
X127105000Y-101020000D01*
X127105000Y-103140000D02*
X127105000Y-103560000D01*
X127105000Y-105680000D02*
X127105000Y-106100000D01*
X127105000Y-108220000D02*
X127105000Y-108640000D01*
X127105000Y-110760000D02*
X127105000Y-111180000D01*
X127105000Y-113300000D02*
X127105000Y-113720000D01*
X127135324Y-65460000D02*
X126625000Y-65460000D01*
X127445000Y-65460063D02*
X127445000Y-65103000D01*
X127445000Y-67580000D02*
X127445000Y-68000000D01*
X127445000Y-70120000D02*
X127445000Y-70540000D01*
X127445000Y-72660000D02*
X127445000Y-73080000D01*
X127445000Y-75200000D02*
X127445000Y-75620000D01*
X127445000Y-77740000D02*
X127445000Y-78160000D01*
X127445000Y-80280000D02*
X127445000Y-80700000D01*
X127445000Y-82820000D02*
X127445000Y-83240000D01*
X127445000Y-85360000D02*
X127445000Y-85780000D01*
X127445000Y-87900000D02*
X127445000Y-88320000D01*
X127445000Y-90440000D02*
X127445000Y-90860000D01*
X127445000Y-92980000D02*
X127445000Y-93400000D01*
X127445000Y-95520000D02*
X127445000Y-95940000D01*
X127445000Y-98060000D02*
X127445000Y-98480000D01*
X127445000Y-100600000D02*
X127445000Y-101020000D01*
X127445000Y-103140000D02*
X127445000Y-103560000D01*
X127445000Y-105680000D02*
X127445000Y-106100000D01*
X127445000Y-108220000D02*
X127445000Y-108640000D01*
X127445000Y-110760000D02*
X127445000Y-111180000D01*
X127445000Y-113300000D02*
X127445000Y-113720000D01*
X127445000Y-115839937D02*
X127445000Y-116197000D01*
X127715000Y-65040000D02*
X130205000Y-65040000D01*
X127715000Y-116260000D02*
X131552939Y-116260000D01*
X130205000Y-65040000D02*
X130205000Y-65953520D01*
X130205000Y-65040000D02*
X131552940Y-65040000D01*
X130205000Y-68346480D02*
X130205000Y-112953520D01*
X130205000Y-115346480D02*
X130205000Y-116260000D01*
X132477061Y-65040000D02*
X133480000Y-65040000D01*
X133480000Y-65040000D02*
X141950000Y-65040000D01*
X133815000Y-65040000D02*
X133815000Y-65956000D01*
X133815000Y-68344000D02*
X133815000Y-69560000D01*
X133815000Y-69560000D02*
X134111090Y-69560000D01*
X134115000Y-116260000D02*
X132477061Y-116260000D01*
X136468910Y-69560000D02*
X138961090Y-69560000D01*
X141315000Y-116260000D02*
X134115000Y-116260000D01*
X141318910Y-69560000D02*
X141615000Y-69560000D01*
X141615000Y-65040000D02*
X141615000Y-65956000D01*
X141615000Y-68344000D02*
X141615000Y-69560000D01*
X141950000Y-65040000D02*
X142952939Y-65040000D01*
X142952939Y-116260000D02*
X141315000Y-116260000D01*
X143877061Y-65040000D02*
X145225000Y-65040000D01*
X143877061Y-116260000D02*
X147715000Y-116260000D01*
X145225000Y-65040000D02*
X145225000Y-65953520D01*
X145225000Y-68346480D02*
X145225000Y-112953520D01*
X145225000Y-115346480D02*
X145225000Y-116260000D01*
X147715000Y-65040000D02*
X145225000Y-65040000D01*
X147985000Y-65460063D02*
X147985000Y-65103000D01*
X147985000Y-67580000D02*
X147985000Y-68000000D01*
X147985000Y-70120000D02*
X147985000Y-70540000D01*
X147985000Y-72660000D02*
X147985000Y-73080000D01*
X147985000Y-75200000D02*
X147985000Y-75620000D01*
X147985000Y-77740000D02*
X147985000Y-78160000D01*
X147985000Y-80280000D02*
X147985000Y-80700000D01*
X147985000Y-82820000D02*
X147985000Y-83240000D01*
X147985000Y-85360000D02*
X147985000Y-85780000D01*
X147985000Y-87900000D02*
X147985000Y-88320000D01*
X147985000Y-90440000D02*
X147985000Y-90860000D01*
X147985000Y-92980000D02*
X147985000Y-93400000D01*
X147985000Y-95520000D02*
X147985000Y-95940000D01*
X147985000Y-98060000D02*
X147985000Y-98480000D01*
X147985000Y-100600000D02*
X147985000Y-101020000D01*
X147985000Y-103140000D02*
X147985000Y-103560000D01*
X147985000Y-105680000D02*
X147985000Y-106100000D01*
X147985000Y-108220000D02*
X147985000Y-108640000D01*
X147985000Y-110760000D02*
X147985000Y-111180000D01*
X147985000Y-113300000D02*
X147985000Y-113720000D01*
X147985000Y-115839937D02*
X147985000Y-116197000D01*
X148325000Y-67580000D02*
X148325000Y-68000000D01*
X148325000Y-70120000D02*
X148325000Y-70540000D01*
X148325000Y-72660000D02*
X148325000Y-73080000D01*
X148325000Y-75200000D02*
X148325000Y-75620000D01*
X148325000Y-77740000D02*
X148325000Y-78160000D01*
X148325000Y-80280000D02*
X148325000Y-80700000D01*
X148325000Y-82820000D02*
X148325000Y-83240000D01*
X148325000Y-85360000D02*
X148325000Y-85780000D01*
X148325000Y-87900000D02*
X148325000Y-88320000D01*
X148325000Y-90440000D02*
X148325000Y-90860000D01*
X148325000Y-92980000D02*
X148325000Y-93400000D01*
X148325000Y-95520000D02*
X148325000Y-95940000D01*
X148325000Y-98060000D02*
X148325000Y-98480000D01*
X148325000Y-100600000D02*
X148325000Y-101020000D01*
X148325000Y-103140000D02*
X148325000Y-103560000D01*
X148325000Y-105680000D02*
X148325000Y-106100000D01*
X148325000Y-108220000D02*
X148325000Y-108640000D01*
X148325000Y-110760000D02*
X148325000Y-111180000D01*
X148325000Y-113300000D02*
X148325000Y-113720000D01*
X127135324Y-65460000D02*
G75*
G02*
X127715000Y-65040000I579692J-190051D01*
G01*
X127715000Y-116260000D02*
G75*
G02*
X127135324Y-115839937I1J610002D01*
G01*
X147715000Y-65040000D02*
G75*
G02*
X148294676Y-65460063I0J-610000D01*
G01*
X148294676Y-115839937D02*
G75*
G02*
X147715000Y-116260069I-579676J189837D01*
G01*
%TO.C,SW10*%
X133840000Y-125140000D02*
X136350000Y-125140000D01*
X133840000Y-137360000D02*
X133840000Y-125140000D01*
X133840000Y-137360000D02*
X136350000Y-137360000D01*
X138650000Y-125140000D02*
X141250000Y-125140000D01*
X138650000Y-137360000D02*
X141250000Y-137360000D01*
X143550000Y-125140000D02*
X146060000Y-125140000D01*
X143550000Y-137360000D02*
X146060000Y-137360000D01*
X146060000Y-125140000D02*
X146060000Y-137360000D01*
%TO.C,SW11*%
X148890000Y-125140000D02*
X151400000Y-125140000D01*
X148890000Y-137360000D02*
X148890000Y-125140000D01*
X148890000Y-137360000D02*
X151400000Y-137360000D01*
X153700000Y-125140000D02*
X156300000Y-125140000D01*
X153700000Y-137360000D02*
X156300000Y-137360000D01*
X158600000Y-125140000D02*
X161110000Y-125140000D01*
X158600000Y-137360000D02*
X161110000Y-137360000D01*
X161110000Y-125140000D02*
X161110000Y-137360000D01*
%TO.C,SW4*%
X209140000Y-104140000D02*
X209140000Y-106650000D01*
X209140000Y-104140000D02*
X221360000Y-104140000D01*
X209140000Y-108950000D02*
X209140000Y-111550000D01*
X209140000Y-113850000D02*
X209140000Y-116360000D01*
X221360000Y-104140000D02*
X221360000Y-106650000D01*
X221360000Y-108950000D02*
X221360000Y-111550000D01*
X221360000Y-113850000D02*
X221360000Y-116360000D01*
X221360000Y-116360000D02*
X209140000Y-116360000D01*
%TO.C,S2*%
D13*
X118800000Y-93000000D02*
X119030000Y-93000000D01*
X118800000Y-97000000D02*
X118800000Y-93000000D01*
X119030000Y-97000000D02*
X118800000Y-97000000D01*
X121700000Y-93000000D02*
X121470000Y-93000000D01*
X121700000Y-93000000D02*
X121700000Y-97000000D01*
X121700000Y-97000000D02*
X121470000Y-97000000D01*
%TO.C,SW3*%
D12*
X224890000Y-89140000D02*
X224890000Y-91650000D01*
X224890000Y-89140000D02*
X237110000Y-89140000D01*
X224890000Y-93950000D02*
X224890000Y-96550000D01*
X224890000Y-98850000D02*
X224890000Y-101360000D01*
X237110000Y-89140000D02*
X237110000Y-91650000D01*
X237110000Y-93950000D02*
X237110000Y-96550000D01*
X237110000Y-98850000D02*
X237110000Y-101360000D01*
X237110000Y-101360000D02*
X224890000Y-101360000D01*
%TO.C,S1*%
D13*
X146425000Y-60050000D02*
X150425000Y-60050000D01*
X146425000Y-60280000D02*
X146425000Y-60050000D01*
X146425000Y-62950000D02*
X146425000Y-62720000D01*
X150425000Y-60050000D02*
X150425000Y-60280000D01*
X150425000Y-62950000D02*
X146425000Y-62950000D01*
X150425000Y-62950000D02*
X150425000Y-62720000D01*
%TO.C,SW2*%
D12*
X193390000Y-89140000D02*
X193390000Y-91650000D01*
X193390000Y-89140000D02*
X205610000Y-89140000D01*
X193390000Y-93950000D02*
X193390000Y-96550000D01*
X193390000Y-98850000D02*
X193390000Y-101360000D01*
X205610000Y-89140000D02*
X205610000Y-91650000D01*
X205610000Y-93950000D02*
X205610000Y-96550000D01*
X205610000Y-98850000D02*
X205610000Y-101360000D01*
X205610000Y-101360000D02*
X193390000Y-101360000D01*
%TO.C,SW13*%
X178890000Y-125140000D02*
X181400000Y-125140000D01*
X178890000Y-137360000D02*
X178890000Y-125140000D01*
X178890000Y-137360000D02*
X181400000Y-137360000D01*
X183700000Y-125140000D02*
X186300000Y-125140000D01*
X183700000Y-137360000D02*
X186300000Y-137360000D01*
X188600000Y-125140000D02*
X191110000Y-125140000D01*
X188600000Y-137360000D02*
X191110000Y-137360000D01*
X191110000Y-125140000D02*
X191110000Y-137360000D01*
%TO.C,SW8*%
X86140000Y-104140000D02*
X86140000Y-106650000D01*
X86140000Y-104140000D02*
X98360000Y-104140000D01*
X86140000Y-108950000D02*
X86140000Y-111550000D01*
X86140000Y-113850000D02*
X86140000Y-116360000D01*
X98360000Y-104140000D02*
X98360000Y-106650000D01*
X98360000Y-108950000D02*
X98360000Y-111550000D01*
X98360000Y-113850000D02*
X98360000Y-116360000D01*
X98360000Y-116360000D02*
X86140000Y-116360000D01*
%TO.C,SW9*%
X118840000Y-125140000D02*
X121350000Y-125140000D01*
X118840000Y-137360000D02*
X118840000Y-125140000D01*
X118840000Y-137360000D02*
X121350000Y-137360000D01*
X123650000Y-125140000D02*
X126250000Y-125140000D01*
X123650000Y-137360000D02*
X126250000Y-137360000D01*
X128550000Y-125140000D02*
X131060000Y-125140000D01*
X128550000Y-137360000D02*
X131060000Y-137360000D01*
X131060000Y-125140000D02*
X131060000Y-137360000D01*
%TO.C,SW12*%
X163890000Y-125140000D02*
X166400000Y-125140000D01*
X163890000Y-137360000D02*
X163890000Y-125140000D01*
X163890000Y-137360000D02*
X166400000Y-137360000D01*
X168700000Y-125140000D02*
X171300000Y-125140000D01*
X168700000Y-137360000D02*
X171300000Y-137360000D01*
X173600000Y-125140000D02*
X176110000Y-125140000D01*
X173600000Y-137360000D02*
X176110000Y-137360000D01*
X176110000Y-125140000D02*
X176110000Y-137360000D01*
%TO.C,SW1*%
X209140000Y-74140000D02*
X209140000Y-76650000D01*
X209140000Y-74140000D02*
X221360000Y-74140000D01*
X209140000Y-78950000D02*
X209140000Y-81550000D01*
X209140000Y-83850000D02*
X209140000Y-86360000D01*
X221360000Y-74140000D02*
X221360000Y-76650000D01*
X221360000Y-78950000D02*
X221360000Y-81550000D01*
X221360000Y-83850000D02*
X221360000Y-86360000D01*
X221360000Y-86360000D02*
X209140000Y-86360000D01*
%TO.C,D1*%
X151765000Y-74912500D02*
X151765000Y-77197500D01*
X151765000Y-77197500D02*
X153235000Y-77197500D01*
X153235000Y-77197500D02*
X153235000Y-74912500D01*
%TO.C,SW5*%
X86140000Y-74140000D02*
X86140000Y-76650000D01*
X86140000Y-74140000D02*
X98360000Y-74140000D01*
X86140000Y-78950000D02*
X86140000Y-81550000D01*
X86140000Y-83850000D02*
X86140000Y-86360000D01*
X98360000Y-74140000D02*
X98360000Y-76650000D01*
X98360000Y-78950000D02*
X98360000Y-81550000D01*
X98360000Y-83850000D02*
X98360000Y-86360000D01*
X98360000Y-86360000D02*
X86140000Y-86360000D01*
%TO.C,SW7*%
X101890000Y-89140000D02*
X101890000Y-91650000D01*
X101890000Y-89140000D02*
X114110000Y-89140000D01*
X101890000Y-93950000D02*
X101890000Y-96550000D01*
X101890000Y-98850000D02*
X101890000Y-101360000D01*
X114110000Y-89140000D02*
X114110000Y-91650000D01*
X114110000Y-93950000D02*
X114110000Y-96550000D01*
X114110000Y-98850000D02*
X114110000Y-101360000D01*
X114110000Y-101360000D02*
X101890000Y-101360000D01*
%TO.C,J2*%
X160010000Y-113670000D02*
X160010000Y-116330000D01*
X177850000Y-113670000D02*
X160010000Y-113670000D01*
X177850000Y-113670000D02*
X177850000Y-116330000D01*
X177850000Y-116330000D02*
X160010000Y-116330000D01*
X180450000Y-115000000D02*
X180450000Y-116330000D01*
X180450000Y-116330000D02*
X179120000Y-116330000D01*
%TO.C,SW6*%
X70390000Y-89140000D02*
X70390000Y-91650000D01*
X70390000Y-89140000D02*
X82610000Y-89140000D01*
X70390000Y-93950000D02*
X70390000Y-96550000D01*
X70390000Y-98850000D02*
X70390000Y-101360000D01*
X82610000Y-89140000D02*
X82610000Y-91650000D01*
X82610000Y-93950000D02*
X82610000Y-96550000D01*
X82610000Y-98850000D02*
X82610000Y-101360000D01*
X82610000Y-101360000D02*
X70390000Y-101360000D01*
%TD*%
M02*
