%TF.GenerationSoftware,KiCad,Pcbnew,10.0.0*%
%TF.CreationDate,2026-04-03T19:05:29+01:00*%
%TF.ProjectId,design,64657369-676e-42e6-9b69-6361645f7063,rev?*%
%TF.SameCoordinates,Original*%
%TF.FileFunction,Copper,L1,Top*%
%TF.FilePolarity,Positive*%
%FSLAX46Y46*%
G04 Gerber Fmt 4.6, Leading zero omitted, Abs format (unit mm)*
G04 Created by KiCad (PCBNEW 10.0.0) date 2026-04-03 19:05:29*
%MOMM*%
%LPD*%
G01*
G04 APERTURE LIST*
G04 Aperture macros list*
%AMRoundRect*
0 Rectangle with rounded corners*
0 $1 Rounding radius*
0 $2 $3 $4 $5 $6 $7 $8 $9 X,Y pos of 4 corners*
0 Add a 4 corners polygon primitive as box body*
4,1,4,$2,$3,$4,$5,$6,$7,$8,$9,$2,$3,0*
0 Add four circle primitives for the rounded corners*
1,1,$1+$1,$2,$3*
1,1,$1+$1,$4,$5*
1,1,$1+$1,$6,$7*
1,1,$1+$1,$8,$9*
0 Add four rect primitives between the rounded corners*
20,1,$1+$1,$2,$3,$4,$5,0*
20,1,$1+$1,$4,$5,$6,$7,0*
20,1,$1+$1,$6,$7,$8,$9,0*
20,1,$1+$1,$8,$9,$2,$3,0*%
%AMFreePoly0*
4,1,37,0.800000,0.796148,0.878414,0.796148,1.032228,0.765552,1.177117,0.705537,1.307515,0.618408,1.418408,0.507515,1.505537,0.377117,1.565552,0.232228,1.596148,0.078414,1.596148,-0.078414,1.565552,-0.232228,1.505537,-0.377117,1.418408,-0.507515,1.307515,-0.618408,1.177117,-0.705537,1.032228,-0.765552,0.878414,-0.796148,0.800000,-0.796148,0.800000,-0.800000,-1.400000,-0.800000,
-1.403843,-0.796157,-1.439018,-0.796157,-1.511114,-0.766294,-1.566294,-0.711114,-1.596157,-0.639018,-1.596157,-0.603843,-1.600000,-0.600000,-1.600000,0.600000,-1.596157,0.603843,-1.596157,0.639018,-1.566294,0.711114,-1.511114,0.766294,-1.439018,0.796157,-1.403843,0.796157,-1.400000,0.800000,0.800000,0.800000,0.800000,0.796148,0.800000,0.796148,$1*%
%AMFreePoly1*
4,1,37,1.403843,0.796157,1.439018,0.796157,1.511114,0.766294,1.566294,0.711114,1.596157,0.639018,1.596157,0.603843,1.600000,0.600000,1.600000,-0.600000,1.596157,-0.603843,1.596157,-0.639018,1.566294,-0.711114,1.511114,-0.766294,1.439018,-0.796157,1.403843,-0.796157,1.400000,-0.800000,-0.800000,-0.800000,-0.800000,-0.796148,-0.878414,-0.796148,-1.032228,-0.765552,-1.177117,-0.705537,
-1.307515,-0.618408,-1.418408,-0.507515,-1.505537,-0.377117,-1.565552,-0.232228,-1.596148,-0.078414,-1.596148,0.078414,-1.565552,0.232228,-1.505537,0.377117,-1.418408,0.507515,-1.307515,0.618408,-1.177117,0.705537,-1.032228,0.765552,-0.878414,0.796148,-0.800000,0.796148,-0.800000,0.800000,1.400000,0.800000,1.403843,0.796157,1.403843,0.796157,$1*%
%AMFreePoly2*
4,1,37,0.603843,0.796157,0.639018,0.796157,0.711114,0.766294,0.766294,0.711114,0.796157,0.639018,0.796157,0.603843,0.800000,0.600000,0.800000,-0.600000,0.796157,-0.603843,0.796157,-0.639018,0.766294,-0.711114,0.711114,-0.766294,0.639018,-0.796157,0.603843,-0.796157,0.600000,-0.800000,0.000000,-0.800000,0.000000,-0.796148,-0.078414,-0.796148,-0.232228,-0.765552,-0.377117,-0.705537,
-0.507515,-0.618408,-0.618408,-0.507515,-0.705537,-0.377117,-0.765552,-0.232228,-0.796148,-0.078414,-0.796148,0.078414,-0.765552,0.232228,-0.705537,0.377117,-0.618408,0.507515,-0.507515,0.618408,-0.377117,0.705537,-0.232228,0.765552,-0.078414,0.796148,0.000000,0.796148,0.000000,0.800000,0.600000,0.800000,0.603843,0.796157,0.603843,0.796157,$1*%
%AMFreePoly3*
4,1,37,0.000000,0.796148,0.078414,0.796148,0.232228,0.765552,0.377117,0.705537,0.507515,0.618408,0.618408,0.507515,0.705537,0.377117,0.765552,0.232228,0.796148,0.078414,0.796148,-0.078414,0.765552,-0.232228,0.705537,-0.377117,0.618408,-0.507515,0.507515,-0.618408,0.377117,-0.705537,0.232228,-0.765552,0.078414,-0.796148,0.000000,-0.796148,0.000000,-0.800000,-0.600000,-0.800000,
-0.603843,-0.796157,-0.639018,-0.796157,-0.711114,-0.766294,-0.766294,-0.711114,-0.796157,-0.639018,-0.796157,-0.603843,-0.800000,-0.600000,-0.800000,0.600000,-0.796157,0.603843,-0.796157,0.639018,-0.766294,0.711114,-0.711114,0.766294,-0.639018,0.796157,-0.603843,0.796157,-0.600000,0.800000,0.000000,0.800000,0.000000,0.796148,0.000000,0.796148,$1*%
G04 Aperture macros list end*
%TA.AperFunction,ComponentPad*%
%ADD10R,1.700000X1.700000*%
%TD*%
%TA.AperFunction,ComponentPad*%
%ADD11C,1.700000*%
%TD*%
%TA.AperFunction,SMDPad,CuDef*%
%ADD12FreePoly0,0.000000*%
%TD*%
%TA.AperFunction,ComponentPad*%
%ADD13RoundRect,0.200000X-0.600000X-0.600000X0.600000X-0.600000X0.600000X0.600000X-0.600000X0.600000X0*%
%TD*%
%TA.AperFunction,SMDPad,CuDef*%
%ADD14RoundRect,0.800000X-0.800000X-0.000010X0.800000X-0.000010X0.800000X0.000010X-0.800000X0.000010X0*%
%TD*%
%TA.AperFunction,ComponentPad*%
%ADD15C,1.600000*%
%TD*%
%TA.AperFunction,SMDPad,CuDef*%
%ADD16FreePoly1,0.000000*%
%TD*%
%TA.AperFunction,ComponentPad*%
%ADD17FreePoly2,0.000000*%
%TD*%
%TA.AperFunction,ComponentPad*%
%ADD18FreePoly3,0.000000*%
%TD*%
%TA.AperFunction,ComponentPad*%
%ADD19O,1.700000X2.900000*%
%TD*%
%TA.AperFunction,ComponentPad*%
%ADD20O,2.900000X1.700000*%
%TD*%
%TA.AperFunction,SMDPad,CuDef*%
%ADD21RoundRect,0.250000X0.650000X-0.425000X0.650000X0.425000X-0.650000X0.425000X-0.650000X-0.425000X0*%
%TD*%
%TA.AperFunction,SMDPad,CuDef*%
%ADD22RoundRect,0.100000X0.100000X-0.130000X0.100000X0.130000X-0.100000X0.130000X-0.100000X-0.130000X0*%
%TD*%
%TA.AperFunction,SMDPad,CuDef*%
%ADD23RoundRect,0.250000X-0.425000X-0.650000X0.425000X-0.650000X0.425000X0.650000X-0.425000X0.650000X0*%
%TD*%
%TA.AperFunction,SMDPad,CuDef*%
%ADD24RoundRect,0.218750X0.256250X-0.218750X0.256250X0.218750X-0.256250X0.218750X-0.256250X-0.218750X0*%
%TD*%
%TA.AperFunction,ViaPad*%
%ADD25C,0.600000*%
%TD*%
%TA.AperFunction,Conductor*%
%ADD26C,0.200000*%
%TD*%
G04 APERTURE END LIST*
D10*
%TO.P,J2,1,Pin_1_1*%
%TO.N,N/C*%
X180500000Y-62000000D03*
D11*
%TO.P,J2,2,Pin_2_2*%
X177960000Y-62000000D03*
%TO.P,J2,3,Pin_3_3*%
X175420000Y-62000000D03*
%TO.P,J2,4,Pin_4_4*%
X172880000Y-62000000D03*
%TO.P,J2,5,Pin_5_5*%
X170340000Y-62000000D03*
%TO.P,J2,6,Pin_6_6*%
X167800000Y-62000000D03*
%TO.P,J2,7,Pin_7_7*%
X165260000Y-62000000D03*
%TO.P,J2,8,Pin_8_8*%
X162720000Y-62000000D03*
%TD*%
D12*
%TO.P,A1,1,GPIO0_1*%
%TO.N,Net-(A1-GPIO0)*%
X128025000Y-66520000D03*
D13*
X128825000Y-66520000D03*
D14*
%TO.P,A1,2,GPIO1_2*%
%TO.N,Net-(A1-GPIO1)*%
X128025000Y-69060000D03*
D15*
X128825000Y-69060000D03*
D16*
%TO.P,A1,3,GND_3*%
%TO.N,Net-(S2-A)*%
X128025000Y-71600000D03*
D17*
X128825000Y-71600000D03*
D14*
%TO.P,A1,4,GPIO2_4*%
%TO.N,Net-(A1-GPIO2)*%
X128025000Y-74140000D03*
D15*
X128825000Y-74140000D03*
D14*
%TO.P,A1,5,GPIO3_5*%
%TO.N,Net-(A1-GPIO3)*%
X128025000Y-76680000D03*
D15*
X128825000Y-76680000D03*
D14*
%TO.P,A1,6,GPIO4_6*%
%TO.N,Net-(A1-GPIO4)*%
X128025000Y-79220000D03*
D15*
X128825000Y-79220000D03*
D14*
%TO.P,A1,7,GPIO5_7*%
%TO.N,Net-(A1-GPIO5)*%
X128025000Y-81760000D03*
D15*
X128825000Y-81760000D03*
D16*
%TO.P,A1,8,GND_8*%
%TO.N,Net-(S2-A)*%
X128025000Y-84300000D03*
D17*
X128825000Y-84300000D03*
D14*
%TO.P,A1,9,GPIO6_9*%
%TO.N,Net-(A1-GPIO6)*%
X128025000Y-86840000D03*
D15*
X128825000Y-86840000D03*
D14*
%TO.P,A1,10,GPIO7_10*%
%TO.N,Net-(A1-GPIO7)*%
X128025000Y-89380000D03*
D15*
X128825000Y-89380000D03*
D14*
%TO.P,A1,11,GPIO8_11*%
%TO.N,unconnected-(A1-GPIO8-Pad11)_1*%
X128025000Y-91920000D03*
D15*
%TO.N,unconnected-(A1-GPIO8-Pad11)*%
X128825000Y-91920000D03*
D14*
%TO.P,A1,12,GPIO9_12*%
%TO.N,unconnected-(A1-GPIO9-Pad12)*%
X128025000Y-94460000D03*
D15*
%TO.N,unconnected-(A1-GPIO9-Pad12)_1*%
X128825000Y-94460000D03*
D16*
%TO.P,A1,13,GND_13*%
%TO.N,Net-(S2-A)*%
X128025000Y-97000000D03*
D17*
X128825000Y-97000000D03*
D14*
%TO.P,A1,14,GPIO10_14*%
%TO.N,/SCK*%
X128025000Y-99540000D03*
D15*
X128825000Y-99540000D03*
D14*
%TO.P,A1,15,GPIO11_15*%
%TO.N,/SDA*%
X128025000Y-102080000D03*
D15*
X128825000Y-102080000D03*
D14*
%TO.P,A1,16,GPIO12_16*%
%TO.N,Net-(A1-GPIO12)*%
X128025000Y-104620000D03*
D15*
X128825000Y-104620000D03*
D14*
%TO.P,A1,17,GPIO13_17*%
%TO.N,Net-(A1-GPIO13)*%
X128025000Y-107160000D03*
D15*
X128825000Y-107160000D03*
D16*
%TO.P,A1,18,GND_18*%
%TO.N,Net-(S2-A)*%
X128025000Y-109700000D03*
D17*
X128825000Y-109700000D03*
D14*
%TO.P,A1,19,GPIO14_19*%
%TO.N,Net-(A1-GPIO14)*%
X128025000Y-112240000D03*
D15*
X128825000Y-112240000D03*
D14*
%TO.P,A1,20,GPIO15_20*%
%TO.N,Net-(A1-GPIO15)*%
X128025000Y-114780000D03*
D15*
X128825000Y-114780000D03*
%TO.P,A1,21,GPIO16_21*%
%TO.N,/A0*%
X146605000Y-114780000D03*
D14*
X147405000Y-114780000D03*
D15*
%TO.P,A1,22,GPIO17_22*%
%TO.N,/RESET*%
X146605000Y-112240000D03*
D14*
X147405000Y-112240000D03*
D18*
%TO.P,A1,23,GND_23*%
%TO.N,Net-(S2-A)*%
X146605000Y-109700000D03*
D12*
X147405000Y-109700000D03*
D15*
%TO.P,A1,24,GPIO18_24*%
%TO.N,/CS*%
X146605000Y-107160000D03*
D14*
X147405000Y-107160000D03*
D15*
%TO.P,A1,25,GPIO19_25*%
%TO.N,unconnected-(A1-GPIO19-Pad25)_1*%
X146605000Y-104620000D03*
D14*
%TO.N,unconnected-(A1-GPIO19-Pad25)*%
X147405000Y-104620000D03*
D15*
%TO.P,A1,26,GPIO20_26*%
%TO.N,unconnected-(A1-GPIO20-Pad26)*%
X146605000Y-102080000D03*
D14*
%TO.N,unconnected-(A1-GPIO20-Pad26)_1*%
X147405000Y-102080000D03*
D15*
%TO.P,A1,27,GPIO21_27*%
%TO.N,Net-(A1-GPIO21)*%
X146605000Y-99540000D03*
D14*
X147405000Y-99540000D03*
D18*
%TO.P,A1,28,GND_28*%
%TO.N,Net-(S2-A)*%
X146605000Y-97000000D03*
D12*
X147405000Y-97000000D03*
D15*
%TO.P,A1,29,GPIO22_29*%
%TO.N,Net-(A1-GPIO22)*%
X146605000Y-94460000D03*
D14*
X147405000Y-94460000D03*
D15*
%TO.P,A1,30,RUN_30*%
%TO.N,Net-(A1-RUN)*%
X146605000Y-91920000D03*
D14*
X147405000Y-91920000D03*
D15*
%TO.P,A1,31,GPIO26_ADC0_31*%
%TO.N,unconnected-(A1-GPIO26_ADC0-Pad31)_1*%
X146605000Y-89380000D03*
D14*
%TO.N,unconnected-(A1-GPIO26_ADC0-Pad31)*%
X147405000Y-89380000D03*
D15*
%TO.P,A1,32,GPIO27_ADC1_32*%
%TO.N,unconnected-(A1-GPIO27_ADC1-Pad32)*%
X146605000Y-86840000D03*
D14*
%TO.N,unconnected-(A1-GPIO27_ADC1-Pad32)_1*%
X147405000Y-86840000D03*
D18*
%TO.P,A1,33,AGND_33*%
%TO.N,/GND*%
X146605000Y-84300000D03*
D12*
X147405000Y-84300000D03*
D15*
%TO.P,A1,34,GPIO28_ADC2_34*%
%TO.N,unconnected-(A1-GPIO28_ADC2-Pad34)_1*%
X146605000Y-81760000D03*
D14*
%TO.N,unconnected-(A1-GPIO28_ADC2-Pad34)*%
X147405000Y-81760000D03*
D15*
%TO.P,A1,35,ADC_VREF_35*%
%TO.N,unconnected-(A1-ADC_VREF-Pad35)_1*%
X146605000Y-79220000D03*
D14*
%TO.N,unconnected-(A1-ADC_VREF-Pad35)*%
X147405000Y-79220000D03*
D15*
%TO.P,A1,36,3V3_36*%
%TO.N,/LED*%
X146605000Y-76680000D03*
D14*
X147405000Y-76680000D03*
D15*
%TO.P,A1,37,3V3_EN_37*%
%TO.N,unconnected-(A1-3V3_EN-Pad37)*%
X146605000Y-74140000D03*
D14*
%TO.N,unconnected-(A1-3V3_EN-Pad37)_1*%
X147405000Y-74140000D03*
D18*
%TO.P,A1,38,GND_38*%
%TO.N,Net-(S2-A)*%
X146605000Y-71600000D03*
D12*
X147405000Y-71600000D03*
D15*
%TO.P,A1,39,VSYS_39*%
%TO.N,unconnected-(A1-VSYS-Pad39)*%
X146605000Y-69060000D03*
D14*
X147405000Y-69060000D03*
D15*
%TO.P,A1,40,VBUS_40*%
%TO.N,/VCC*%
X146605000Y-66520000D03*
D14*
X147405000Y-66520000D03*
%TD*%
D19*
%TO.P,SW10,1,1_1*%
%TO.N,Net-(A1-GPIO13)*%
X137450000Y-137500000D03*
X137450000Y-125000000D03*
%TO.P,SW10,2,2_2*%
%TO.N,Net-(S2-A)*%
X142450000Y-137500000D03*
X142450000Y-125000000D03*
%TD*%
%TO.P,SW11,1,1_1*%
%TO.N,Net-(A1-GPIO14)*%
X152500000Y-137500000D03*
X152500000Y-125000000D03*
%TO.P,SW11,2,2_2*%
%TO.N,Net-(S2-A)*%
X157500000Y-137500000D03*
X157500000Y-125000000D03*
%TD*%
D20*
%TO.P,SW4,1,1_1*%
%TO.N,Net-(A1-GPIO3)*%
X209000000Y-107750000D03*
X221500000Y-107750000D03*
%TO.P,SW4,2,2_2*%
%TO.N,Net-(S2-A)*%
X209000000Y-112750000D03*
X221500000Y-112750000D03*
%TD*%
D21*
%TO.P,S2,1,A_1*%
%TO.N,Net-(S2-A)*%
X120250000Y-97075000D03*
%TO.P,S2,2,B_2*%
%TO.N,Net-(A1-RUN)*%
X120250000Y-92925000D03*
%TD*%
D22*
%TO.P,R1,1*%
%TO.N,/LED*%
X155000000Y-75820000D03*
%TO.P,R1,2*%
%TO.N,Net-(D1-A)*%
X155000000Y-75180000D03*
%TD*%
D20*
%TO.P,SW3,1,1_1*%
%TO.N,Net-(A1-GPIO2)*%
X224750000Y-92750000D03*
X237250000Y-92750000D03*
%TO.P,SW3,2,2_2*%
%TO.N,Net-(S2-A)*%
X224750000Y-97750000D03*
X237250000Y-97750000D03*
%TD*%
D23*
%TO.P,S1,1,A_1*%
%TO.N,Net-(A1-GPIO22)*%
X146350000Y-61500000D03*
%TO.P,S1,2,B_2*%
%TO.N,/GND*%
X150500000Y-61500000D03*
%TD*%
D20*
%TO.P,SW2,1,1_1*%
%TO.N,Net-(A1-GPIO1)*%
X193250000Y-92750000D03*
X205750000Y-92750000D03*
%TO.P,SW2,2,2_2*%
%TO.N,Net-(S2-A)*%
X193250000Y-97750000D03*
X205750000Y-97750000D03*
%TD*%
D19*
%TO.P,SW13,1,1_1*%
%TO.N,Net-(A1-GPIO21)*%
X182500000Y-137500000D03*
X182500000Y-125000000D03*
%TO.P,SW13,2,2_2*%
%TO.N,Net-(S2-A)*%
X187500000Y-137500000D03*
X187500000Y-125000000D03*
%TD*%
D20*
%TO.P,SW8,1,1_1*%
%TO.N,Net-(A1-GPIO7)*%
X86000000Y-107750000D03*
X98500000Y-107750000D03*
%TO.P,SW8,2,2_2*%
%TO.N,Net-(S2-A)*%
X86000000Y-112750000D03*
X98500000Y-112750000D03*
%TD*%
D19*
%TO.P,SW9,1,1_1*%
%TO.N,Net-(A1-GPIO12)*%
X122450000Y-137500000D03*
X122450000Y-125000000D03*
%TO.P,SW9,2,2_2*%
%TO.N,Net-(S2-A)*%
X127450000Y-137500000D03*
X127450000Y-125000000D03*
%TD*%
%TO.P,SW12,1,1_1*%
%TO.N,Net-(A1-GPIO15)*%
X167500000Y-137500000D03*
X167500000Y-125000000D03*
%TO.P,SW12,2,2_2*%
%TO.N,Net-(S2-A)*%
X172500000Y-137500000D03*
X172500000Y-125000000D03*
%TD*%
D20*
%TO.P,SW1,1,1_1*%
%TO.N,Net-(A1-GPIO0)*%
X209000000Y-77750000D03*
X221500000Y-77750000D03*
%TO.P,SW1,2,2_2*%
%TO.N,Net-(S2-A)*%
X209000000Y-82750000D03*
X221500000Y-82750000D03*
%TD*%
D24*
%TO.P,D1,1,K_1*%
%TO.N,/LED*%
X152500000Y-76500000D03*
%TO.P,D1,2,A_2*%
%TO.N,Net-(D1-A)*%
X152500000Y-74925000D03*
%TD*%
D20*
%TO.P,SW5,1,1_1*%
%TO.N,Net-(A1-GPIO4)*%
X86000000Y-77750000D03*
X98500000Y-77750000D03*
%TO.P,SW5,2,2_2*%
%TO.N,Net-(S2-A)*%
X86000000Y-82750000D03*
X98500000Y-82750000D03*
%TD*%
%TO.P,SW7,1,1_1*%
%TO.N,Net-(A1-GPIO6)*%
X101750000Y-92750000D03*
X114250000Y-92750000D03*
%TO.P,SW7,2,2_2*%
%TO.N,Net-(S2-A)*%
X101750000Y-97750000D03*
X114250000Y-97750000D03*
%TD*%
D10*
%TO.P,J2,1,Pin_1_1*%
%TO.N,/LED*%
X179120000Y-115000000D03*
D11*
%TO.P,J2,2,Pin_2_2*%
%TO.N,/SCK*%
X176580000Y-115000000D03*
%TO.P,J2,3,Pin_3_3*%
%TO.N,/SDA*%
X174040000Y-115000000D03*
%TO.P,J2,4,Pin_4_4*%
%TO.N,/A0*%
X171500000Y-115000000D03*
%TO.P,J2,5,Pin_5_5*%
%TO.N,/RESET*%
X168960000Y-115000000D03*
%TO.P,J2,6,Pin_6_6*%
%TO.N,/CS*%
X166420000Y-115000000D03*
%TO.P,J2,7,Pin_7_7*%
%TO.N,/GND*%
X163880000Y-115000000D03*
%TO.P,J2,8,Pin_8_8*%
%TO.N,/VCC*%
X161340000Y-115000000D03*
%TD*%
D20*
%TO.P,SW6,1,1_1*%
%TO.N,Net-(A1-GPIO5)*%
X70250000Y-92750000D03*
X82750000Y-92750000D03*
%TO.P,SW6,2,2_2*%
%TO.N,Net-(S2-A)*%
X70250000Y-97750000D03*
X82750000Y-97750000D03*
%TD*%
D25*
%TO.N,Net-(A1-GPIO0)*%
X157250000Y-64000000D03*
X147000000Y-64000000D03*
%TO.N,Net-(A1-GPIO1)*%
X147000000Y-64800003D03*
X157250000Y-65250000D03*
%TO.N,Net-(S2-A)*%
X154500000Y-121250000D03*
X207000000Y-101750000D03*
X131250000Y-89750000D03*
X131250000Y-92250000D03*
X152500000Y-111250000D03*
X207000000Y-111750000D03*
%TO.N,Net-(A1-GPIO2)*%
X122500000Y-98000000D03*
X122500000Y-76000000D03*
%TO.N,Net-(A1-GPIO3)*%
X121000000Y-117500000D03*
X123300003Y-98000000D03*
X122250000Y-114500000D03*
X123250000Y-78250000D03*
%TO.N,Net-(A1-GPIO5)*%
X96750000Y-90750000D03*
X100250000Y-89250000D03*
%TO.N,Net-(A1-GPIO7)*%
X117000000Y-96750000D03*
X109620000Y-103130000D03*
%TO.N,Net-(A1-GPIO12)*%
X122500000Y-121500000D03*
%TO.N,Net-(A1-GPIO14)*%
X132250000Y-117400000D03*
%TO.N,Net-(A1-GPIO15)*%
X152750000Y-122000000D03*
X130250000Y-121500000D03*
X160250000Y-122000000D03*
%TO.N,/CS*%
X165000000Y-112500000D03*
%TO.N,Net-(A1-GPIO21)*%
X183750000Y-122500000D03*
%TO.N,Net-(A1-GPIO22)*%
X151300003Y-75000000D03*
X151300003Y-78000000D03*
X152500000Y-85500000D03*
%TO.N,/GND*%
X147655000Y-84300000D03*
X163500000Y-112500000D03*
X156500000Y-81500000D03*
X159000000Y-106000000D03*
%TO.N,/VCC*%
X160500000Y-112500000D03*
X160000000Y-109500000D03*
X150500000Y-78000000D03*
X150500000Y-75000000D03*
%TD*%
%TO.N,Net-(A1-GPIO1)*%
D26*
X193250000Y-86000000D02*
X193250000Y-92750000D01*
X161250000Y-79000000D02*
X186250000Y-79000000D01*
X159000000Y-69000000D02*
X159000000Y-76750000D01*
X186250000Y-79000000D02*
X193250000Y-86000000D01*
X157250000Y-67250000D02*
X159000000Y-69000000D01*
X157250000Y-65250000D02*
X157250000Y-67250000D01*
X159000000Y-76750000D02*
X161250000Y-79000000D01*
%TO.N,Net-(A1-GPIO0)*%
X209000000Y-77750000D02*
X221500000Y-77750000D01*
X209000000Y-71500000D02*
X209000000Y-77750000D01*
X157250000Y-64000000D02*
X201500000Y-64000000D01*
X130545000Y-64000000D02*
X128025000Y-66520000D01*
X147000000Y-64000000D02*
X130545000Y-64000000D01*
X201500000Y-64000000D02*
X209000000Y-71500000D01*
%TO.N,Net-(A1-GPIO1)*%
X128825000Y-69060000D02*
X130250000Y-67635000D01*
X193250000Y-92750000D02*
X205750000Y-92750000D01*
X138300003Y-64800003D02*
X147000000Y-64800003D01*
X130250000Y-67635000D02*
X130250000Y-65250000D01*
X138000000Y-64500000D02*
X138300003Y-64800003D01*
X131000000Y-64500000D02*
X138000000Y-64500000D01*
X130250000Y-65250000D02*
X131000000Y-64500000D01*
%TO.N,Net-(S2-A)*%
X209000000Y-82750000D02*
X221500000Y-82750000D01*
X131250000Y-89750000D02*
X131250000Y-86725000D01*
X127450000Y-125000000D02*
X129200000Y-123250000D01*
X157500000Y-137500000D02*
X157500000Y-125000000D01*
X188775000Y-123725000D02*
X187500000Y-125000000D01*
X131250000Y-94575000D02*
X131250000Y-92250000D01*
X207500000Y-112750000D02*
X209000000Y-112750000D01*
X142450000Y-125000000D02*
X144700000Y-122750000D01*
X205750000Y-97750000D02*
X193250000Y-97750000D01*
X144700000Y-122750000D02*
X156000000Y-122750000D01*
X188775000Y-122475000D02*
X188775000Y-123725000D01*
X224750000Y-97750000D02*
X225400000Y-98400000D01*
X145500000Y-108595000D02*
X145500000Y-98105000D01*
X128825000Y-84300000D02*
X129925000Y-83200000D01*
X120250000Y-97075000D02*
X127950000Y-97075000D01*
X129200000Y-123250000D02*
X140700000Y-123250000D01*
X207000000Y-111750000D02*
X207000000Y-112250000D01*
X145500000Y-98105000D02*
X146605000Y-97000000D01*
X114250000Y-97750000D02*
X119575000Y-97750000D01*
X128025000Y-109700000D02*
X131250000Y-106475000D01*
X128825000Y-71600000D02*
X147405000Y-71600000D01*
X209000000Y-119500000D02*
X207250000Y-121250000D01*
X221500000Y-112750000D02*
X209000000Y-112750000D01*
X156000000Y-122750000D02*
X154500000Y-121250000D01*
X209000000Y-112750000D02*
X209000000Y-119500000D01*
X172500000Y-125000000D02*
X172500000Y-123750000D01*
X129925000Y-83200000D02*
X129925000Y-72700000D01*
X207000000Y-101750000D02*
X205750000Y-100500000D01*
X152500000Y-111250000D02*
X150950000Y-109700000D01*
X70250000Y-97750000D02*
X82750000Y-97750000D01*
X154500000Y-121250000D02*
X170000000Y-121250000D01*
X146605000Y-109700000D02*
X145500000Y-108595000D01*
X128825000Y-97000000D02*
X131250000Y-94575000D01*
X127950000Y-97075000D02*
X128025000Y-97000000D01*
X131250000Y-106475000D02*
X131250000Y-99425000D01*
X236500000Y-82750000D02*
X221500000Y-82750000D01*
X127725000Y-84000000D02*
X128025000Y-84300000D01*
X127450000Y-137500000D02*
X127450000Y-125000000D01*
X172500000Y-123750000D02*
X170000000Y-121250000D01*
X86000000Y-112750000D02*
X98500000Y-112750000D01*
X207000000Y-112250000D02*
X207500000Y-112750000D01*
X189750000Y-121250000D02*
X190000000Y-121250000D01*
X170000000Y-121250000D02*
X189750000Y-121250000D01*
X188000000Y-125225000D02*
X188000000Y-137725000D01*
X239000000Y-96000000D02*
X239000000Y-85250000D01*
X172500000Y-137500000D02*
X172500000Y-125000000D01*
X237250000Y-97750000D02*
X224750000Y-97750000D01*
X98500000Y-94500000D02*
X101750000Y-97750000D01*
X82750000Y-97750000D02*
X82750000Y-109500000D01*
X150950000Y-109700000D02*
X147405000Y-109700000D01*
X131250000Y-99425000D02*
X128825000Y-97000000D01*
X237250000Y-97750000D02*
X239000000Y-96000000D01*
X129925000Y-72700000D02*
X128825000Y-71600000D01*
X157500000Y-125000000D02*
X157500000Y-124250000D01*
X140700000Y-123250000D02*
X142450000Y-125000000D01*
X131250000Y-86725000D02*
X128825000Y-84300000D01*
X225400000Y-108850000D02*
X221500000Y-112750000D01*
X225400000Y-98400000D02*
X225400000Y-108850000D01*
X101750000Y-97750000D02*
X82750000Y-97750000D01*
X101750000Y-97750000D02*
X114250000Y-97750000D01*
X188775000Y-122475000D02*
X190000000Y-121250000D01*
X207250000Y-121250000D02*
X189750000Y-121250000D01*
X119575000Y-97750000D02*
X120250000Y-97075000D01*
X142450000Y-137500000D02*
X142450000Y-125000000D01*
X82750000Y-109500000D02*
X86000000Y-112750000D01*
X86000000Y-82750000D02*
X98500000Y-82750000D01*
X98500000Y-82750000D02*
X98500000Y-94500000D01*
X205750000Y-100500000D02*
X205750000Y-97750000D01*
X157500000Y-124250000D02*
X156000000Y-122750000D01*
X239000000Y-85250000D02*
X236500000Y-82750000D01*
%TO.N,Net-(A1-GPIO2)*%
X121750000Y-115000000D02*
X121750000Y-119184314D01*
X122815686Y-120250000D02*
X202934314Y-120250000D01*
X121750000Y-119184314D02*
X122815686Y-120250000D01*
X221773654Y-92750000D02*
X224750000Y-92750000D01*
X122500000Y-98000000D02*
X122500000Y-99750000D01*
X124610000Y-74140000D02*
X128025000Y-74140000D01*
X204967157Y-109556497D02*
X221773654Y-92750000D01*
X121500000Y-100750000D02*
X121500000Y-114750000D01*
X224750000Y-92750000D02*
X237250000Y-92750000D01*
X122500000Y-99750000D02*
X121500000Y-100750000D01*
X122500000Y-76000000D02*
X122750000Y-76000000D01*
X204967157Y-118217157D02*
X204967157Y-109556497D01*
X122750000Y-76000000D02*
X124610000Y-74140000D01*
X202934314Y-120250000D02*
X204967157Y-118217157D01*
X121500000Y-114750000D02*
X121750000Y-115000000D01*
%TO.N,Net-(A1-GPIO3)*%
X123570000Y-76680000D02*
X123250000Y-77000000D01*
X205500000Y-111250000D02*
X209000000Y-107750000D01*
X205500000Y-118250000D02*
X205500000Y-111250000D01*
X121000000Y-118999999D02*
X122650000Y-120650000D01*
X203099999Y-120650000D02*
X205500000Y-118250000D01*
X123300003Y-98000000D02*
X123300003Y-99949997D01*
X122250000Y-101000000D02*
X122250000Y-114500000D01*
X121000000Y-117500000D02*
X121000000Y-118999999D01*
X128025000Y-76680000D02*
X123570000Y-76680000D01*
X221500000Y-107750000D02*
X209000000Y-107750000D01*
X122650000Y-120650000D02*
X203099999Y-120650000D01*
X123250000Y-77000000D02*
X123250000Y-78250000D01*
X123300003Y-99949997D02*
X122250000Y-101000000D01*
%TO.N,Net-(A1-GPIO4)*%
X86000000Y-77750000D02*
X98500000Y-77750000D01*
X113780000Y-79220000D02*
X128025000Y-79220000D01*
X112250000Y-77750000D02*
X113750000Y-79250000D01*
X98500000Y-77750000D02*
X112250000Y-77750000D01*
X113750000Y-79250000D02*
X113780000Y-79220000D01*
%TO.N,Net-(A1-GPIO5)*%
X70250000Y-92750000D02*
X82750000Y-92750000D01*
X116750000Y-85020000D02*
X116750000Y-86750000D01*
X94750000Y-92750000D02*
X96750000Y-90750000D01*
X82750000Y-92750000D02*
X94750000Y-92750000D01*
X116750000Y-86750000D02*
X115000000Y-88500000D01*
X101000000Y-88500000D02*
X100250000Y-89250000D01*
X120010000Y-81760000D02*
X116750000Y-85020000D01*
X115000000Y-88500000D02*
X101000000Y-88500000D01*
X128025000Y-81760000D02*
X120010000Y-81760000D01*
%TO.N,Net-(A1-GPIO6)*%
X114250000Y-92750000D02*
X101750000Y-92750000D01*
X114250000Y-92750000D02*
X120160000Y-86840000D01*
X120160000Y-86840000D02*
X128025000Y-86840000D01*
%TO.N,Net-(A1-GPIO7)*%
X128025000Y-89380000D02*
X119870000Y-89380000D01*
X119870000Y-89380000D02*
X118000000Y-91250000D01*
X118000000Y-91250000D02*
X118000000Y-95750000D01*
X98500000Y-107750000D02*
X105000000Y-107750000D01*
X86000000Y-107750000D02*
X98500000Y-107750000D01*
X105000000Y-107750000D02*
X109620000Y-103130000D01*
X118000000Y-95750000D02*
X117000000Y-96750000D01*
%TO.N,/SCK*%
X125434315Y-118500000D02*
X123600000Y-116665685D01*
X176000000Y-118500000D02*
X125434315Y-118500000D01*
X123600000Y-103965000D02*
X128025000Y-99540000D01*
X123600000Y-116665685D02*
X123600000Y-103965000D01*
X176500000Y-115080000D02*
X176500000Y-118000000D01*
X176500000Y-118000000D02*
X176000000Y-118500000D01*
X176580000Y-115000000D02*
X176500000Y-115080000D01*
%TO.N,/SDA*%
X124000000Y-104500000D02*
X126420000Y-102080000D01*
X125500000Y-118000000D02*
X124000000Y-116500000D01*
X126420000Y-102080000D02*
X128025000Y-102080000D01*
X174040000Y-115000000D02*
X174040000Y-117960000D01*
X174000000Y-118000000D02*
X125500000Y-118000000D01*
X174040000Y-117960000D02*
X174000000Y-118000000D01*
X124000000Y-116500000D02*
X124000000Y-104500000D01*
%TO.N,Net-(A1-GPIO12)*%
X122450000Y-137500000D02*
X122450000Y-125000000D01*
X122450000Y-121550000D02*
X122500000Y-121500000D01*
X122450000Y-125000000D02*
X122450000Y-121550000D01*
%TO.N,Net-(A1-GPIO13)*%
X137450000Y-137500000D02*
X137450000Y-125000000D01*
%TO.N,Net-(A1-GPIO14)*%
X132250000Y-117400000D02*
X126150000Y-117400000D01*
X125250000Y-115015000D02*
X128025000Y-112240000D01*
X125250000Y-116500000D02*
X125250000Y-115015000D01*
X126150000Y-117400000D02*
X125250000Y-116500000D01*
X152500000Y-137500000D02*
X152500000Y-125000000D01*
%TO.N,Net-(A1-GPIO15)*%
X167500000Y-137500000D02*
X167500000Y-125000000D01*
X152750000Y-122000000D02*
X130750000Y-122000000D01*
X167500000Y-125000000D02*
X164500000Y-122000000D01*
X130750000Y-122000000D02*
X130250000Y-121500000D01*
X164500000Y-122000000D02*
X160250000Y-122000000D01*
%TO.N,/A0*%
X153780000Y-114780000D02*
X156500000Y-117500000D01*
X156500000Y-117500000D02*
X171000000Y-117500000D01*
X171000000Y-117500000D02*
X171500000Y-117000000D01*
X147405000Y-114780000D02*
X153780000Y-114780000D01*
X171500000Y-117000000D02*
X171500000Y-115000000D01*
%TO.N,/RESET*%
X147405000Y-112240000D02*
X152760000Y-112240000D01*
X165460000Y-111500000D02*
X168960000Y-115000000D01*
X153500000Y-111500000D02*
X165460000Y-111500000D01*
X152760000Y-112240000D02*
X153500000Y-111500000D01*
%TO.N,/CS*%
X165000000Y-113580000D02*
X165000000Y-112500000D01*
X166420000Y-115000000D02*
X165000000Y-113580000D01*
%TO.N,Net-(A1-GPIO21)*%
X183750000Y-122500000D02*
X182500000Y-123750000D01*
X182500000Y-123750000D02*
X182500000Y-125000000D01*
X183000000Y-137725000D02*
X183000000Y-125225000D01*
X183775000Y-122525000D02*
X183750000Y-122500000D01*
%TO.N,Net-(A1-GPIO22)*%
X151300003Y-66450003D02*
X151300003Y-75000000D01*
X151300003Y-84300003D02*
X152500000Y-85500000D01*
X151300003Y-78000000D02*
X151300003Y-84300003D01*
X146350000Y-61500000D02*
X151300003Y-66450003D01*
%TO.N,Net-(A1-RUN)*%
X146605000Y-91920000D02*
X132830000Y-91920000D01*
X131730000Y-90820000D02*
X132830000Y-91920000D01*
X120250000Y-92925000D02*
X122355000Y-90820000D01*
X122355000Y-90820000D02*
X131730000Y-90820000D01*
%TO.N,/GND*%
X163880000Y-112880000D02*
X163500000Y-112500000D01*
X159000000Y-95645000D02*
X147655000Y-84300000D01*
X163880000Y-115000000D02*
X163880000Y-112880000D01*
X159000000Y-106000000D02*
X159000000Y-95645000D01*
X158500000Y-69500000D02*
X158500000Y-79500000D01*
X158500000Y-79500000D02*
X156500000Y-81500000D01*
X150500000Y-61500000D02*
X158500000Y-69500000D01*
%TO.N,/LED*%
X154320000Y-80820000D02*
X179120000Y-105620000D01*
X152320000Y-76680000D02*
X152500000Y-76500000D01*
X147405000Y-76680000D02*
X152320000Y-76680000D01*
X154320000Y-76500000D02*
X155000000Y-75820000D01*
X179120000Y-105620000D02*
X179120000Y-115000000D01*
X152500000Y-76500000D02*
X154320000Y-76500000D01*
X154320000Y-76500000D02*
X154320000Y-80820000D01*
%TO.N,/VCC*%
X160000000Y-109500000D02*
X160000000Y-94000000D01*
X150500000Y-84500000D02*
X150500000Y-78000000D01*
X150500000Y-69615000D02*
X147405000Y-66520000D01*
X161340000Y-113340000D02*
X160500000Y-112500000D01*
X160000000Y-94000000D02*
X150500000Y-84500000D01*
X161340000Y-115000000D02*
X161340000Y-113340000D01*
X150500000Y-75000000D02*
X150500000Y-69615000D01*
%TO.N,Net-(D1-A)*%
X152500000Y-74925000D02*
X154745000Y-74925000D01*
X154745000Y-74925000D02*
X155000000Y-75180000D01*
%TD*%
M02*
